<svg width="63" height="94" viewBox="0 0 63 94" fill="none" xmlns="http://www.w3.org/2000/svg">
<path d="M58.0597 46.6364C58.0597 52.8224 56.8871 58.0852 54.5419 62.4247C52.2152 66.7642 49.0391 70.0788 45.0135 72.3686C41.0064 74.6399 36.5007 75.7756 31.4964 75.7756C26.4553 75.7756 21.9311 74.6307 17.924 72.3409C13.9169 70.0511 10.75 66.7365 8.4233 62.397C6.09659 58.0575 4.93324 52.804 4.93324 46.6364C4.93324 40.4503 6.09659 35.1875 8.4233 30.848C10.75 26.5085 13.9169 23.2031 17.924 20.9318C21.9311 18.642 26.4553 17.4972 31.4964 17.4972C36.5007 17.4972 41.0064 18.642 45.0135 20.9318C49.0391 23.2031 52.2152 26.5085 54.5419 30.848C56.8871 35.1875 58.0597 40.4503 58.0597 46.6364ZM45.8999 46.6364C45.8999 42.6293 45.2997 39.25 44.0994 36.4986C42.9176 33.7472 41.2464 31.6605 39.0859 30.2386C36.9254 28.8168 34.3956 28.1058 31.4964 28.1058C28.5973 28.1058 26.0675 28.8168 23.907 30.2386C21.7464 31.6605 20.0661 33.7472 18.8658 36.4986C17.6839 39.25 17.093 42.6293 17.093 46.6364C17.093 50.6435 17.6839 54.0227 18.8658 56.7741C20.0661 59.5256 21.7464 61.6122 23.907 63.0341C26.0675 64.456 28.5973 65.1669 31.4964 65.1669C34.3956 65.1669 36.9254 64.456 39.0859 63.0341C41.2464 61.6122 42.9176 59.5256 44.0994 56.7741C45.2997 54.0227 45.8999 50.6435 45.8999 46.6364Z" fill="#254B74"/>
<g clip-path="url(#clip0_40_112)">
<path d="M33.6956 39.4164L40.6838 39.954C41.2082 39.954 42.0211 39.4164 42.5587 38.3413C44.1713 36.4664 41.4836 34.8538 40.6838 34.8538H37.7207L33.6956 39.4164Z" fill="#26466C"/>
<path d="M31.8207 41.5535C31.8207 41.5535 33.9709 41.016 33.9709 42.6287C33.9709 44.2413 33.9709 45.3164 33.9709 45.3164H31.8207V49.6038L29.4082 50.4167C29.4082 50.4167 28.6084 54.1664 28.3331 54.4418C28.0709 54.704 26.9958 52.8291 26.9958 52.8291C26.9958 52.8291 24.8456 56.8542 24.5833 57.1164L23.7704 55.7791L31.8207 41.5535Z" fill="#96C7ED"/>
<path d="M36.6587 31.3663C32.8958 34.3163 29.146 36.1912 25.1209 37.8038C21.6333 39.1412 17.8705 42.9041 15.7202 47.4667C14.1076 50.9543 13.0456 54.7041 12.7702 57.9294V58.467C12.508 61.6792 10.0956 65.4421 7.40779 67.0547C6.07045 67.8545 4.72001 68.1167 3.6449 67.5923L2.04534 66.5172C1.50779 66.2418 0.432677 67.317 0.694899 68.1167C1.50779 74.5674 6.5949 76.9798 12.7702 73.217L18.408 70.0047C23.7705 67.0547 28.0709 59.5421 27.7956 53.3667C27.7956 48.2665 30.7456 41.829 35.3082 38.3414L39.0711 34.8538C38.5336 33.5034 37.996 31.9038 37.4585 30.8287C37.1001 31.0036 36.8335 31.1827 36.6587 31.3663Z" fill="#F46C0A"/>
<path d="M54.634 16.0656C51.1464 16.8785 42.0211 26.8036 37.4584 30.8287C37.996 31.9038 38.5335 33.5033 39.0711 34.8538L53.2835 23.0407C53.2835 23.0407 57.3087 22.2409 57.584 21.9656C57.8462 21.7033 58.6591 15.2658 54.634 16.0656Z" fill="#26466C"/>
<path d="M38.5335 47.4667C35.8458 49.3416 35.046 52.2916 30.208 55.2416C28.8707 56.0545 23.5082 54.704 21.8955 59.2667C20.5582 61.9545 19.7453 66.7794 27.5333 63.8294C34.5084 61.1416 35.5835 55.7791 39.0711 52.8291C39.3333 50.9543 39.6087 48.5418 39.8709 46.6538C39.5125 46.8374 39.0667 47.1083 38.5335 47.4667Z" fill="#FC9A5D"/>
<path d="M57.8462 37.8038C56.5089 38.0661 53.5589 41.5536 52.746 42.3665C52.2215 43.1663 44.9711 43.7038 39.8709 46.6538C39.6087 48.5418 39.3333 50.9543 39.0711 52.8292C39.4295 52.6456 39.7878 52.4664 40.1462 52.2916C42.5587 50.9543 50.0713 49.6038 55.7091 46.3916C57.584 45.0412 59.1967 37.8038 57.8462 37.8038Z" fill="#26466C"/>
<path d="M25.6454 60.8794C25.1209 61.1416 24.8456 60.8794 24.8456 60.3418C24.8456 59.8043 25.1209 59.2667 25.6454 59.0045C25.9207 58.7292 26.4582 59.0045 26.4582 59.5421C26.4582 60.0796 25.9207 60.6041 25.6454 60.8794Z" fill="#26466C"/>
<path d="M37.4584 52.2916C37.4584 52.5538 37.1831 53.0914 36.6587 53.3667C36.3833 53.6289 36.1211 53.3667 36.1211 52.8291C36.1211 52.5538 36.3833 52.0294 36.6587 51.754C37.1831 51.754 37.4584 51.754 37.4584 52.2916Z" fill="#26466C"/>
<path d="M22.6953 47.4667C22.6953 49.3416 21.358 51.2165 19.7453 52.2916C18.408 53.0914 17.0707 52.2916 17.0707 50.679C17.0707 48.8041 18.408 46.9292 19.7453 45.8541C21.358 45.0412 22.6953 45.8541 22.6953 47.4667Z" fill="#26466C"/>
</g>
<defs>
<clipPath id="clip0_40_112">
<rect width="59" height="59" fill="white" transform="translate(0 16)"/>
</clipPath>
</defs>
</svg>
