<svg version="1.2" xmlns="http://www.w3.org/2000/svg" viewBox="0 0 1080 1080" width="1080" height="1080">
	<title>Nouveau projet</title>
	<style>
		.s0 { fill: #d0e2ff } 
		.s1 { fill: #c7edff } 
		.s2 { fill: #c9d6e2 } 
		.s3 { fill: #ffa875 } 
		.s4 { fill: #96c7ed } 
		.s5 { fill: #aedff7 } 
		.s6 { fill: #e3f7ff } 
		.s7 { fill: #2b83c6 } 
		.s8 { fill: #bbebff } 
		.s9 { fill: #2275b4 } 
		.s10 { fill: #ff813b } 
		.s11 { fill: #fc9a5d } 
		.s12 { fill: #f46c0a } 
		.s13 { fill: #26466c } 
		.s14 { fill: #1e5f99 } 
		.s15 { fill: #194d7e } 
		.s16 { fill: #ffffff } 
		.s17 { fill: #f44d22 } 
		.s18 { fill: #e2ab91 } 
		.s19 { fill: #efbea3 } 
		.s20 { fill: #ffd1b6 } 
	</style>
	<path id="Layer" class="s0" d="m920.8 194.3c99.5 41.7 111.5 263.7 95.6 447.3-14.8 184.1-57.5 329.7-144.7 366-88.4 35.8-220.2-37.2-355.9-58.4-134.8-21.5-271.5 9.2-342.3-46.7-70.9-55.8-74.9-198.5-18.6-291.3 56.5-92 173-135.1 325.1-226.2 152.2-91 340.7-231.2 440.8-190.7z"/>
	<path id="Layer" fill-rule="evenodd" class="s1" d="m618 844.8l-156.2-90.3 155.4-89.5 155.9 90.1zm-153-90.1l153 88.4 152.1-87.8-152.9-88.4z"/>
	<path id="Layer" fill-rule="evenodd" class="s1" d="m156.2 754.8l-156.2-90.1 155.1-89.4 156.2 90zm-152.9-90l152.9 88.1 152.1-87.6-153.2-88.4z"/>
	<path id="Layer" fill-rule="evenodd" class="s1" d="m310.5 844l-156.2-90.1 155.4-89.7 155.9 90.3zm-153-90.3l153 88.4 152.1-87.8-152.9-88.2z"/>
	<path id="Layer" fill-rule="evenodd" class="s1" d="m464.8 933.2l-155.9-90.3 155.1-89.5 156.2 90.1zm-153.3-90.1l153.3 88.4 151.8-87.8-153-88.4z"/>
	<path id="Layer" fill-rule="evenodd" class="s1" d="m616.1 489.3l-155.9-90.3 155.1-89.5 156.2 90.3zm-153.3-90.3l153 88.4 152.1-87.8-152.9-88.1z"/>
	<path id="Layer" fill-rule="evenodd" class="s1" d="m770.7 578.5l-156.2-90.3 155.1-89.5 156.2 90.1zm-153-90.1l153 88.5 151.8-87.9-152.9-88.4z"/>
	<path id="Layer" fill-rule="evenodd" class="s1" d="m925 667.5l-156.3-90.1 155.2-89.5 156.1 90.1zm-152.9-90l152.9 88.1 152.2-87.6-153-88.4z"/>
	<path id="Layer" class="s2" d="m702.3 787.8c-61.3 35.6-141.3 15.8-203.1-19.8-61.8-35.8-76.5-61.5-15.2-97 61.6-35.6 140.5-31.2 198.8 9.7 36 25.2 81.1 71.9 19.5 107.1z"/>
	<path id="Layer" class="s2" d="m791.4 602.1c-76 0-137.4-35.4-137.4-79.2 0-43.8 61.4-79.2 137.4-79.2 75.9 0 137.3 35.4 137.3 79.2 0 43.8-61.4 79.2-137.3 79.2z"/>
	<path id="Layer" class="s3" d="m327.8 341.5l280.4-162.2-158.9-93-280.4 162.2z"/>
	<path id="Layer" class="s4" d="m414.9 266.4l-4.4 2.4-14.1 8.4-15.7 9-26.3 15.2c-14.9 8.6-37.1 9.5-50.2 2.1l-36-20.8-13.6-7.9-10.8-6.2-7.9-4.7c-12.7-7.3-11.4-20.3 3.5-28.7l15.2-8.9 13.6-7.9 5.7-3.3 6.5-3.5 3.2-2.2 16.3-9.4q4.3-2.5 9.5-4.1c13.5-4.4 30.1-3.8 40.4 1.9q0 0.3 0.3 0.3l10.8 6.2 19.8 11.7 15.7 8.9 22 12.7c13 7.4 11.4 20.4-3.5 28.8z"/>
	<path id="Layer" class="s5" d="m309.4 195.9v42.3c0 0-20.9 19-24.4 19-2.2 0-1.9-26.1-1.4-47.8l16.3-9.2q4.3-2.7 9.5-4.3z"/>
	<path id="Layer" class="s5" d="m268.2 218.4v64.3l-13.6-7.9v-48.5z"/>
	<path id="Layer" class="s6" d="m280.4 211.6v55.1h-6.5v-51.6z"/>
	<path id="Layer" class="s6" d="m360.9 204.3v52.9h-11.1v-59.4q0 0.3 0.3 0.3z"/>
	<path id="Layer" class="s6" d="m396.4 224.9v52.3l-15.7 9v-70.2z"/>
	<path id="Layer" class="s5" d="m410.5 268.8l-56.1 32.6c-14.9 8.6-37.1 9.5-50.2 2.1l-60.4-34.9 56.1-32.6c14.9-8.7 37.1-9.5 50.2-2.2z"/>
	<path id="Layer" class="s4" d="m544.2 191.8l-4.1 2.5-56.4 32.5c-14.9 8.4-37.1 9.5-49.8 1.9l-60.8-35-7.9-4.3c-12.7-7.6-11.1-20.4 3.6-29l60.7-35c14.7-8.4 37.2-9.5 49.9-2.2l68.6 39.6c12.8 7.6 11.1 20.3-3.8 29z"/>
	<path id="Layer" class="s5" d="m438.5 121.3v42.3c0 0-20.6 19-24.4 19-2.2 0-1.7-26.3-1.1-47.7l16.2-9.5c3-1.6 6-3 9.3-4.1z"/>
	<path id="Layer" class="s5" d="m397.5 143.8v64.3l-13.5-7.9v-48.5z"/>
	<path id="Layer" class="s6" d="m409.4 136.8v55.3h-6.2v-51.5z"/>
	<path id="Layer" class="s6" d="m490 129.7v52.9h-11.1v-59.4q0.2 0 0.2 0.3z"/>
	<path id="Layer" class="s6" d="m525.5 150.1v52.3l-15.4 8.9v-70.2z"/>
	<path id="Layer" class="s5" d="m540.1 194.3l-56.4 32.5c-14.9 8.4-37.1 9.5-49.8 1.9l-60.8-35 56.4-32.5c14.7-8.4 37.2-9.5 49.9-1.9z"/>
	<path id="Layer" class="s7" d="m312.6 279.1c-8.4 4.9-22.5 4.9-30.9 0-8.6-4.8-8.6-13-0.2-17.9 8.6-4.8 22.5-4.8 31.1 0 8.4 4.9 8.4 13.1 0 17.9z"/>
	<path id="Layer" class="s8" d="m309.7 277.5c-6.8 4.1-18.2 3.8-25.3 0-6.7-4.1-6.7-10.6 0-14.6 7.1-4.1 18.2-4.1 25.3 0 7 4 7 10.5 0 14.6z"/>
	<path id="Layer" class="s1" d="m305.6 278.9c-4.6 1.6-11.4 2.1-17.1 0-4.9-2.2-4.6-7.4 0-10.1 4.6-2.7 12.5-2.7 17.1 0 4.9 2.7 5.1 7.9 0 10.1z"/>
	<path id="Layer" class="s9" d="m298.8 272.4l4.1-3.6 2.7 1.7-6.2 2.1z"/>
	<path id="Layer" class="s9" d="m300.2 273.4l7-0.8v2.2l-7-0.8z"/>
	<path id="Layer" class="s9" d="m299.6 274.8l6 2.4-2.4 1.7-4.1-3.8z"/>
	<path id="Layer" class="s9" d="m297.5 275.6l1.6 4.1h-3.8l1.6-4.1z"/>
	<path id="Layer" class="s9" d="m295.3 275.1l-4.1 3.8-2.7-1.7 6.5-2.1z"/>
	<path id="Layer" class="s9" d="m294.2 274l-7.3 0.8v-2.2l7.3 1.1z"/>
	<path id="Layer" class="s9" d="m294.7 272.9l-6.2-2.4 2.7-1.7 4.1 3.8z"/>
	<path id="Layer" class="s9" d="m296.6 272.1l-1.3-4.1h3.5l-1.6 4.1z"/>
	<path id="Layer" class="s7" d="m443.3 206.5c-8.6 4.8-22.5 4.8-30.9 0-8.6-5.2-8.6-13.1-0.2-17.9 8.6-4.9 22.5-4.9 31.1 0 8.4 4.8 8.4 13 0 17.9z"/>
	<path id="Layer" class="s8" d="m440.4 204.8c-6.8 3.8-18.2 3.8-25.3 0-6.7-4-6.7-10.5 0-14.6 7.1-4.1 18.2-4.1 25.3 0 7 4.1 7 10.6 0 14.6z"/>
	<path id="Layer" class="s1" d="m436.3 206.2c-4.6 1.6-11.4 2.2-17.1-0.3-5.1-1.9-4.6-7 0-9.7 4.6-2.8 12.5-2.8 17.1 0 4.9 2.7 5.1 7.8 0 10z"/>
	<path id="Layer" class="s9" d="m429.5 199.7l4.1-3.5 2.7 1.6-6.2 2.2z"/>
	<path id="Layer" class="s9" d="m430.6 200.8l7.3-0.8v2.1l-7.3-0.8z"/>
	<path id="Layer" class="s9" d="m430.1 202.1l6.2 2.5-2.4 1.6-4.1-3.8z"/>
	<path id="Layer" class="s9" d="m428.2 202.9l1.6 4.1h-3.8l1.6-4.1z"/>
	<path id="Layer" class="s9" d="m426 202.4l-4.1 3.5-2.7-1.3 6.2-2.5z"/>
	<path id="Layer" class="s9" d="m424.9 201.3l-7.3 0.8v-2.1l7.3 1z"/>
	<path id="Layer" class="s9" d="m425.4 200.2l-6.2-2.4 2.7-1.6 3.8 3.8z"/>
	<path id="Layer" class="s9" d="m427.3 199.4l-1.3-4.1h3.5l-1.6 4.1z"/>
	<path id="Layer" class="s10" d="m327.8 659l-158.9-93.2v-317.3l158.9 93z"/>
	<path id="Layer" class="s11" d="m330.8 374.6l-161.9-94.9v-30.9l161.9 94.9z"/>
	<path id="Layer" class="s12" d="m327.8 659l280.4-162.4v-317.3l-280.4 162.2z"/>
	<path id="Layer" class="s4" d="m458 277.5v294.8l-120.1 69.4v-294.5z"/>
	<path id="Layer" class="s1" d="m458 571.7v0.6l-120.1 69.4v-139.1z"/>
	<path id="Layer" class="s8" d="m405.7 404.1l1.6 2.8 5.4-3.3q0.3 0 0.5 0c0.6-0.5 0.6-0.8 0.6-0.8q0.3-0.3 0.3-0.3c0.2-0.5 0.2-0.5 0.5-0.8 0-0.3 0-0.3 0-0.3 0.3-0.8 0.3-1.3 0.5-1.9q0-0.2 0-0.2 0-0.3 0-0.6c0-0.3-9.4 5.4-9.4 5.4z"/>
	<path id="Layer" class="s4" d="m401.9 397.6l2.1 4.1 10.6-6.2q-0.5-2.2-1.9-4.4z"/>
	<path id="Layer" class="s1" d="m397.2 389.8l1.7 3 10.3-6q-0.8-0.8-1.9-1.4-0.8-0.5-1.6-0.8z"/>
	<path id="Layer" class="s5" d="m404 401.7l1.7 2.4 9.4-5.7q0-1.3-0.5-2.9z"/>
	<path id="Layer" class="s5" d="m398.9 392.8l3 4.8 10.8-6.5c-0.8-1.6-2.2-3.2-3.5-4.3z"/>
	<path id="Layer" class="s5" d="m397.2 389.8l8.5-5.2q-0.5 0-0.9 0c-1 0-1 0-1.3 0q-0.3 0-0.3 0-0.3 0-0.5 0-0.3 0.3-0.3 0.3-0.3 0-0.5 0c0 0.3-5.5 3.5-5.5 3.5z"/>
	<path id="Layer" class="s4" d="m409.4 402c0-4.9-3.5-10.6-7.5-13-4.4-2.5-7.9-0.6-7.6 4.3 0 4.9 3.2 10.6 7.6 13 4.3 2.5 7.5 0.6 7.5-4.3z"/>
	<path id="Layer" class="s13" d="m409.4 402c0-4.9-3.5-10.6-7.5-13-4.4-2.5-7.9-0.6-7.6 4.3 0 4.9 3.2 10.6 7.6 13 4.3 2.5 7.5 0.6 7.5-4.3z"/>
	<path id="Layer" class="s14" d="m352.5 347.5v58.3c0 4.3 1.1 7.8 3 10.8q1.9 3.3 5.1 5.2c2.5 1.3 5.2 2.1 7.9 2.1q3 0 6-1.1 2.1-0.8 4.3-1.9l26.9-15.4q1.3-0.3 1.9-1.6 0.5-1.1 0.5-2.5c0-2.1-0.8-4.3-1.9-6.5q-0.3-0.5-0.8-1.3-0.6-0.6-1.1-1.1-1.1-1.4-2.4-2.2-1.4-0.5-2.8-0.8-1.6 0-2.7 1.1l-19.8 11.4c-2.9 1.6-6.5-0.6-6.5-3.8v-50.7z"/>
	<path id="Layer" class="s7" d="m369.9 403.9c0 4.8 5.1 7.8 9.4 5.7l3.8-2.2 19-10 3.3-3.8q-0.6-0.6-1.1-1.1-1.1-1.4-2.4-2.2-1.4-0.5-2.8-0.8l-1.3 0.3-1.4 0.8-19.8 11.4c-2.9 1.6-6.5-0.3-6.5-3.8v-21.4z"/>
	<path id="Layer" class="s15" d="m352.5 347.5v58.3c0 7.3 3 13 8.1 16q3.8 2.1 7.9 2.1 3 0 6-1c-18.5 1.3-13.9-7.9-13.9-7.9v-67.5z"/>
	<path id="Layer" class="s13" d="m360.6 421.8c2.5 1.3 5.2 2.1 7.9 2.1q3 0 6-1.1 2.1-0.8 4.3-1.8l26.9-15.5 0.8-0.5 1.1-1.1q0.5-1.1 0.5-2.5l-33.6 19c0 0-6.3 2.7-13.9 1.4z"/>
	<path id="Layer" class="s16" d="m381.5 407.1q0.6 0.3 0.8 0.3 0.6 0 0.8 0c0-0.3 23.1-12.5 23.1-12.5q-0.3-0.5-0.8-1.3-0.6-0.6-1.1-1.1l-22.8 11.9c-0.8 0.8-0.8 2.2 0 2.7z"/>
	<path id="Layer" class="s13" d="m352.5 347.5v58.3c0 4.3 1.1 7.8 3 10.8-1.4-21.4-1.1-48.5-1.1-69.1z"/>
	<path id="Layer" class="s16" d="m368.2 350.2v56.4c0 3.8 3.3 6.5 7.1 5.9l4-0.5-4.6 1.9c-3.8 1.4-8.1-1.4-8.1-5.7v-57.2z"/>
	<path id="Layer" class="s7" d="m458 277.5v12.5c-6.8 19-16.6 43.4-21.7 46.9-5.4 3.8-59.1 35.5-98.4 58.3v-48z"/>
	<path id="Layer" class="s17" d="m465.3 260.7h5.2v316.7h-5.2z"/>
	<path id="Layer" class="s10" d="m327.8 372.7l280.4-162.4v-31l-280.4 162.2z"/>
	<path id="Layer" class="s1" d="m349.8 125.7q0 1.3-0.8 1.9c-0.3 0.2-10.3 5.9-10.3 5.9l-2.5-3.5-2.1-3.5 10.3-6q0.8-0.8 2.4 0c1.6 1.1 3 3.3 3 5.2z"/>
	<path id="Layer" class="s4" d="m339.2 131.9c0 1.9-1.3 2.4-3 1.6-1.6-1.1-2.9-3.2-2.9-5.1 0-1.9 1.3-2.7 2.9-1.7 1.7 0.9 3 3.3 3 5.2z"/>
	<path id="Layer" class="s1" d="m338.1 132.7q0 1.4-0.8 1.9c-0.3 0-10.3 5.7-10.3 5.7l-2.4-3.5-2.5-3.3 10.6-6.2c0.6-0.3 1.4-0.3 2.4 0.3 1.7 0.8 3 3.2 3 5.1z"/>
	<path id="Layer" class="s4" d="m327.6 138.7c0 1.9-1.4 2.7-3 1.6-1.7-0.8-3-3.3-3-5.2 0-1.9 1.3-2.7 3-1.6 1.6 0.8 3 3.3 3 5.2z"/>
	<path id="Layer" class="s8" d="m328.1 173.6c-3.5 2.2-9.2 2.2-12.7 0-3.3-1.8-3.6-6.7 0-8.9 3.5-1.9 9.2-1.9 12.7 0.3 3.5 1.9 3.5 6.8 0 8.6z"/>
	<path id="Layer" class="s1" d="m328.1 172.3c-3.5 1.9-9.2 1.9-12.7 0-3.3-2.2-3.6-5.4 0-7.6 3.5-1.9 9.2-1.9 12.7 0.3 3.5 1.9 3.5 5.1 0 7.3z"/>
	<path id="Layer" class="s4" d="m379.1 120v7.3c0 0.8-0.6 1.6-1.6 2.2-1.4 0.8-3.3 1-4.9 0.8q-1.7 0-2.7-0.8c-1.1-0.6-1.7-1.7-1.7-2.5v-13.3c0-13-7.8-27.1-19.2-33.6-14.1-8.1-21.4-5.7-21.4 10v77.3c0 1.1-0.6 1.9-1.7 2.7-1.6 0.8-3.8 1.1-5.7 0.6q-1.1-0.3-1.9-0.6-1.6-1.2-1.6-2.4v-83.8c0-16 13.6-26.6 31.2-17.6 25.8 12.7 31.2 33.9 31.2 53.7z"/>
	<path id="Layer" class="s8" d="m372.6 130.3q-1.7 0-2.7-0.8c-1.1-0.6-1.7-1.7-1.7-2.5v-13.3c0-13-7.8-27.1-19.2-33.6-6-3.5-10.6-4.9-14.1-4.6-4.9 0.8-7.3 5.4-7.3 14.6v77.3c0 1.1-0.6 1.9-1.7 2.7-1.6 0.8-3.8 1.1-5.7 0.6 0-25.5 0-86.5 1.9-91.1 2.2-5.5 4.6-10.1 11.7-9.5 7.3 0.5 23.3 9.2 28.5 17.3 4.6 7.1 8.4 8.7 10 36.1q0 3.8 0.3 6.8z"/>
	<path id="Layer" class="s5" d="m327.6 90.1v77.6q0 1.2-1.7 2.4c-0.5-19.5-1.6-79.2-0.8-85.7 1.4-10 9.8-8.9 9.8-8.9-4.9 0.8-7.3 5.4-7.3 14.6z"/>
	<path id="Layer" class="s16" d="m362 80.6c0 0 6.8 2.8 10.6 12.2 3.5 9.3 3 19.8 3 19.8 0 0-3-13.8-6.3-21.1-3.5-7.3-7.3-10.9-7.3-10.9z"/>
	<path id="Layer" class="s4" d="m343.8 99.1v23q0 0.3-0.5 0.6c-0.3 0.2-1.1 0.2-1.4 0q-0.2-0.3-0.2-0.3c0-0.3 0-23.3 0-23.3z"/>
	<path id="Layer" class="s1" d="m343.3 99.6c-0.3 0-1.1 0-1.4 0-0.5-0.2-0.5-0.8 0-1.1 0.3-0.2 1.1-0.2 1.4 0 0.5 0.3 0.5 0.9 0 1.1z"/>
	<path id="Layer" class="s9" d="m662.2 708.1c0 0-4.9 0.6-3.6 9.5 1.4 9 5.5 26.6 7.1 27.4 1.9 0.8 20.3 24.4 22.2 27.9 1.7 3.5 11.7 13.6 18.5 8.7 6.8-5.2 15.2-14.1 13.8-24.4-1.4-10.3-17.6-21.7-19.3-24.4-1.8-2.7-20.8-23.1-24.4-25.8-3.8-2.7-14.3 1.1-14.3 1.1z"/>
	<path id="Layer" class="s8" d="m676.5 741.5c0.6-1.4-18.7-28-10.5-34.5 7.8-6.5 23.3 13 23.3 13 0 0 13 13.9 18.7 19.6 6 5.9 13.8 14.1 12.5 20.3-1.4 6.2-0.6 21.2-11.4 23.1-10.9 1.6-17.4-6.8-16.8-14.1 0.5-7.1-15.8-27.4-15.8-27.4z"/>
	<path id="Layer" class="s13" d="m537.7 637.9c-2.7 2.7-10.8 14.1-9.5 21.1 1.4 7.4 5.7 19 13.6 22.5 7.6 3.6 74.5 27.2 84.9 42.9 10.3 15.7 37.1 16.5 37.1 16.5l-5.4-30.6c0 0-10.6-30.4-38.5-48-28-17.6-82.2-24.4-82.2-24.4z"/>
	<path id="Layer" class="s8" d="m494.9 702.7c0 0-15.2 1.3-18.5 0-3.2-1.4-13.8-8.7-17.1-2.7-5.4 9.7 3.3 22.2 9 25.2 6 3.3 27.9 6.2 36.3 8.9 8.7 2.8 22.3 10.4 27.1 5.5 4.9-4.9 4.9-3 4.9-13.9 0-10.8-11.1-17.3-11.1-17.3z"/>
	<path id="Layer" class="s9" d="m494.9 700c0 0-15.2 1.3-18.5 0-3.2-1.4-16.5-7.1-17.1 0-0.5 7 3.3 19.5 9 22.5 6 3.2 27.9 6.2 36.3 8.9 8.7 2.7 22.3 10.6 27.1 5.5 4.9-4.9 4.9-3 4.9-13.9 0-10.8-11.1-17.3-11.1-17.3z"/>
	<path id="Layer" class="s13" d="m451.2 559.2c0 0-6.8 11.7-4.1 22 2.8 10.3 39.1 102.8 38.8 108.2-0.5 5.7 3 10 8.2 16.5 4.8 6.8 23.3 14.4 31.4 11.7 8.1-2.7 8.1-8.1 8.1-8.1 0 0-16.8-70.3-21.1-81.4-4.6-11.4-42-96.2-61.3-68.9z"/>
	<path id="Layer" class="s15" d="m454.7 573.6c0 0 17.7 36.9 30.7 42.9 13 5.7 52.3 22.5 54.5 29.5 2.1 7.3 46.6 35.3 65.1 27.1 18.7-8.4 27.1-5.7 29.8-35.2 4.1-45.8-99-69.7-111.5-79.5-12.7-10-53.1-21.7-64-11.1-10.8 10.3-4.6 26.3-4.6 26.3z"/>
	<path id="Layer" class="s15" d="m583 592.9c1.3 0 39.6-4.1 47.2-16 7.8-12.2 10.6-18.2 10.6-18.2 0 0 31.7 55.1 17.6 75.7-14.1 20.6-32.6 29.2-32.6 29.2z"/>
	<path id="Layer" class="s14" d="m560.5 444c0 0-30.1 14.4-29.3 72.9 0.5 22 12.7 50.5 12.7 50.5 0 0 1.7 13 16.6 21.9 14.9 9 37.4 14.1 53.9 4.7 16.9-9.5 28.2-31.5 28.2-31.5 0 0 6-5.2 6.6-12.2 0.5-7.3-3.6-53.2-4.1-60.7-0.6-7.6 3.2-23.4 0.8-33.9-2.2-10.3-3-32.8-14.6-37.7-11.7-4.9-29.9-2.2-29.9-2.2 0 0-0.2 11.7-14.9 21.2-14.4 9.4-26 7-26 7z"/>
	<path id="Layer" class="s18" d="m428.2 468.1c0 0 1.3 4.6 4.6 7.4 3.2 2.7 21.9 23.8 24.9 31.4 3 7.9 17.9 20.9 21.4 20.3 3.6-0.2 6.5-20.3 6.5-20.3 0 0 10.6-3.5-3.2-13.8-14.1-10.3-36.1-27.9-38-30.9-1.6-3.3-4.3-19-4.3-19l-8.1-13c0 0-6-4.6-7.4-7.3-1.3-2.8-4.3-2.2-4 3.7 0.5 5.7 3.2 7.4 3.2 7.4l2.2 11.4-16.6-5.7-10.8-11.7c0 0-1.4-5.7-3-7.6-1.3-1.9-3.2-1.9-3 0.6 0 2.7 0 10.3 0 10.3 0 0-0.2 0.2 0 2.9 0 2.5 2.2 4.6 2.2 4.6 0 0-1.4 1.1-0.5 3.6 1 2.1 2.1 4 2.1 4 0 0 0.6 5.7 1.7 8.4 1 2.5 3.5 4.1 3.5 4.1z"/>
	<path id="Layer" class="s9" d="m494.3 499.9c0 0-14.3 17.6-6.2 30.1 8.1 12.7 51.8-8.4 62.6-19.8 10.9-11.2 16-22.8 10.9-40.2-5.5-17.1-8.7-23-19.6-13-10.5 10.3-47.7 42.9-47.7 42.9z"/>
	<path id="Layer" class="s7" d="m493.2 509.4l1.1-9.5c0 0-4.6-10.3-11.1 0-6.5 10.3-13.6 26.3-6.8 33.9 6.8 7.8 17.9 1.3 17.9 1.3z"/>
	<path id="Layer" class="s19" d="m550.7 401.2c0.6 1.6 5.2 35.2 5.2 35.2 0 0 22.5 4.3 29.5-2.2 7.4-6.5 11.4-20.8 11.4-20.8 0 0-4.6-3.3-4.9-6.3 0-3 0.3-15.7 0.3-15.7z"/>
	<path id="Layer" class="s7" d="m555.9 436.4l-5.4 15.7c0 0 16.2-1.9 25.2-4.3 8.9-2.4 19.2 0 24.6-11.4 5.5-11.4 5.5-21.4 5.5-21.4l-9.8-5.7c0 0-2.7 10.8-13 17.6-10.3 6.5-27.1 9.5-27.1 9.5z"/>
	<path id="Layer" class="s15" d="m530.4 372.7l-0.3-15.2c0 0-1.6-7.9 4.9-11.1 6.5-3.3 8.7-12.8 15.7-13 7.1-0.3 16.6 4.8 19.5 3.5 3-1.1 16-3 21.2 4.3 5.4 7.1 7 9.2 8.4 12 1.1 2.7 11.9 10.5 11.4 16.2-0.5 5.7-7.9 17.1-6 22.5 1.7 5.5-2.4 11.7-5.4 12.8-3.2 1.3-9.2 8.9-9.2 8.9 0 0-3 0-9.5 1.7-6.5 1.3-10.9 5.9-15.5 4.8-4.8-0.8-10.5-2.7-10.3-2.9 0-0.3-4.3-3.6-5.4-4.4-1.1-1.1-4.3-4.6-4.3-6.8 0-2.1-0.3-8.9-4.1-11.1-3.8-2.4-3.2-3.8-3.8-7-0.5-3.3-7.3-15.2-7.3-15.2z"/>
	<path id="Layer" class="s18" d="m530.1 357.5c0 0-3.2 17.4-2.7 20.3 0.3 2.7 4.9 3.3 2.7 7.1-2.4 3.8-1.9 9.5 0.6 13.3 2.4 3.8 4.8 17.6 5.9 20 0.8 2.5 8.2 4.7 13 3.6 4.9-1.1 7.6-3.8 7.6-3.8l-6.7-7.1c0 0 3.2-5.4 2.1-10.6-1.1-5.1-4-8.6-6.5-8.4-2.2 0.6-3.2 1.1-3.2 1.1 0 0-6.3-2.4-5.5-11.6 0.9-9.3-3.8-12.5-4.8-15.5-1.1-3-2.5-8.4-2.5-8.4z"/>
	<path id="Layer" class="s12" d="m372.3 687.8v113.9l126.9 73.2v-113.9l-35.5-20.3v19.2l-54.8-31.7v-19.3z"/>
	<path id="Layer" class="s10" d="m336.8 709.5v46.6q0 3.8 1.6 7.1l1.9 4.3 0.5 26.6c-2.7 2.7-4 6.5-4 10.3v19l123.9 71.5c1.4 0.9 7.6 0.6 7.6-1l-4.6-111.2-35.3-20.4v19.3l-54.7-31.7v-19.3z"/>
	<path id="Layer" class="s12" d="m454.7 752v-7.5l-10.8 6.5v7.3z"/>
	<path id="Layer" class="s11" d="m386.4 724.7v-7.9l57.5 34.2v7.3z"/>
	<path id="Layer" class="s3" d="m454.7 744.5l-58-33.4c0 0-3.8 1.4-5.1 2.2-1.4 0.5-5.2 3.5-5.2 3.5l57.5 34.2z"/>
	<path id="Layer" class="s3" d="m446.1 747.4c4-2.4 17.6-6.7 17.6-6.7l35.5 20.3-35.5 21.7-35.3-20.4c0 0 12.8-11.9 17.7-14.9z"/>
	<path id="Layer" class="s12" d="m496.2 877.9l-29.3 16.8c-1.3 0.8-3.2 0-3.2-1.7v-110.3l11.6-10.9 12.2-6.7 11.7-2.8v110.4c0 2.2-1.4 4.1-3 5.2z"/>
	<path id="Layer" class="s12" d="m489.2 762.3l-6 124.8h-1.6v-121.5l5.9-3.3z"/>
	<path id="Layer" class="s12" d="m481.3 767l-6 125h-1.3v-121.5l6-3.5z"/>
	<path id="Layer" class="s11" d="m489.2 883.6l-6 3.5v-121.5l6-3.3z"/>
	<path id="Layer" class="s11" d="m481.3 888.4l-6 3.6v-121.5l6-3.5z"/>
	<path id="Layer" class="s3" d="m369 759.9l61.6 35.3c0.8 0.5 1.4 0 1.4-1.1 0-1.1-0.6-2.5-1.4-3l-61.6-35.5c-0.8-0.3-1.6 0-1.6 1.3 0 1.1 0.8 2.5 1.6 3z"/>
	<path id="Layer" class="s3" d="m369 766.4l61.6 35.5c0.8 0.6 1.4 0 1.4-1 0-1.4-0.6-2.8-1.4-3l-61.6-35.6c-0.8-0.5-1.6 0-1.6 1.1 0 1.1 0.8 2.5 1.6 3z"/>
	<path id="Layer" class="s3" d="m369 772.9l61.6 35.5c0.8 0.6 1.4 0 1.4-1 0-1.1-0.6-2.5-1.4-3l-61.6-35.5c-0.8-0.6-1.6 0-1.6 1 0 1.4 0.8 2.8 1.6 3z"/>
	<path id="Layer" class="s3" d="m369 779.7l61.6 35.5c0.8 0.3 1.4 0 1.4-1.3 0-1.1-0.6-2.5-1.4-3l-61.6-35.3c-0.8-0.5-1.6 0-1.6 1.1 0 1.1 0.8 2.5 1.6 3z"/>
	<path id="Layer" class="s3" d="m369 819.3l61.6 35.5c0.8 0.6 1.4 0 1.4-1.1 0-1.1-0.6-2.4-1.4-3l-61.6-35.5c-0.8-0.5-1.6 0-1.6 1.1 0 1.4 0.8 2.5 1.6 3z"/>
	<path id="Layer" class="s3" d="m369 826.1l61.6 35.2c0.8 0.6 1.4 0 1.4-1.1 0-1-0.6-2.4-1.4-2.9l-61.6-35.6c-0.8-0.2-1.6 0-1.6 1.4 0 1.1 0.8 2.4 1.6 3z"/>
	<path id="Layer" class="s3" d="m369 832.6l61.6 35.5c0.8 0.5 1.4 0 1.4-1.1 0-1.3-0.6-2.4-1.4-3l-61.6-35.5c-0.8-0.5-1.6 0-1.6 1.1 0 1.1 0.8 2.4 1.6 3z"/>
	<path id="Layer" class="s3" d="m369 839.1l61.6 35.5c0.8 0.6 1.4 0 1.4-1.1 0-1.1-0.6-2.4-1.4-3l-61.6-35.5c-0.8-0.5-1.6 0-1.6 1.4 0 1.1 0.8 2.4 1.6 2.7z"/>
	<path id="Layer" class="s12" d="m369.6 759.1l61.5 35.5c0.9 0.3 1.4 0 1.4-1.3 0-1.1-0.5-2.5-1.4-3l-61.5-35.3c-0.8-0.5-1.6 0-1.6 1.1 0 1.1 0.8 2.5 1.6 3z"/>
	<path id="Layer" class="s12" d="m369.6 765.6l61.5 35.5c0.9 0.6 1.4 0 1.4-1.1 0-1-0.5-2.4-1.4-2.9l-61.5-35.6c-0.8-0.5-1.6 0-1.6 1.1 0 1.1 0.8 2.5 1.6 3z"/>
	<path id="Layer" class="s12" d="m369.6 772.4l61.5 35.2c0.9 0.6 1.4 0 1.4-1.1 0-1-0.5-2.4-1.4-2.9l-61.5-35.6c-0.8-0.2-1.6 0-1.6 1.4 0 1.1 0.8 2.4 1.6 3z"/>
	<path id="Layer" class="s12" d="m369.6 778.9l61.5 35.5c0.9 0.6 1.4 0 1.4-1.1 0-1.3-0.5-2.7-1.4-3l-61.5-35.5c-0.8-0.5-1.6 0-1.6 1.1 0 1.1 0.8 2.4 1.6 3z"/>
	<path id="Layer" class="s12" d="m369.6 818.5l61.5 35.5c0.9 0.5 1.4 0 1.4-1.1 0-1.1-0.5-2.4-1.4-3l-61.5-35.5c-0.8-0.5-1.6 0-1.6 1.4 0 1.1 0.8 2.4 1.6 2.7z"/>
	<path id="Layer" class="s12" d="m369.6 825.3l61.5 35.5c0.9 0.5 1.4 0 1.4-1.4 0-1.1-0.5-2.4-1.4-2.7l-61.5-35.5c-0.8-0.6-1.6 0-1.6 1.1 0 1.1 0.8 2.4 1.6 3z"/>
	<path id="Layer" class="s12" d="m369.6 831.8l61.5 35.5c0.9 0.5 1.4 0 1.4-1.1 0-1.1-0.5-2.4-1.4-3l-61.5-35.5c-0.8-0.5-1.6 0-1.6 1.1 0 1.3 0.8 2.4 1.6 3z"/>
	<path id="Layer" class="s12" d="m369.6 838.5l61.5 35.6c0.9 0.2 1.4-0.3 1.4-1.4 0-1.1-0.5-2.4-1.4-3l-61.5-35.5c-0.8-0.3-1.6 0.3-1.6 1.4 0 1 0.8 2.4 1.6 2.9z"/>
	<path id="Layer" class="s12" d="m340.8 794.1l122.9 70.7v-26l-123.4-71.3z"/>
	<path id="Layer" class="s12" d="m461.5 863.2l2.2 7.1v-37.7l-3 4.6z"/>
	<path id="Layer" class="s3" d="m354.7 694.6c4-2.5 17.6-6.8 17.6-6.8l35.2 20.3c0 0-11.6 2.5-15.9 5.2-9 5.1-19.3 16.5-19.3 16.5l-35.5-20.3c0 0 13-12 17.9-14.9z"/>
	<path id="Layer" class="s14" d="m684.7 508.8c0 0-7.3 30.4 4.3 33.1 11.9 2.7 19.3-13.3 30.9-18.2 12-5.1 78.7-43.6 78.7-43.6 0 0 19.5-27.2 9.7-35.8-9.7-8.7-25.2-6.3-41.2 0-16 6.5-82.4 64.5-82.4 64.5z"/>
	<path id="Layer" class="s4" d="m883.2 435.6c0 0 12.7-5.7 17.6 3 5.1 8.9 5.1 30.3 5.1 30.3l-3.2 8.2c0 0 3.5 27.1 0.8 33.1-2.7 5.7-12.2 14.9-20.3 16-8.2 1-18.2-2.5-13-10.6 4.8-8.1 10.8-23.3 8.4-39.6-2.2-16.3-3.8-35.5 4.6-40.4z"/>
	<path id="Layer" class="s14" d="m817.8 522.4c4.6-4.1 56.7-86.3 65.9-83.8 9.2 2.7 9.2 23.3 9.2 33.1 0 9.5-14.6 46.9-24.1 58.3-9.8 11.3-35 56.4-51 60.4-15.7 4.1-14.9 8.4-25.2 4.1-10.6-4.6-10.6-31.7-10.6-42.3 0-10.3 35.8-29.8 35.8-29.8z"/>
	<path id="Layer" class="s18" d="m712.9 311.7c0 0-8.2 8.7-11.4 15.4-3.3 6.8-15.5 36.1-17.1 39.3-1.9 3-0.8 10.9-1.9 17.9-1.1 7.1-1.9 10.9 0 14.1 1.9 3.6 6 9.8 8.4 10.4 2.7 0.2 6 1 7.6 0.8 1.6-0.6 4.1-1.9 4.1-1.9 0 0 2.7-1.7 4.9-2.7 2.1-1.4 4.8-1.9 3.8-3-0.9-1.1-3.3-1.7-4.1-1.9-0.6-0.3-5.2-6.8-5.2-6.8l1.4-9.5v-12.5c0 0 22.5-19.8 29.3-31.4 6.5-11.7 7.3-17.4 7.3-17.4 0 0-24.1-14.4-27.1-10.8z"/>
	<path id="Layer" class="s15" d="m755.5 228.2c0 0-12-4.1-16 8.1-4.1 12.2-6 40.7-10.9 44.7-5.1 4.1-13.3 28.2-13.3 28.2 0 0 1.9 10.3 11.4 13.9 9.5 3.2 16.3-1.1 16.8-1.9 0.6-0.6 13.6-13.9 19-25.8 5.4-11.9 14.6-60.5-7-67.2z"/>
	<path id="Layer" class="s9" d="m727.8 313.6c0 0-5.4-3.3-7.1-9.2-1.3-5.7-0.5-7.9-0.5-7.9 0 0-6.2 3.2-7.9 7.6-1.6 4.3-1 10.6 1.9 14.9 3.3 4.1 10.3 11.9 17.9 11.7 7.9-0.6 13.6-4.7 16.6-9.5 3-4.6 2.7-9 2.7-9 0 0-11.4 8.4-23.6 1.4z"/>
	<path id="Layer" class="s9" d="m785.6 373.2c-6.3 4.9-77.6 60.2-94.7 95.7-17.3 35.8-24.9 55.6-17.6 63 7.3 7.3 12.7 12.7 22.8 2.7 9.7-10.1 38.7-43.7 54.2-54.5 15.5-10.9 50.7-31.2 50.7-31.2 0 0-20.6 99.2-23 110.6-2.2 11.4-3.3 30.7 7.8 33.9 10.9 3.5 18.5 6 25.2 0 6.8-5.7 24.2-62.9 32.9-78.4 8.4-15.4 29.8-59.3 32.5-76.4 2.7-16.8 0-55.1 0-55.1z"/>
	<path id="Layer" class="s14" d="m755.5 263.9c0 0-8.7 45.9 0 56.7 8.4 10.9 18.7 23.9 18.7 23.9 0 0-5.5 13.3 0 20.1 5.1 6.7 6.7 10.8 29.5 20.8 22.8 10.1 26.9 24.4 47.7 18.5 20.9-5.7 26.1-13.9 26.1-13.9 0 0 1.9-19.2 0-22.7-1.6-3.6-5.7-20.4-5.7-22.8 0-2.2 7.8-52.9-3-61.6-11.1-8.6-54.5-44.4-67.2-45.3-12.8-0.8-39.9-2.7-46.1 26.3z"/>
	<path id="Layer" class="s16" d="m767.7 257.4c0 0-4.7 19.6 0 31.2l10 25c0 0 15.2-10.1 22.2-14.7 19.3-12.7 19.3-35.5 14.9-41.5-4-5.7-39.8-23-47.1 0z"/>
	<path id="Layer" class="s18" d="m762.5 259.9c0 0 12.2 24.9 19.5 27.9 7.3 3.3 21.4-3.2 25.5-11.6 4.1-8.7 3.5-18.8 3.5-18.8l-5.9-13.8z"/>
	<path id="Layer" class="s7" d="m755.5 286.5h7l-7-10.1c0 0-2.2-13.8 7-21.7 9.5-8.1 11.4-5.9 11.4-5.9 0 0-6.2 27.1-6 34.7 0.6 7.6 9.8 30.1 9.8 30.1z"/>
	<path id="Layer" class="s7" d="m777.7 313.6c0.8 0 35.2-6.5 37.1-6.5 2.2 0-7.8-7.4-7.8-7.4h16.8c0 0 14.9-35.8 6.8-46.1-7.9-10.3-29.6-17.3-33.7-17.3-4.3 0-10.3 7.6 1.1 12.2 11.4 4.6 17.9 17.9 15.5 27.4-2.5 9.5-35.8 37.7-35.8 37.7z"/>
	<path id="Layer" class="s7" d="m774.2 309.2c0 0-2.7 19.6-1.1 25.5 1.6 6.3 5.9 10.9 5.9 10.9l7.9 3.5c0 0-5.1-8.7-7.3-11.9-4.4-6.3-1.9-23.6-1.9-23.6z"/>
	<path id="Layer" class="s7" d="m789.9 352.9c0 0-1.4 3.8 0 6.8 1.6 3.2 1.6 3.8 1.6 5.1 0 1.4-2.4 3.8-2.2 8.7 0.3 5.2 2.2 6.2 2.2 6.2l6.8 3.3c0 0-4.3-9.2-2.2-11.7 2.2-2.4 3.3-3.2 2.2-5.7-1.4-2.4-3.5-3.2-2.4-4.8 1-1.7 1-4.1 1-4.1 0 0-5.1-3.8-7-3.8z"/>
	<path id="Layer" class="s13" d="m764.1 221.6l-4.9-16.8c0 0-0.5-15.2 15.8-19.5 16.2-4.3 37.4-1.9 45.5 8.7 8.2 10.3 6.8 32.8 3 38.5-3.5 6-11.9 13.6-13.8 13.3-1.6-0.3-11.9 1.3-13.8 1.6-1.9 0.5-31.8-25.8-31.8-25.8z"/>
	<path id="Layer" class="s20" d="m759.2 204.8c0 0-3.2 22.5-3.7 23.4-0.9 0.5-4.1 13-4.1 16.2 0 3.3 2.2 14.4 1.9 18.2-0.3 3.8-0.6 8.1 4.3 9.8 4.6 1.6 3.5 3.5 11.1 2.4 7.6-0.8 21.7-6.5 27.2-10 5.4-3.3 6.5-8.7 6.5-8.7 0 0-1.4 1.6 2.9 0 4.4-1.9 12.5-7.6 12-11.4-0.8-3.8-0.6-6.5-4.9-4.6-4.3 1.9-8.7 4.3-8.7 4.3 0 0-6.2-10.6-9.7-12.4-3.3-2.2-12.5-14.7-14.4-17.4-1.9-2.4-20.4-9.8-20.4-9.8z"/>
	<path id="Layer" class="s7" d="m762.8 206.7c0 0-28.5 17.1-27.4 21.2 1.1 3.8 28.2 15.2 34.7 13.8 6.5-1.3 38.2-17.3 38.2-17.3 0 0-20.8-3-33.3-8.4-6.8-3.3-12.2-9.3-12.2-9.3z"/>
	<path id="Layer" class="s9" d="m756.5 210.8c0 0-4-23.9 15-33.1 19.2-9.5 32.2-4.3 32.2-4.3 0 0 23.9 6.5 27.4 32 2.4 19-6 26.6-6 26.6 0 0-17.3-1.7-36.6-4.9-32.5-5.2-32-16.3-32-16.3z"/>
	<path id="Layer" class="s9" d="m847.6 301.4c0 0 5.7-19.3 21.2-12.8 15.2 6.8 3 104.4-0.5 115-3 9.8-16.9 17.1-19.3 14.1-2.4-3-18.4-17.1-16-32.3 2.4-15.2 9.2-38.7 9.2-42.3 0-3.8-1.6-30.9 5.4-41.7z"/>
	<path id="Layer" class="s7" d="m824.9 389.8c0 0 4.9-15.5 10.8-18.2 6.3-3 25.2-0.3 31.7 7.6 6.8 8.1 11.2 18.7 2.5 30.4-9 11.6-7.3 19.2-20.1 13-12.7-6.3-28.7-23.3-24.9-32.8z"/>
	<path id="Layer" class="s13" d="m690.6 389.2l7.1 0.3c0.5 0 1.4-0.5 1.9-1.4 0.8-1.3 0.5-2.4-0.3-2.7l-4.6-1.1z"/>
	<path id="Layer" class="s4" d="m689.8 389.2c0 0 2.2-0.8 2.2 0.8 0 1.7 0 2.8 0 2.8h-2.2v4.3l-2.4 0.8c0 0-0.8 3.8-1.1 4.1-0.5 0.2-1.3-1.4-1.3-1.4 0 0-2.2 3.8-2.5 4.1 0 0.3-0.8-1.4-0.8-1.4z"/>
	<path id="Layer" class="s3" d="m693.6 380.8c-3.8 3-7.6 4.9-11.6 6.5-3.6 1.7-7.1 5.2-9.3 9.8-1.9 3.8-2.7 7.3-2.9 10.8l-0.3 0.3c-0.3 3.5-2.4 7.3-5.4 9-1.4 0.8-2.7 0.8-3.8 0.2l-1.7-0.8c-0.5-0.5-1.3 0.6-1.3 1.4 0.8 6.7 7.3 10.5 13.6 7l4.3-5.1c5.4-3 9.8-10.6 9.8-16.6-0.3-5.1 2.7-11.6 7.3-15.4l10-7.6c-0.5-1.6-3.5-2.2-4.9-2.5-0.2 0-3.5 3-3.8 3z"/>
	<path id="Layer" class="s15" d="m712.1 365.4c-3.8 0.8-12.8 10.8-17.7 14.9 1.4-0.3 1.7-0.3 2.2 1.3l14.1-9.2c0 0 5.7-3 6-3.2 0.5-0.3-0.8-4.6-4.6-3.8z"/>
	<path id="Layer" class="s12" d="m695.5 397.1c-2.7 1.9-3.5 4.9-8.4 7.9-1.3 0.8-6.8-0.3-8.4 4-1.1 3-1.9 7.6 5.7 4.6 7.1-2.7 8.4-8.1 11.9-10.8q0.4-3.3 0.9-6.5-0.9 0.2-1.7 0.8z"/>
	<path id="Layer" class="s15" d="m715 387.3c-1.3 0.3-4.3 4.1-4.8 4.6-0.6 0.9-7.9 1.7-13 4.4q-0.5 3.2-0.9 6.5 0.6-0.6 1.1-0.8c2.2-1.4 16-5.2 19.8-11.7 1.4-1.9-0.5-3-2.2-3z"/>
	<path id="Layer" class="s13" d="m682.5 410.6c-0.3 0.3-0.8 0-0.8-0.2 0-0.6 0.5-1.4 0.8-1.6 0.6 0 0.8 0 0.8 0.5 0 0.5-0.2 1.1-0.8 1.3z"/>
	<path id="Layer" class="s13" d="m694.4 402c0 0.5-0.2 0.8-0.5 1.1-0.5 0.2-0.8 0-0.8-0.3 0-0.6 0.3-0.8 0.8-1.1 0.3-0.3 0.5 0 0.5 0.3z"/>
	<path id="Layer" class="s15" d="m687.4 398.4c0 0 3.8-1.3 3.8 2.5 0 3.5-3.3 8.1-3.8 7-0.3-1-1.9 0.9-1.1-0.5 0.8-1.1 0.8-6.5 0.5-7.1-0.5-0.8 0.6-1.9 0.6-1.9z"/>
	<path id="Layer" class="s13" d="m688.2 399c0 0 3.8-1.4 3.8 2.4 0 3.6-3.3 7.9-3.8 7.1-0.3-1.1-1.9 0.8-1.1-0.6 0.8-1.3 0.8-6.5 0.6-7-0.6-0.8 0.5-1.9 0.5-1.9z"/>
	<path id="Layer" class="s15" d="m697.2 388.1l-5.2 14.7 0.8 0.5 6.8-15.7c0 0-0.3-3.3-2.4 0.5z"/>
	<path id="Layer" class="s13" d="m698 389l-5.2 14.3 1.9-1.6 4.9-13c0 0 0.5-3.8-1.6 0.3z"/>
	<path id="Layer" class="s13" d="m692.8 390.3l7.1 0.6c0.5 0 1.3-0.6 1.9-1.7 1.6-1.9-1.1-3.5-1.9-3.5h-3z"/>
	<path id="Layer" class="s4" d="m690.9 389.8c0 0 2.2-0.6 2.2 1.1 0 1.6 0 2.7 0 2.7h-2.2v4.3l-2.4 0.8c0 0-0.8 3.8-1.1 4.1-0.3 0.3-1.4-1.6-1.4-1.6 0 0-2.1 4-2.4 4.3l-0.8-1.4z"/>
	<path id="Layer" class="s12" d="m695.8 382.2c-3.8 3-7.6 4.9-11.7 6.5-3.5 1.3-7.3 5.1-9.5 9.7-1.6 3.6-2.7 7.4-2.9 10.6v0.6c-0.3 3.2-2.7 7-5.5 8.6-1.3 0.9-2.7 1.1-3.8 0.6l-1.6-1.1c-0.5-0.3-1.6 0.8-1.3 1.6 0.8 6.5 5.9 9 12.2 5.2l5.7-3.3c5.4-3 9.7-10.6 9.4-16.8 0-5.1 3-11.6 7.6-15.2l3.8-3.5c-0.5-1.4-1-3-1.6-4.1q-0.5 0.3-0.8 0.6z"/>
	<path id="Layer" class="s13" d="m714 366.7c-3.6 0.8-12.8 10.9-17.4 14.9 0.6 1.1 1.1 2.7 1.6 4.1l14.4-11.9c0 0 4.1-0.8 4.3-1.1 0.3-0.3 1.1-6.8-2.9-6z"/>
	<path id="Layer" class="s11" d="m697.7 398.4c-2.7 1.9-3.5 4.9-8.4 7.9-1.4 0.8-6.8-0.5-8.4 4.1-1.4 2.7-2.2 7.6 5.7 4.6 7-2.7 8.1-8.1 11.6-11.1 0.3-1.9 0.6-4.4 0.9-6.3q-0.6 0.3-1.4 0.8z"/>
	<path id="Layer" class="s13" d="m717.2 388.7c-1.3 0.3-4.3 3.8-5.1 4.6-0.6 0.8-7.9 1.3-13 4.3-0.3 1.9-0.6 4.4-0.9 6.3q0.6-0.3 1.1-0.6c2.5-1.3 10.1-2.7 15.8-5.9 1.8-1.4 3.5-8.7 2.1-8.7z"/>
	<path id="Layer" class="s13" d="m684.7 412c-0.6 0.3-0.8 0-0.8-0.5 0-0.6 0.2-1.1 0.8-1.4 0.3-0.3 0.8 0 0.8 0.5 0 0.6-0.5 1.1-0.8 1.4z"/>
	<path id="Layer" class="s13" d="m696.6 403.3c0 0.3-0.3 0.8-0.8 1.1-0.3 0.3-0.5 0-0.5-0.5 0-0.3 0.2-0.8 0.5-1.1 0.5 0 0.8 0 0.8 0.5z"/>
	<path id="Layer" class="s13" d="m681.7 398.4c0 1.9-1.4 3.8-3 4.9-1.3 0.8-2.7 0-2.7-1.6 0-1.9 1.4-3.8 2.7-4.9 1.6-0.8 3 0 3 1.6z"/>
	<path id="Layer" class="s11" d="m686.8 386.5c-0.5-0.5-2.4 0.6-3.7 1.1-3.6 1.4-7.1 5.2-9.3 9.8-1.9 3.8-3 7.3-3.2 10.8v0.3c-0.3 3.2-2.5 7.3-5.4 8.9-1.4 0.8-2.5 0.6-3.6 0.6 0 0 6.5 2.4 9.2-8.2 1.1-3.8 0.9-8.4 4.9-14.6 0 0 2.7-3.5 5.2-5.2 1.1-0.8 6.2-2.9 5.9-3.5z"/>
	<path id="Layer" class="s1" d="m676.3 394.7q-0.6 0.5-0.6 0.5-0.2 0.5-0.5 0.8-0.8 1.6-1.6 3.3l-1.1 1.3-14.1 15.7-0.8-0.2c0 0 0-9.2 8.4-14.9q5.4-3.6 8.6-5.5 0.9-0.5 1.7-1z"/>
	<path id="Layer" class="s4" d="m675.2 396q-0.8 1.6-1.6 3.3c-1.7 3.8-1.9 6.7-2.5 9.5l-0.5 0.2-12.2 7.3c0 0-0.3-9.2 8.4-14.9q4.3-2.7 7.3-4.6 0.5-0.5 1.1-0.8z"/>
	<path id="Layer" class="s1" d="m747 308.1c0 1.7 0.9 3.8 2.2 4.7l13.8 9.4c0.3 0-0.8 5.5-1.6 10.6q-1.9 9.2-2.7 19.3l2.7-1.4q0.8-10 2.7-19.2c1.1-5.2 2.2-10.6 1.9-10.6l-5.4-3.8q0 0.3 0 0.8 0.5 0.6 1.1 1.4l3.2 2.4-0.5 4.1q0 0.5-0.3 0.8v1.3l-1.1 0.6 0.3-1.9v-0.6-1l0.3-1.4 0.3-1.4-1.4-1-1.1-0.6-7.6-5.1-2.1-1.7c-4.7-2.9-3.8-6.5-3.8-6.5l1.3-0.8c-0.3 2.7-0.5 4.1 3.3 6.8l1.3 0.8 0.3-1.3-1.9-1.4c-1.4-0.8-2.4-3-2.2-4.6l0.3-8.4-5.2 2.4q-0.2 0-0.2 0l2.4-1.1z"/>
	<path id="Layer" class="s3" d="m755.7 392.8c-0.2 1.6-0.8 2.4-1.6 2.9q-0.8 0.3-1.6 0c1.1 0.8 3.8-1.1 4.6-1.3 0.8-0.6 1.3-1.4 1.3-3l3-40.7-2.7 1.4z"/>
	<path id="Layer" class="s4" d="m753.3 340.1c0.3-3.5-1.1-8.1-3.5-11.9l-4.4-7c-2.7-4.1-4.3-9.3-4-13.6q0.2-2.4 1.3-4.3 0.8-1.7 2.2-2.5l-2.5 1.4q-1.6 0.8-2.7 2.4-1.1 1.9-1.1 4.4c-0.2 4.3 1.1 9.5 3.8 13.5l4.6 7.3c2.5 3.6 3.6 8.2 3.3 11.7l-0.3 4.6 2.7 1.9z"/>
	<path id="Layer" class="s11" d="m752.5 395.7c-2.5-1.6-2.7-7.3-2.5-10.3l2.7-37.4-2.7-1.9-3 41c-0.2 2.7 1.7 6.5 4.1 8.1q0.6 0.5 1.4 0.5z"/>
	<path id="Layer" fill-rule="evenodd" class="s4" d="m744.9 300.8l2.7-1.1-0.6 8.4c0 1.7 0.9 3.8 2.2 4.7l13.8 9.4c0.3 0-0.5 5.5-1.6 10.6q-1.9 9.2-2.7 19.3l-6-4.1 0.6-7.9c0.3-3.5-1.1-8.1-3.5-11.9l-4.4-7c-2.7-4.1-4.3-9.3-4-13.6q0.2-2.4 1.3-4.3 0.8-1.7 2.2-2.5zm7.3 22.3q-0.3-0.3-0.5-0.3c-0.9-0.6-1.4 0-1.4 0.8l-0.3 1.6v1.9c-0.2 0.8 0.3 1.7 0.8 2.5q0.3 0.5 0.9 0.8l3.2 2.4q0.3 0 0.3 0 0.8 0.6 1.3 0 0.3 0 0.6-0.2c0-0.3 0-0.3 0-0.9v-1.3l0.3-1.9q0-0.8-0.3-1.6-0.6-0.6-0.8-1.1-0.3-0.3-0.8-0.6z"/>
	<path id="Layer" class="s11" d="m754.1 395.7c0.8-0.5 1.4-1.3 1.6-2.9l3-40.7-6-4.1-2.7 37.4c-0.2 3 0 8.7 2.5 10.3q0.8 0.3 1.6 0z"/>
	<path id="Layer" class="s4" d="m759 312.8c-0.6-2.2-1.6-4.7-3-6.8l-1.4-1.6-0.5 8.4 5.7 3.8q0-1.9-0.8-3.8z"/>
	<path id="Layer" class="s4" d="m753.8 315.5l7.6 5.1q-0.5-1.1-1.1-1.9-0.2-0.5-0.2-0.8 0-0.5-0.3-1.3l-5.7-3.8-0.3 1.3z"/>
	<path id="Layer" class="s9" d="m752.5 313.3c-3.8-2.7-3.6-4.1-3.3-6.8l-1.3 0.8c0 0-0.9 3.6 3.8 6.5l2.1 1.7v-1.4z"/>
	<path id="Layer" class="s1" d="m759 312.8q0.8 1.9 0.8 3.8l0.8 0.5q-0.3-2.2-0.8-4.3c-0.8-2.5-1.9-4.9-3.3-6.8l-1.3-1.9-0.6 0.3 1.4 1.6c1.4 2.1 2.4 4.6 3 6.8z"/>
	<path id="Layer" class="s1" d="m760.1 317.9q0 0.3 0.2 0.8 0.6 0.8 1.1 1.9l1.1 0.6q-0.5-0.8-0.8-1.9-0.6-0.8-1.1-1.4 0-0.5 0-0.8l-0.8-0.5q0.3 0.8 0.3 1.3z"/>
	<path id="Layer" class="s1" d="m763.3 325q0.6 1 0.6 1.3 0 0.3-0.3 0.3c0.3 0.3 0.5 0 0.5 0q0.3-0.3 0.3-0.8c-0.3-0.6-0.5-1.4-0.8-2.2z"/>
	<path id="Layer" class="s9" d="m763.9 322.2l-0.3 1.4c0.3 0.8 0.5 1.6 0.8 2.2l0.5-4.1-3.2-2.4q0.3 1.1 0.8 1.9z"/>
	<path id="Layer" class="s9" d="m763.6 326.6q0 0.3-0.3 0l-0.3 1.9 1.1-0.6v-1.3c0 0-0.2 0.3-0.5 0z"/>
	<path id="Layer" class="s4" d="m763.9 326.3q0-0.3-0.6-1.3v1 0.6h0.3q0.3 0 0.3-0.3z"/>
	<path id="Layer" class="s4" d="m763.6 326.6h-0.3q0.3 0.3 0.3 0z"/>
	<path id="Layer" fill-rule="evenodd" class="s1" d="m751.7 322.8q0.2 0 0.5 0.3c0 0 3.3 2.1 3.5 2.1q0.3 0.3 0.6 0.6 0.2 0.5 0.8 1.1 0.3 0.8 0.3 1.6l-0.3 1.9c0 0 0 1.3 0 1.6q0 0.3 0 0.6-0.3 0.2-0.6 0.5-0.5 0-1.3-0.3 0 0-0.3 0l-3.2-2.4q-0.6-0.3-0.9-0.8c-0.5-0.6-1-1.7-0.8-2.5v-3.5c0.3-0.8 0.8-1.4 1.7-0.8zm0.5 1.1c-0.3-0.3-0.5-0.3-1.1 0q-0.3 0-0.3 0.5v1.4l-0.2 1.6c0 0.8 0.5 1.9 1.3 2.4 0 0 0.6 0.3 0.8 0.6q0 0 0.3 0.3l1.6 1q0.6 0.3 0.9 0.3c0.2 0 0.2 0 0.5 0q0.3-0.3 0.5-0.8v-2.7c0-0.8-0.2-1.4-0.8-2.2 0-0.3-0.2-0.3-0.5-0.5l-1.1-0.8-0.8-0.6c0 0-0.8-0.5-1.1-0.5z"/>
	<path id="Layer" class="s9" d="m750.8 324.4q0-0.3 0.3-0.5-0.3 0-0.3 0.5z"/>
	<path id="Layer" class="s4" d="m751.9 329.8c0 0 0.6 0.3 0.8 0.6z"/>
	<path id="Layer" class="s4" d="m752.7 330.1q-0.2-0.3-0.5-0.8 0-0.3-0.3-0.3-0.2-1.1-0.2-2.1 0-0.3 0-0.3c0-1.1 0.2-2.2 0.5-2.7q-0.5-0.3-0.8-0.3c-0.3 0.3-0.6 0.5-0.6 0.8v1.4l-0.2 1.6c0 0.8 0.5 1.9 1.3 2.4l0.8 0.6z"/>
	<path id="Layer" class="s1" d="m751.7 326.6q0 0 0 0.3 0 1 0.2 2.1 0.3 0 0.3 0 0.3 0.8 0.5 1.1-0.2 0-0.2-0.3-0.3-1-0.3-2.1c0-1.4 0.5-2.5 1.1-3.3l-0.8-0.5c-0.6 0.5-0.8 1.6-0.8 2.7z"/>
	<path id="Layer" class="s4" d="m753.6 326l-0.3 3.6q0 0.8-0.3 1.1l1.6 1-0.2-0.2q-0.3-0.6-0.6-1.1 0 0 0-0.3-0.2-1.1-0.2-2.2 0 0 0-0.2c0-1.1 0.2-1.9 0.5-2.7l-0.8-0.6q0.3 0.8 0.3 1.6z"/>
	<path id="Layer" class="s4" d="m753.3 329.8c0-0.2 0.3-3.8 0.3-3.8q0-0.8-0.3-1.6c-0.6 0.8-1.1 1.9-1.1 3.3q0 1.1 0.3 2.1 0 0.3 0.2 0.3 0 0.3 0 0.3 0.6 0 0.6-0.6z"/>
	<path id="Layer" class="s1" d="m753.6 327.9q0 1.1 0.2 2.2 0 0.3 0 0.3 0.3 0.5 0.6 1.1 0-0.3 0-0.3-0.3-1.1-0.3-2.4 0-0.3 0-0.6 0-0.3 0-0.5v-2.5c-0.3 0.6-0.5 1.4-0.5 2.5q0 0.2 0 0.2z"/>
	<path id="Layer" class="s1" d="m754.1 328.2c0-0.8 0.5-1.9 1.1-2.4l-1.1-0.8v2.7q0 0.2 0 0.5z"/>
	<path id="Layer" class="s4" d="m755.7 331.5q-0.2-0.6-0.2-0.8-0.3-0.3-0.3-0.3v0.5q-0.3 0.6-0.6 0.8 0.6 0.3 0.9 0.3 0.2 0 0.5 0-0.3-0.3-0.3-0.3 0-0.2 0-0.2z"/>
	<path id="Layer" class="s4" d="m755.5 327.1l-0.3 3.3q0 0 0.3 0.3-0.3-0.9-0.3-1.4 0-0.3 0-0.3c0.3-1.1 0.3-1.9 0.8-2.7q-0.5-0.3-0.8-0.5c0 0.5 0.3 1.1 0.3 1.3z"/>
	<path id="Layer" class="s4" d="m754.4 331.5l0.2 0.2q0-0.2-0.2-0.2z"/>
	<path id="Layer" class="s4" d="m755.2 330.9c0 0.6-0.6 0.8-0.6 0.8q0.3-0.2 0.6-0.8z"/>
	<path id="Layer" class="s4" d="m755.2 330.9v-0.5q-0.3-0.3-0.6-0.6-0.2-0.5-0.5-1 0 1.3 0.3 2.4 0 0 0 0.3 0.2 0 0.2 0.2c0 0 0.6-0.2 0.6-0.8z"/>
	<path id="Layer" class="s4" d="m754.1 328.8q0.3 0.5 0.5 1 0.3 0.3 0.6 0.6l0.3-3.3q0-0.5-0.3-1.3c-0.6 0.5-1.1 1.6-1.1 2.4q0 0.3 0 0.6z"/>
	<path id="Layer" class="s1" d="m755.5 330.7q0 0.2 0.2 0.8 0 0 0 0.2 0 0 0.3 0.3 0.3-0.3 0.3-0.8l-0.6-0.3q0 0-0.2-0.2z"/>
	<path id="Layer" class="s1" d="m755.2 329.3q0 0.5 0.3 1.4 0.2 0.2 0.2 0.2l0.6 0.3c0.2 0 0.2-2.7 0.2-2.7 0-0.8-0.2-1.4-0.5-2.2-0.3 0.8-0.5 1.6-0.8 2.7q0 0 0 0.3z"/>
	<path id="Layer" class="s20" d="m779.6 362.7c0 0 33.1 18.9 44.5 20.3 11.3 1.1 22.5 6.8 27.9 11.1 5.7 4.6 4.6 15.5 0.5 21.4-4.3 6.3-18.4 1.9-26 0-7.6-1.6-57.5-37.4-57.5-37.4 0 0-10.8-0.8-13.5-3.2-3-2.2-8.7-5.5-8.7-5.5 0 0-8.2-7.8-9.2-9.5-0.9-1.3-1.9-4.3-0.9-5.4 1.1-0.8-3.2-4.6-1-6.8 2.1-2.1 3.5 0 3.5 0 0 0-5.4-3.8-1.4-6.2 3.8-2.2 6-1.1 6-1.1 0 0-4.1-3.2-2.2-4.6 2.2-1.3 9.8-1.3 9.8-1.3l11.1 4.8 1.4-5.9c0 0 15.7 7.3 17.6 19.5 0.8 4.9-1.9 9.8-1.9 9.8z"/>
	<path id="Layer" class="s19" d="m690.6 364.3c0 0-2.4 6.8-1.3 7.6 1.3 0.8 2.7 8.1 2.7 8.1l-0.8 3c0 0 3.2 4.9 3.2 6.2 0 1.1 0.3 4.6 1.9 4.4 1.7 0 3.3-2.7 3.3-5.5 0-2.9-2.2-8.4-0.5-9.7 1.6-1.6 4-11.4 3.2-12-1.1-0.2-8.1-8.6-11.7-2.1z"/>
</svg>