<svg width="244" height="58" viewBox="0 0 244 58" fill="none" xmlns="http://www.w3.org/2000/svg">
<path d="M3.03409 46V11.0909H16.8068C19.4545 11.0909 21.7102 11.5966 23.5739 12.608C25.4375 13.608 26.858 15 27.8352 16.7841C28.8239 18.5568 29.3182 20.6023 29.3182 22.9205C29.3182 25.2386 28.8182 27.2841 27.8182 29.0568C26.8182 30.8295 25.3693 32.2102 23.4716 33.1989C21.5852 34.1875 19.3011 34.6818 16.6193 34.6818H7.84091V28.767H15.4261C16.8466 28.767 18.017 28.5227 18.9375 28.0341C19.8693 27.5341 20.5625 26.8466 21.017 25.9716C21.483 25.0852 21.7159 24.0682 21.7159 22.9205C21.7159 21.7614 21.483 20.75 21.017 19.8864C20.5625 19.0114 19.8693 18.3352 18.9375 17.858C18.0057 17.3693 16.8239 17.125 15.392 17.125H10.4148V46H3.03409ZM34.1122 46V11.0909H41.4929V39.9148H56.4588V46H34.1122ZM92.0668 28.5455C92.0668 32.3523 91.3452 35.5909 89.902 38.2614C88.4702 40.9318 86.5156 42.9716 84.0384 44.3807C81.5724 45.7784 78.7997 46.4773 75.7202 46.4773C72.6179 46.4773 69.8338 45.7727 67.3679 44.3636C64.902 42.9545 62.9531 40.9148 61.5213 38.2443C60.0895 35.5739 59.3736 32.3409 59.3736 28.5455C59.3736 24.7386 60.0895 21.5 61.5213 18.8295C62.9531 16.1591 64.902 14.125 67.3679 12.7273C69.8338 11.3182 72.6179 10.6136 75.7202 10.6136C78.7997 10.6136 81.5724 11.3182 84.0384 12.7273C86.5156 14.125 88.4702 16.1591 89.902 18.8295C91.3452 21.5 92.0668 24.7386 92.0668 28.5455ZM84.5838 28.5455C84.5838 26.0795 84.2145 24 83.4759 22.3068C82.7486 20.6136 81.7202 19.3295 80.3906 18.4545C79.0611 17.5795 77.5043 17.142 75.7202 17.142C73.9361 17.142 72.3793 17.5795 71.0497 18.4545C69.7202 19.3295 68.6861 20.6136 67.9474 22.3068C67.2202 24 66.8565 26.0795 66.8565 28.5455C66.8565 31.0114 67.2202 33.0909 67.9474 34.7841C68.6861 36.4773 69.7202 37.7614 71.0497 38.6364C72.3793 39.5114 73.9361 39.9489 75.7202 39.9489C77.5043 39.9489 79.0611 39.5114 80.3906 38.6364C81.7202 37.7614 82.7486 36.4773 83.4759 34.7841C84.2145 33.0909 84.5838 31.0114 84.5838 28.5455ZM97.5341 11.0909H106.636L116.25 34.5455H116.659L126.273 11.0909H135.375V46H128.216V23.2784H127.926L118.892 45.8295H114.017L104.983 23.1932H104.693V46H97.5341V11.0909ZM141.456 46V11.0909H155.433C158.001 11.0909 160.143 11.4716 161.859 12.233C163.575 12.9943 164.865 14.0511 165.729 15.4034C166.592 16.7443 167.024 18.2898 167.024 20.0398C167.024 21.4034 166.751 22.6023 166.206 23.6364C165.661 24.6591 164.911 25.5 163.956 26.1591C163.013 26.8068 161.933 27.267 160.717 27.5398V27.8807C162.047 27.9375 163.291 28.3125 164.45 29.0057C165.621 29.6989 166.57 30.6705 167.297 31.9205C168.024 33.1591 168.388 34.6364 168.388 36.3523C168.388 38.2045 167.928 39.858 167.007 41.3125C166.098 42.7557 164.751 43.8977 162.967 44.7386C161.183 45.5795 158.984 46 156.371 46H141.456ZM148.837 39.9659H154.854C156.911 39.9659 158.411 39.5739 159.354 38.7898C160.297 37.9943 160.768 36.9375 160.768 35.6193C160.768 34.6534 160.536 33.8011 160.07 33.0625C159.604 32.3239 158.939 31.7443 158.075 31.3239C157.223 30.9034 156.206 30.6932 155.024 30.6932H148.837V39.9659ZM148.837 25.6989H154.308C155.32 25.6989 156.217 25.5227 157.001 25.1705C157.797 24.8068 158.422 24.2955 158.876 23.6364C159.342 22.9773 159.575 22.1875 159.575 21.267C159.575 20.0057 159.126 18.9886 158.229 18.2159C157.342 17.4432 156.081 17.0568 154.445 17.0568H148.837V25.6989ZM173.19 46V11.0909H196.713V17.1761H180.571V25.4943H195.503V31.5795H180.571V39.9148H196.781V46H173.19ZM202.581 11.0909H211.683L221.297 34.5455H221.706L231.32 11.0909H240.422V46H233.263V23.2784H232.973L223.939 45.8295H219.064L210.03 23.1932H209.74V46H202.581V11.0909Z" fill="#254B74"/>
<g clip-path="url(#clip0_3_2325)">
<path d="M76.1311 23.6849L80.5135 24.022C80.8424 24.022 81.3522 23.6849 81.6893 23.0107C82.7007 21.8349 81.0151 20.8236 80.5135 20.8236H78.6553L76.1311 23.6849Z" fill="#26466C"/>
<path d="M74.9553 25.0251C74.9553 25.0251 76.3037 24.688 76.3037 25.6994C76.3037 26.7107 76.3037 27.3849 76.3037 27.3849H74.9553V30.0736L73.4424 30.5834C73.4424 30.5834 72.9409 32.9349 72.7682 33.1076C72.6037 33.272 71.9295 32.0962 71.9295 32.0962C71.9295 32.0962 70.5811 34.6205 70.4166 34.7849L69.9069 33.9462L74.9553 25.0251Z" fill="#96C7ED"/>
<path d="M77.9893 18.6363C75.6295 20.4863 73.278 21.6621 70.7538 22.6734C68.5667 23.5121 66.2069 25.8719 64.8584 28.7332C63.8471 30.9203 63.1811 33.2719 63.0084 35.2945V35.6316C62.844 37.6461 61.3311 40.0059 59.6455 41.0172C58.8069 41.5187 57.96 41.6832 57.2858 41.3543L56.2827 40.6801C55.9455 40.5074 55.2713 41.1816 55.4358 41.6832C55.9455 45.7285 59.1358 47.2414 63.0084 44.8816L66.544 42.8672C69.9069 41.0172 72.6038 36.3059 72.4311 32.4332C72.4311 29.2347 74.2811 25.1976 77.1424 23.0105L79.5022 20.8234C79.1651 19.9765 78.828 18.9734 78.4909 18.2992C78.2661 18.4088 78.0989 18.5212 77.9893 18.6363Z" fill="#F46C0A"/>
<path d="M89.262 9.04113C87.0749 9.5509 81.3522 15.7751 78.4909 18.2993C78.828 18.9736 79.1651 19.9767 79.5022 20.8236L88.4151 13.4153C88.4151 13.4153 90.9394 12.9138 91.112 12.7411C91.2765 12.5767 91.7862 8.53957 89.262 9.04113Z" fill="#26466C"/>
<path d="M79.1651 28.7333C77.4795 29.9091 76.978 31.7591 73.944 33.6091C73.1053 34.1189 69.7424 33.272 68.7311 36.1333C67.8924 37.8189 67.3827 40.8447 72.2667 38.9947C76.6409 37.3091 77.3151 33.9462 79.5022 32.0962C79.6667 30.9205 79.8393 29.4076 80.0038 28.2236C79.779 28.3387 79.4995 28.5086 79.1651 28.7333Z" fill="#FC9A5D"/>
<path d="M91.2764 22.6736C90.4378 22.838 88.5878 25.0251 88.078 25.5349C87.7491 26.0365 83.2022 26.3736 80.0038 28.2236C79.8393 29.4076 79.6666 30.9205 79.5022 32.0963C79.7269 31.9811 79.9517 31.8688 80.1764 31.7591C81.6893 30.9205 86.4006 30.0736 89.9362 28.0591C91.112 27.2123 92.1233 22.6736 91.2764 22.6736Z" fill="#26466C"/>
<path d="M71.0827 37.1447C70.7538 37.3091 70.5811 37.1447 70.5811 36.8076C70.5811 36.4705 70.7538 36.1333 71.0827 35.9689C71.2553 35.7962 71.5924 35.9689 71.5924 36.306C71.5924 36.6431 71.2553 36.972 71.0827 37.1447Z" fill="#26466C"/>
<path d="M78.4909 31.7591C78.4909 31.9236 78.3182 32.2607 77.9893 32.4334C77.8167 32.5978 77.6522 32.4334 77.6522 32.0962C77.6522 31.9236 77.8167 31.5947 77.9893 31.422C78.3182 31.422 78.4909 31.422 78.4909 31.7591Z" fill="#26466C"/>
<path d="M69.2327 28.7334C69.2327 29.9091 68.394 31.0849 67.3827 31.7591C66.544 32.2607 65.7053 31.7591 65.7053 30.7478C65.7053 29.572 66.544 28.3962 67.3827 27.722C68.394 27.2123 69.2327 27.722 69.2327 28.7334Z" fill="#26466C"/>
</g>
<defs>
<clipPath id="clip0_3_2325">
<rect width="37" height="37" fill="white" transform="translate(55 9)"/>
</clipPath>
</defs>
</svg>
