<svg version="1.2" xmlns="http://www.w3.org/2000/svg" viewBox="0 0 450 450" width="450" height="450">
	<title>pince</title>
	<style>
		.s0 { fill: #26466c } 
		.s1 { fill: #96c7ed } 
		.s2 { fill: #f46c0a } 
		.s3 { fill: #fc9a5d } 
	</style>
	<g id="Layer">
		<path id="Layer" class="s0" d="m257 178.6l53.3 4.1c4 0 10.2-4.1 14.3-12.3 12.3-14.3-8.2-26.6-14.3-26.6h-22.6z"/>
		<path id="Layer" class="s1" d="m242.7 194.9c0 0 16.4-4.1 16.4 8.2 0 12.3 0 20.5 0 20.5h-16.4v32.7l-18.4 6.2c0 0-6.1 28.6-8.2 30.7-2 2-10.2-12.3-10.2-12.3 0 0-16.4 30.7-18.4 32.7l-6.2-10.2z"/>
		<g id="Layer">
			<g id="Layer">
				<path id="Layer" class="s2" d="m279.6 117.2c-28.7 22.5-57.3 36.8-88 49.1-26.6 10.2-55.3 38.9-71.7 73.7-12.3 26.6-20.4 55.2-22.5 79.8v4.1c-2 24.5-20.4 53.2-40.9 65.5-10.2 6.1-20.5 8.1-28.7 4.1l-12.2-8.2c-4.1-2.1-12.3 6.1-10.3 12.2 6.2 49.2 45 67.6 92.1 38.9l43-24.5c40.9-22.5 73.7-79.8 71.6-126.9 0-38.9 22.5-88 57.3-114.6l28.7-26.6c-4.1-10.3-8.2-22.5-12.3-30.7q-4.1 2-6.1 4.1z"/>
				<path id="Layer" class="s0" d="m416.7 0.5c-26.6 6.2-96.2 81.9-131 112.6 4.1 8.2 8.2 20.4 12.3 30.7l108.4-90.1c0 0 30.7-6.1 32.8-8.2 2-2 8.2-51.1-22.5-45z"/>
			</g>
			<g id="Layer">
				<path id="Layer" class="s3" d="m293.9 240c-20.5 14.3-26.6 36.8-63.5 59.3-10.2 6.2-51.1-4.1-63.4 30.7-10.2 20.5-16.4 57.3 43 34.8 53.2-20.5 61.4-61.4 88-83.9 2-14.3 4.1-32.7 6.1-47.1q-4.1 2.1-10.2 6.2z"/>
				<path id="Layer" class="s0" d="m441.2 166.3c-10.2 2-32.7 28.6-38.9 34.8-4 6.1-59.3 10.2-98.2 32.7-2 14.4-4.1 32.8-6.1 47.1q4.1-2.1 8.2-4.1c18.4-10.2 75.7-20.5 118.7-45 14.3-10.3 26.6-65.5 16.3-65.5z"/>
			</g>
			<path id="Layer" class="s0" d="m195.6 342.3c-4 2-6.1 0-6.1-4.1 0-4.1 2.1-8.2 6.1-10.2 2.1-2.1 6.2 0 6.2 4.1 0 4.1-4.1 8.1-6.2 10.2z"/>
			<path id="Layer" class="s0" d="m285.7 276.8c0 2-2.1 6.1-6.1 8.2-2.1 2-4.1 0-4.1-4.1 0-2.1 2-6.1 4.1-8.2 4 0 6.1 0 6.1 4.1z"/>
			<path id="Layer" class="s0" d="m173.1 240c0 14.3-10.2 28.6-22.5 36.8-10.2 6.1-20.4 0-20.4-12.3 0-14.3 10.2-28.6 20.4-36.8 12.3-6.2 22.5 0 22.5 12.3z"/>
		</g>
	</g>
</svg>