<svg version="1.2" xmlns="http://www.w3.org/2000/svg" viewBox="0 0 450 450" width="450" height="450">
	<title>plomb1</title>
	<style>
		.s0 { fill: #c7edff } 
		.s1 { fill: #c9d6e2 } 
		.s2 { fill: #ffa875 } 
		.s3 { fill: #96c7ed } 
		.s4 { fill: #aedff7 } 
		.s5 { fill: #e3f7ff } 
		.s6 { fill: #2b83c6 } 
		.s7 { fill: #bbebff } 
		.s8 { fill: #2275b4 } 
		.s9 { fill: #ff813b } 
		.s10 { fill: #fc9a5d } 
		.s11 { fill: #f46c0a } 
		.s12 { fill: #26466c } 
		.s13 { fill: #1e5f99 } 
		.s14 { fill: #194d7e } 
		.s15 { fill: #ffffff } 
		.s16 { fill: #f44d22 } 
		.s17 { fill: #e2ab91 } 
		.s18 { fill: #efbea3 } 
		.s19 { fill: #ffd1b6 } 
	</style>
	<g id="Layer">
		<g id="Layer">
			<g id="Layer">
				<g id="Layer">
					<path id="Layer" fill-rule="evenodd" class="s0" d="m196.6 254.9l-57.6-33.2 57.2-33.1 57.6 33.3zm-56.4-33.3l56.4 32.6 56-32.4-56.4-32.5z"/>
				</g>
				<g id="Layer">
					<path id="Layer" fill-rule="evenodd" class="s0" d="m253.5 287.8l-57.6-33.3 57.2-33 57.6 33.3zm-56.4-33.3l56.4 32.6 56.1-32.4-56.5-32.6z"/>
				</g>
				<g id="Layer">
					<path id="Layer" fill-rule="evenodd" class="s0" d="m310.4 320.7l-57.6-33.3 57.3-33 57.5 33.2zm-56.4-33.2l56.4 32.5 56.1-32.3-56.4-32.6z"/>
				</g>
				<g id="Layer">
					<path id="Layer" fill-rule="evenodd" class="s0" d="m140.1 287.5l-57.6-33.2 57.2-33.1 57.6 33.3zm-56.4-33.2l56.4 32.5 56-32.3-56.4-32.6z"/>
				</g>
				<g id="Layer">
					<path id="Layer" fill-rule="evenodd" class="s0" d="m197 320.4l-57.6-33.2 57.2-33.1 57.6 33.3zm-56.4-33.3l56.4 32.6 56.1-32.4-56.4-32.5z"/>
				</g>
				<g id="Layer">
					<path id="Layer" fill-rule="evenodd" class="s0" d="m253.9 353.3l-57.6-33.3 57.3-33 57.5 33.2zm-56.4-33.2l56.4 32.6 56.1-32.4-56.4-32.6z"/>
				</g>
				<g id="Layer">
					<path id="Layer" fill-rule="evenodd" class="s0" d="m83.6 320.1l-57.6-33.2 57.2-33 57.6 33.2zm-56.4-33.2l56.4 32.5 56.1-32.3-56.5-32.6z"/>
				</g>
				<g id="Layer">
					<path id="Layer" fill-rule="evenodd" class="s0" d="m140.5 353l-57.6-33.2 57.3-33.1 57.5 33.3zm-56.4-33.3l56.4 32.6 56.1-32.4-56.4-32.5z"/>
				</g>
				<g id="Layer">
					<path id="Layer" fill-rule="evenodd" class="s0" d="m197.4 385.9l-57.5-33.3 57.2-33 57.6 33.2zm-56.5-33.2l56.5 32.6 56-32.4-56.4-32.6z"/>
				</g>
			</g>
			<g id="Layer">
				<g id="Layer">
					<path id="Layer" fill-rule="evenodd" class="s0" d="m253.2 222.2l-57.5-33.3 57.2-33 57.6 33.3zm-56.5-33.3l56.4 32.6 56.1-32.4-56.4-32.5z"/>
				</g>
				<g id="Layer">
					<path id="Layer" fill-rule="evenodd" class="s0" d="m310.2 255.1l-57.6-33.3 57.2-33 57.6 33.2zm-56.4-33.2l56.4 32.6 56-32.4-56.4-32.6z"/>
				</g>
				<g id="Layer">
					<path id="Layer" fill-rule="evenodd" class="s0" d="m367.1 287.9l-57.6-33.2 57.2-33 57.6 33.2zm-56.4-33.2l56.4 32.5 56.1-32.3-56.4-32.6z"/>
				</g>
			</g>
		</g>
		<path id="Layer" class="s1" d="m285 332.3c-22.6 13.1-52.1 5.8-74.9-7.3-22.8-13.2-28.2-22.7-5.6-35.8 22.7-13.1 51.8-11.5 73.3 3.6 13.3 9.3 29.9 26.5 7.2 39.5z"/>
		<path id="Layer" class="s1" d="m317.9 263.8c-28 0-50.7-13.1-50.7-29.2 0-16.2 22.7-29.2 50.7-29.2 27.9 0 50.6 13 50.6 29.2 0 16.1-22.7 29.2-50.6 29.2z"/>
		<g id="Layer">
			<g id="Layer">
				<g id="Layer">
					<path id="Layer" class="s2" d="m146.9 167.7l103.4-59.8-58.6-34.3-103.4 59.8z"/>
					<g id="Layer">
						<path id="Layer" class="s3" d="m179 140l-1.6 0.9-5.2 3.1-5.8 3.3-9.7 5.6c-5.5 3.2-13.7 3.5-18.5 0.8l-13.3-7.7-5-2.9-4-2.3-2.9-1.7c-4.7-2.7-4.2-7.5 1.3-10.6l5.6-3.3 5-2.9 2.1-1.2 2.4-1.3 1.2-0.8 6-3.5q1.6-0.9 3.5-1.5c5-1.6 11.1-1.4 14.9 0.7q0 0.1 0.1 0.1l4 2.3 7.3 4.3 5.8 3.3 8.1 4.7c4.8 2.7 4.2 7.5-1.3 10.6z"/>
						<g id="Layer">
							<path id="Layer" class="s4" d="m140.1 114v15.6c0 0-7.7 7-9 7-0.8 0-0.7-9.6-0.5-17.6l6-3.4q1.6-1 3.5-1.6z"/>
							<path id="Layer" class="s4" d="m124.9 122.3v23.7l-5-2.9v-17.9z"/>
							<path id="Layer" class="s5" d="m129.4 119.8v20.3h-2.4v-19z"/>
							<path id="Layer" class="s5" d="m159.1 117.1v19.5h-4.1v-21.9q0 0.1 0.1 0.1z"/>
							<path id="Layer" class="s5" d="m172.2 124.7v19.3l-5.8 3.3v-25.9z"/>
						</g>
						<path id="Layer" class="s4" d="m177.4 140.9l-20.7 12c-5.5 3.2-13.7 3.5-18.5 0.8l-22.3-12.9 20.7-12c5.5-3.2 13.7-3.5 18.5-0.8z"/>
					</g>
					<g id="Layer">
						<path id="Layer" class="s3" d="m226.7 112.5l-1.5 0.9-20.8 12c-5.5 3.1-13.7 3.5-18.4 0.7l-22.4-12.9-2.9-1.6c-4.7-2.8-4.1-7.5 1.3-10.7l22.4-12.9c5.4-3.1 13.7-3.5 18.4-0.8l25.3 14.6c4.7 2.8 4.1 7.5-1.4 10.7z"/>
						<g id="Layer">
							<path id="Layer" class="s4" d="m187.7 86.5v15.6c0 0-7.6 7-9 7-0.8 0-0.6-9.7-0.4-17.6l6-3.5c1.1-0.6 2.2-1.1 3.4-1.5z"/>
							<path id="Layer" class="s4" d="m172.6 94.8v23.7l-5-2.9v-17.9z"/>
							<path id="Layer" class="s5" d="m177 92.2v20.4h-2.3v-19z"/>
							<path id="Layer" class="s5" d="m206.7 89.6v19.5h-4.1v-21.9q0.1 0 0.1 0.1z"/>
							<path id="Layer" class="s5" d="m219.8 97.1v19.3l-5.7 3.3v-25.9z"/>
						</g>
						<path id="Layer" class="s4" d="m225.2 113.4l-20.8 12c-5.5 3.1-13.7 3.5-18.4 0.7l-22.4-12.9 20.8-12c5.4-3.1 13.7-3.5 18.4-0.7z"/>
					</g>
					<g id="Layer">
						<path id="Layer" class="s6" d="m141.3 144.7c-3.1 1.8-8.3 1.8-11.4 0-3.2-1.8-3.2-4.8-0.1-6.6 3.2-1.8 8.3-1.8 11.5 0 3.1 1.8 3.1 4.8 0 6.6z"/>
						<path id="Layer" class="s7" d="m140.2 144.1c-2.5 1.5-6.7 1.4-9.3 0-2.5-1.5-2.5-3.9 0-5.4 2.6-1.5 6.7-1.5 9.3 0 2.6 1.5 2.6 3.9 0 5.4z"/>
						<path id="Layer" class="s0" d="m138.7 144.6c-1.7 0.6-4.2 0.8-6.3 0-1.8-0.8-1.7-2.7 0-3.7 1.7-1 4.6-1 6.3 0 1.8 1 1.9 2.9 0 3.7z"/>
						<g id="Layer">
							<path id="Layer" class="s8" d="m136.2 142.2l1.5-1.3 1 0.6-2.3 0.8z"/>
							<path id="Layer" class="s8" d="m136.7 142.6l2.6-0.3v0.8l-2.6-0.3z"/>
							<path id="Layer" class="s8" d="m136.5 143.1l2.2 0.9-0.9 0.6-1.5-1.4z"/>
							<path id="Layer" class="s8" d="m135.7 143.4l0.6 1.5h-1.4l0.6-1.5z"/>
							<path id="Layer" class="s8" d="m134.9 143.2l-1.5 1.4-1-0.6 2.4-0.8z"/>
							<path id="Layer" class="s8" d="m134.5 142.8l-2.7 0.3v-0.8l2.7 0.4z"/>
							<path id="Layer" class="s8" d="m134.7 142.4l-2.3-0.9 1-0.6 1.5 1.4z"/>
							<path id="Layer" class="s8" d="m135.4 142.1l-0.5-1.5h1.3l-0.6 1.5z"/>
						</g>
					</g>
					<g id="Layer">
						<path id="Layer" class="s6" d="m189.5 117.9c-3.2 1.8-8.3 1.8-11.4 0-3.2-1.9-3.2-4.8-0.1-6.6 3.2-1.8 8.3-1.8 11.5 0 3.1 1.8 3.1 4.8 0 6.6z"/>
						<path id="Layer" class="s7" d="m188.4 117.3c-2.5 1.4-6.7 1.4-9.3 0-2.5-1.5-2.5-3.9 0-5.4 2.6-1.5 6.7-1.5 9.3 0 2.6 1.5 2.6 3.9 0 5.4z"/>
						<path id="Layer" class="s0" d="m186.9 117.8c-1.7 0.6-4.2 0.8-6.3-0.1-1.9-0.7-1.7-2.6 0-3.6 1.7-1 4.6-1 6.3 0 1.8 1 1.9 2.9 0 3.7z"/>
						<g id="Layer">
							<path id="Layer" class="s8" d="m184.4 115.4l1.5-1.3 1 0.6-2.3 0.8z"/>
							<path id="Layer" class="s8" d="m184.8 115.8l2.7-0.3v0.8l-2.7-0.3z"/>
							<path id="Layer" class="s8" d="m184.6 116.3l2.3 0.9-0.9 0.6-1.5-1.4z"/>
							<path id="Layer" class="s8" d="m183.9 116.6l0.6 1.5h-1.4l0.6-1.5z"/>
							<path id="Layer" class="s8" d="m183.1 116.4l-1.5 1.3-1-0.5 2.3-0.9z"/>
							<path id="Layer" class="s8" d="m182.7 116l-2.7 0.3v-0.8l2.7 0.4z"/>
							<path id="Layer" class="s8" d="m182.9 115.6l-2.3-0.9 1-0.6 1.4 1.4z"/>
							<path id="Layer" class="s8" d="m183.6 115.3l-0.5-1.5h1.3l-0.6 1.5z"/>
						</g>
					</g>
					<path id="Layer" class="s9" d="m146.9 284.8l-58.6-34.4v-117l58.6 34.3z"/>
					<path id="Layer" class="s10" d="m148 179.9l-59.7-35v-11.4l59.7 35z"/>
					<path id="Layer" class="s11" d="m146.9 284.8l103.4-59.9v-117l-103.4 59.8z"/>
					<g id="Layer">
						<path id="Layer" class="s3" d="m194.9 144.1v108.7l-44.3 25.6v-108.6z"/>
						<path id="Layer" class="s0" d="m194.9 252.6v0.2l-44.3 25.6v-51.3z"/>
						<g id="Layer">
							<g id="Layer">
								<g id="Layer">
									<g id="Layer">
										<path id="Layer" class="s7" d="m174.2 183.7q0.1 0 0.2 0-0.1 0-0.2 0z"/>
										<path id="Layer" class="s7" d="m175.6 190.8l0.6 1 2-1.2q0.1 0 0.2 0c0.2-0.2 0.2-0.3 0.2-0.3q0.1-0.1 0.1-0.1c0.1-0.2 0.1-0.2 0.2-0.3 0-0.1 0-0.1 0-0.1 0.1-0.3 0.1-0.5 0.2-0.7q0-0.1 0-0.1 0-0.1 0-0.2c0-0.1-3.5 2-3.5 2z"/>
										<path id="Layer" class="s3" d="m174.2 188.4l0.8 1.5 3.9-2.3q-0.2-0.8-0.7-1.6z"/>
										<path id="Layer" class="s7" d="m174.5 183.6q0.1 0 0.1 0 0 0-0.1 0z"/>
										<path id="Layer" class="s7" d="m174.7 183.6q0 0 0.1 0-0.1 0-0.1 0z"/>
										<path id="Layer" class="s0" d="m172.5 185.5l0.6 1.1 3.8-2.2q-0.3-0.3-0.7-0.5-0.3-0.2-0.6-0.3c0 0-3.1 1.9-3.1 1.9z"/>
										<path id="Layer" class="s4" d="m175 189.9l0.6 0.9 3.5-2.1q0-0.5-0.2-1.1z"/>
										<path id="Layer" class="s4" d="m173.1 186.6l1.1 1.8 4-2.4c-0.3-0.6-0.8-1.2-1.3-1.6z"/>
										<path id="Layer" class="s4" d="m172.5 185.5l3.1-1.9c-0.1 0-0.2 0-0.3 0-0.4 0-0.4 0-0.5 0q-0.1 0-0.1 0-0.1 0-0.2 0-0.1 0.1-0.1 0.1-0.1 0-0.2 0c0 0.1-2 1.3-2 1.3z"/>
									</g>
									<g id="Layer">
										<path id="Layer" class="s3" d="m177 190c0-1.8-1.3-3.9-2.8-4.8-1.6-0.9-2.9-0.2-2.8 1.6 0 1.8 1.2 3.9 2.8 4.8 1.6 0.9 2.8 0.2 2.8-1.6z"/>
										<path id="Layer" class="s12" d="m177 190c0-1.8-1.3-3.9-2.8-4.8-1.6-0.9-2.9-0.2-2.8 1.6 0 1.8 1.2 3.9 2.8 4.8 1.6 0.9 2.8 0.2 2.8-1.6z"/>
									</g>
								</g>
								<path id="Layer" class="s13" d="m156 169.9v21.5c0 1.6 0.4 2.9 1.1 4q0.7 1.2 1.9 1.9c0.9 0.5 1.9 0.8 2.9 0.8q1.1 0 2.2-0.4 0.8-0.3 1.6-0.7l9.9-5.7q0.5-0.1 0.7-0.6 0.2-0.4 0.2-0.9c0-0.8-0.3-1.6-0.7-2.4q-0.1-0.2-0.3-0.5-0.2-0.2-0.4-0.4-0.4-0.5-0.9-0.8-0.5-0.2-1-0.3-0.6 0-1 0.4l-7.3 4.2c-1.1 0.6-2.4-0.2-2.4-1.4v-18.7c0 0-6.5 0-6.5 0z"/>
								<g id="Layer">
									<path id="Layer" class="s6" d="m162.4 190.7c0 1.8 1.9 2.9 3.5 2.1l1.4-0.8c0 0 7-3.7 7-3.7l1.2-1.4q-0.2-0.2-0.4-0.4-0.4-0.5-0.9-0.8-0.5-0.2-1-0.3l-0.5 0.1-0.5 0.3-7.3 4.2c-1.1 0.6-2.4-0.1-2.4-1.4v-7.9z"/>
									<path id="Layer" class="s14" d="m156 169.9v21.5c0 2.7 1.1 4.8 3 5.9q1.4 0.8 2.9 0.8 1.1 0 2.2-0.4c-6.8 0.5-5.1-2.9-5.1-2.9v-24.9c0 0-3 0-3 0z"/>
									<path id="Layer" class="s12" d="m159 197.3c0.9 0.5 1.9 0.8 2.9 0.8q1.1 0 2.2-0.4 0.8-0.3 1.6-0.7l9.9-5.7 0.3-0.2 0.4-0.4q0.2-0.4 0.2-0.9l-12.4 7c0 0-2.3 1-5.1 0.5z"/>
									<path id="Layer" class="s15" d="m166.7 191.9q0.2 0.1 0.3 0.1 0.2 0 0.3 0c0-0.1 8.5-4.6 8.5-4.6q-0.1-0.2-0.3-0.5-0.2-0.2-0.4-0.4l-8.4 4.4c-0.3 0.3-0.3 0.8 0 1z"/>
									<path id="Layer" class="s12" d="m156 169.9v21.5c0 1.6 0.4 2.9 1.1 4-0.5-7.9-0.4-17.9-0.4-25.5z"/>
								</g>
							</g>
							<path id="Layer" class="s15" d="m161.8 170.9v20.8c0 1.4 1.2 2.4 2.6 2.2l1.5-0.2-1.7 0.7c-1.4 0.5-3-0.5-3-2.1v-21.1z"/>
						</g>
						<path id="Layer" class="s6" d="m194.9 144.1v4.6c-2.5 7-6.1 16-8 17.3-2 1.4-21.8 13.1-36.3 21.5v-17.7z"/>
					</g>
					<g id="Layer">
						<path id="Layer" class="s16" d="m197.6 137.9h1.9v116.8h-1.9z"/>
					</g>
					<path id="Layer" class="s9" d="m146.9 179.2l103.4-59.9v-11.4l-103.4 59.8z"/>
				</g>
				<g id="Layer">
					<g id="Layer">
						<g id="Layer">
							<path id="Layer" class="s0" d="m155 88.1q0 0.5-0.3 0.7c-0.1 0.1-3.8 2.2-3.8 2.2l-0.9-1.3-0.8-1.3 3.8-2.2c0.2-0.2 0.5-0.2 0.9 0 0.6 0.4 1.1 1.2 1.1 1.9z"/>
							<path id="Layer" class="s3" d="m151.1 90.4c0 0.7-0.5 0.9-1.1 0.6-0.6-0.4-1.1-1.2-1.1-1.9 0-0.7 0.5-1 1.1-0.6 0.6 0.3 1.1 1.2 1.1 1.9z"/>
						</g>
						<g id="Layer">
							<path id="Layer" class="s0" d="m150.7 90.7q0 0.5-0.3 0.7c-0.1 0-3.8 2.1-3.8 2.1l-0.9-1.3-0.9-1.2 3.9-2.3c0.2-0.1 0.5-0.1 0.9 0.1 0.6 0.3 1.1 1.2 1.1 1.9z"/>
							<path id="Layer" class="s3" d="m146.8 92.9c0 0.7-0.5 1-1.1 0.6-0.6-0.3-1.1-1.2-1.1-1.9 0-0.7 0.5-1 1.1-0.6 0.6 0.3 1.1 1.2 1.1 1.9z"/>
						</g>
					</g>
					<g id="Layer">
						<path id="Layer" class="s7" d="m147 105.8c-1.3 0.8-3.4 0.8-4.7 0-1.2-0.7-1.3-2.5 0-3.3 1.3-0.7 3.4-0.7 4.7 0.1 1.3 0.7 1.3 2.5 0 3.2z"/>
						<path id="Layer" class="s0" d="m147 105.3c-1.3 0.7-3.4 0.7-4.7 0-1.2-0.8-1.3-2 0-2.8 1.3-0.7 3.4-0.7 4.7 0.1 1.3 0.7 1.3 1.9 0 2.7z"/>
					</g>
					<g id="Layer">
						<g id="Layer">
							<path id="Layer" class="s3" d="m165.8 86v2.7c0 0.3-0.2 0.6-0.6 0.8-0.5 0.3-1.2 0.4-1.8 0.3q-0.6 0-1-0.3c-0.4-0.2-0.6-0.6-0.6-0.9v-4.9c0-4.8-2.9-10-7.1-12.4-5.2-3-7.9-2.1-7.9 3.7v28.5c0 0.4-0.2 0.7-0.6 1-0.6 0.3-1.4 0.4-2.1 0.2q-0.4-0.1-0.7-0.2c-0.4-0.3-0.6-0.6-0.6-0.9v-30.9c0-5.9 5-9.8 11.5-6.5 9.5 4.7 11.5 12.5 11.5 19.8z"/>
						</g>
						<path id="Layer" class="s7" d="m163.4 89.8q-0.6 0-1-0.3c-0.4-0.2-0.6-0.6-0.6-0.9v-4.9c0-4.8-2.9-10-7.1-12.4-2.2-1.3-3.9-1.8-5.2-1.7-1.8 0.3-2.7 2-2.7 5.4v28.5c0 0.4-0.2 0.7-0.6 1-0.6 0.3-1.4 0.4-2.1 0.2 0-9.4 0-31.9 0.7-33.6 0.8-2 1.7-3.7 4.3-3.5 2.7 0.2 8.6 3.4 10.5 6.4 1.7 2.6 3.1 3.2 3.7 13.3q0 1.4 0.1 2.5z"/>
						<path id="Layer" class="s4" d="m146.8 75v28.6c0 0.3-0.2 0.6-0.6 0.9-0.2-7.2-0.6-29.2-0.3-31.6 0.5-3.7 3.6-3.3 3.6-3.3-1.8 0.3-2.7 2-2.7 5.4z"/>
						<path id="Layer" class="s15" d="m159.5 71.5c0 0 2.5 1 3.9 4.5 1.3 3.4 1.1 7.3 1.1 7.3 0 0-1.1-5.1-2.3-7.8-1.3-2.7-2.7-4-2.7-4z"/>
					</g>
					<g id="Layer">
						<path id="Layer" class="s3" d="m152.8 78.3v8.5q0 0.1-0.2 0.2c-0.1 0.1-0.4 0.1-0.5 0q-0.1-0.1-0.1-0.1c0-0.1 0-8.6 0-8.6z"/>
						<path id="Layer" class="s0" d="m152.6 78.5c-0.1 0-0.4 0-0.5 0-0.2-0.1-0.2-0.3 0-0.4 0.1-0.1 0.4-0.1 0.5 0 0.2 0.1 0.2 0.3 0 0.4z"/>
					</g>
				</g>
			</g>
			<g id="Layer">
				<path id="Layer" class="s8" d="m270.2 302.9c0 0-1.8 0.2-1.3 3.5 0.5 3.3 2 9.8 2.6 10.1 0.7 0.3 7.5 9 8.2 10.3 0.6 1.3 4.3 5 6.8 3.2 2.5-1.9 5.6-5.2 5.1-9-0.5-3.8-6.5-8-7.1-9-0.7-1-7.7-8.5-9-9.5-1.4-1-5.3 0.4-5.3 0.4z"/>
				<path id="Layer" class="s7" d="m275.5 315.2c0.2-0.5-6.9-10.3-3.9-12.7 2.9-2.4 8.6 4.8 8.6 4.8 0 0 4.8 5.1 6.9 7.2 2.2 2.2 5.1 5.2 4.6 7.5-0.5 2.3-0.2 7.8-4.2 8.5-4 0.6-6.4-2.5-6.2-5.2 0.2-2.6-5.8-10.1-5.8-10.1z"/>
				<path id="Layer" class="s12" d="m224.3 277c-1 1-4 5.2-3.5 7.8 0.5 2.7 2.1 7 5 8.3 2.8 1.3 27.5 10 31.3 15.8 3.8 5.8 13.7 6.1 13.7 6.1l-2-11.3c0 0-3.9-11.2-14.2-17.7-10.3-6.5-30.3-9-30.3-9z"/>
				<path id="Layer" class="s7" d="m208.5 300.9c0 0-5.6 0.5-6.8 0-1.2-0.5-5.1-3.2-6.3-1-2 3.6 1.2 8.2 3.3 9.3 2.2 1.2 10.3 2.3 13.4 3.3 3.2 1 8.2 3.8 10 2 1.8-1.8 1.8-1.1 1.8-5.1 0-4-4.1-6.4-4.1-6.4z"/>
				<path id="Layer" class="s8" d="m208.5 299.9c0 0-5.6 0.5-6.8 0-1.2-0.5-6.1-2.6-6.3 0-0.2 2.6 1.2 7.2 3.3 8.3 2.2 1.2 10.3 2.3 13.4 3.3 3.2 1 8.2 3.9 10 2 1.8-1.8 1.8-1.1 1.8-5.1 0-4-4.1-6.4-4.1-6.4z"/>
				<path id="Layer" class="s12" d="m192.4 248c0 0-2.5 4.3-1.5 8.1 1 3.8 14.4 37.9 14.3 39.9-0.2 2.1 1.1 3.7 3 6.1 1.8 2.5 8.6 5.3 11.6 4.3 3-1 3-3 3-3 0 0-6.2-25.9-7.8-30-1.7-4.2-15.5-35.5-22.6-25.4z"/>
				<path id="Layer" class="s14" d="m193.7 253.3c0 0 6.5 13.6 11.3 15.8 4.8 2.1 19.3 8.3 20.1 10.9 0.8 2.7 17.2 13 24 10 6.9-3.1 10-2.1 11-13 1.5-16.9-36.5-25.7-41.1-29.3-4.7-3.7-19.6-8-23.6-4.1-4 3.8-1.7 9.7-1.7 9.7z"/>
				<path id="Layer" class="s14" d="m241 260.4c0.5 0 14.6-1.5 17.4-5.9 2.9-4.5 3.9-6.7 3.9-6.7 0 0 11.7 20.3 6.5 27.9-5.2 7.6-12 10.8-12 10.8z"/>
				<path id="Layer" class="s13" d="m232.7 205.5c0 0-11.1 5.3-10.8 26.9 0.2 8.1 4.7 18.6 4.7 18.6 0 0 0.6 4.8 6.1 8.1 5.5 3.3 13.8 5.2 19.9 1.7 6.2-3.5 10.4-11.6 10.4-11.6 0 0 2.2-1.9 2.4-4.5 0.2-2.7-1.3-19.6-1.5-22.4-0.2-2.8 1.2-8.6 0.3-12.5-0.8-3.8-1.1-12.1-5.4-13.9-4.3-1.8-11-0.8-11-0.8 0 0-0.1 4.3-5.5 7.8-5.3 3.5-9.6 2.6-9.6 2.6z"/>
				<path id="Layer" class="s17" d="m183.9 214.4c0 0 0.5 1.7 1.7 2.7 1.2 1 8.1 8.8 9.2 11.6 1.1 2.9 6.6 7.7 7.9 7.5 1.3-0.1 2.4-7.5 2.4-7.5 0 0 3.9-1.3-1.2-5.1-5.2-3.8-13.3-10.3-14-11.4-0.6-1.2-1.6-7-1.6-7l-3-4.8c0 0-2.2-1.7-2.7-2.7-0.5-1-1.6-0.8-1.5 1.4 0.2 2.1 1.2 2.7 1.2 2.7l0.8 4.2-6.1-2.1-4-4.3c0 0-0.5-2.1-1.1-2.8-0.5-0.7-1.2-0.7-1.1 0.2 0 1 0 3.8 0 3.8 0 0-0.1 0.1 0 1.1 0 0.9 0.8 1.7 0.8 1.7 0 0-0.5 0.4-0.2 1.3 0.4 0.8 0.8 1.5 0.8 1.5 0 0 0.2 2.1 0.6 3.1 0.4 0.9 1.3 1.5 1.3 1.5z"/>
				<path id="Layer" class="s8" d="m208.3 226.1c0 0-5.3 6.5-2.3 11.1 3 4.7 19.1-3.1 23.1-7.3 4-4.1 5.9-8.4 4-14.8-2-6.3-3.2-8.5-7.2-4.8-3.9 3.8-17.6 15.8-17.6 15.8z"/>
				<path id="Layer" class="s6" d="m207.9 229.6l0.4-3.5c0 0-1.7-3.8-4.1 0-2.4 3.8-5 9.7-2.5 12.5 2.5 2.9 6.6 0.5 6.6 0.5z"/>
				<path id="Layer" class="s18" d="m229.1 189.7c0.2 0.6 1.9 13 1.9 13 0 0 8.3 1.6 10.9-0.8 2.7-2.4 4.2-7.7 4.2-7.7 0 0-1.7-1.2-1.8-2.3 0-1.1 0.1-5.8 0.1-5.8z"/>
				<path id="Layer" class="s6" d="m231 202.7l-2 5.8c0 0 6-0.7 9.3-1.6 3.3-0.9 7.1 0 9.1-4.2 2-4.2 2-7.9 2-7.9l-3.6-2.1c0 0-1 4-4.8 6.5-3.8 2.4-10 3.5-10 3.5z"/>
				<path id="Layer" class="s14" d="m221.6 179.2l-0.1-5.6c0 0-0.6-2.9 1.8-4.1 2.4-1.2 3.2-4.7 5.8-4.8 2.6-0.1 6.1 1.8 7.2 1.3 1.1-0.4 5.9-1.1 7.8 1.6 2 2.6 2.6 3.4 3.1 4.4 0.4 1 4.4 3.9 4.2 6-0.2 2.1-2.9 6.3-2.2 8.3 0.6 2-0.9 4.3-2 4.7-1.2 0.5-3.4 3.3-3.4 3.3 0 0-1.1 0-3.5 0.6-2.4 0.5-4 2.2-5.7 1.8-1.8-0.3-3.9-1-3.8-1.1 0-0.1-1.6-1.3-2-1.6-0.4-0.4-1.6-1.7-1.6-2.5 0-0.8-0.1-3.3-1.5-4.1-1.4-0.9-1.2-1.4-1.4-2.6-0.2-1.2-2.7-5.6-2.7-5.6z"/>
				<path id="Layer" class="s17" d="m221.5 173.6c0 0-1.2 6.4-1 7.5 0.1 1 1.8 1.2 1 2.6-0.9 1.4-0.7 3.5 0.2 4.9 0.9 1.4 1.8 6.5 2.2 7.4 0.3 0.9 3 1.7 4.8 1.3 1.8-0.4 2.8-1.4 2.8-1.4l-2.5-2.6c0 0 1.2-2 0.8-3.9-0.4-1.9-1.5-3.2-2.4-3.1-0.8 0.2-1.2 0.4-1.2 0.4 0 0-2.3-0.9-2-4.3 0.3-3.4-1.4-4.6-1.8-5.7-0.4-1.1-0.9-3.1-0.9-3.1z"/>
			</g>
			<g id="Layer">
				<g id="Layer">
					<g id="Layer">
						<path id="Layer" class="s11" d="m163.3 295.4v42l46.8 27v-42l-13.1-7.5v7.1l-20.2-11.7v-7.1z"/>
						<path id="Layer" class="s9" d="m150.2 303.4v17.2q0 1.4 0.6 2.6l0.7 1.6 0.2 9.8c-1 1-1.5 2.4-1.5 3.8v7l45.7 26.4c0.5 0.3 2.8 0.2 2.8-0.4l-1.7-41-13-7.5v7.1l-20.2-11.7v-7.1z"/>
						<g id="Layer">
							<path id="Layer" class="s11" d="m193.7 319.1v-2.8l-4 2.4v2.7z"/>
							<path id="Layer" class="s10" d="m168.5 309v-2.9l21.2 12.6v2.7z"/>
							<path id="Layer" class="s2" d="m193.7 316.3l-21.4-12.3c0 0-1.4 0.5-1.9 0.8-0.5 0.2-1.9 1.3-1.9 1.3l21.2 12.6z"/>
						</g>
						<path id="Layer" class="s2" d="m190.5 317.4c1.5-0.9 6.5-2.5 6.5-2.5l13.1 7.5-13.1 8-13-7.5c0 0 4.7-4.4 6.5-5.5z"/>
						<g id="Layer">
							<path id="Layer" class="s11" d="m209 365.5l-10.8 6.2c-0.5 0.3-1.2 0-1.2-0.6v-40.7l4.3-4 4.5-2.5 4.3-1v40.7c0 0.8-0.5 1.5-1.1 1.9z"/>
							<path id="Layer" class="s11" d="m206.4 322.9l-2.2 46h-0.6v-44.8l2.2-1.2z"/>
							<path id="Layer" class="s11" d="m203.5 324.6l-2.2 46.1h-0.5v-44.8l2.2-1.3z"/>
							<path id="Layer" class="s10" d="m206.4 367.6l-2.2 1.3v-44.8l2.2-1.2z"/>
							<path id="Layer" class="s10" d="m203.5 369.4l-2.2 1.3v-44.8l2.2-1.3z"/>
						</g>
						<path id="Layer" class="s2" d="m162.1 322l22.7 13c0.3 0.2 0.5 0 0.5-0.4 0-0.4-0.2-0.9-0.5-1.1l-22.7-13.1c-0.3-0.1-0.6 0-0.6 0.5 0 0.4 0.3 0.9 0.6 1.1z"/>
						<path id="Layer" class="s2" d="m162.1 324.4l22.7 13.1c0.3 0.2 0.5 0 0.5-0.4 0-0.5-0.2-1-0.5-1.1l-22.7-13.1c-0.3-0.2-0.6 0-0.6 0.4 0 0.4 0.3 0.9 0.6 1.1z"/>
						<path id="Layer" class="s2" d="m162.1 326.8l22.7 13.1c0.3 0.2 0.5 0 0.5-0.4 0-0.4-0.2-0.9-0.5-1.1l-22.7-13.1c-0.3-0.2-0.6 0-0.6 0.4 0 0.5 0.3 1 0.6 1.1z"/>
						<path id="Layer" class="s2" d="m162.1 329.3l22.7 13.1c0.3 0.1 0.5 0 0.5-0.5 0-0.4-0.2-0.9-0.5-1.1l-22.7-13c-0.3-0.2-0.6 0-0.6 0.4 0 0.4 0.3 0.9 0.6 1.1z"/>
						<path id="Layer" class="s2" d="m162.1 343.9l22.7 13.1c0.3 0.2 0.5 0 0.5-0.4 0-0.4-0.2-0.9-0.5-1.1l-22.7-13.1c-0.3-0.2-0.6 0-0.6 0.4 0 0.5 0.3 0.9 0.6 1.1z"/>
						<path id="Layer" class="s2" d="m162.1 346.4l22.7 13c0.3 0.2 0.5 0 0.5-0.4 0-0.4-0.2-0.9-0.5-1.1l-22.7-13.1c-0.3-0.1-0.6 0-0.6 0.5 0 0.4 0.3 0.9 0.6 1.1z"/>
						<path id="Layer" class="s2" d="m162.1 348.8l22.7 13.1c0.3 0.2 0.5 0 0.5-0.4 0-0.5-0.2-0.9-0.5-1.1l-22.7-13.1c-0.3-0.2-0.6 0-0.6 0.4 0 0.4 0.3 0.9 0.6 1.1z"/>
						<path id="Layer" class="s2" d="m162.1 351.2l22.7 13.1c0.3 0.2 0.5 0 0.5-0.4 0-0.4-0.2-0.9-0.5-1.1l-22.7-13.1c-0.3-0.2-0.6 0-0.6 0.5 0 0.4 0.3 0.9 0.6 1z"/>
						<path id="Layer" class="s11" d="m162.3 321.7l22.7 13.1c0.3 0.1 0.5 0 0.5-0.5 0-0.4-0.2-0.9-0.5-1.1l-22.7-13c-0.3-0.2-0.6 0-0.6 0.4 0 0.4 0.3 0.9 0.6 1.1z"/>
						<path id="Layer" class="s11" d="m162.3 324.1l22.7 13.1c0.3 0.2 0.5 0 0.5-0.4 0-0.4-0.2-0.9-0.5-1.1l-22.7-13.1c-0.3-0.2-0.6 0-0.6 0.4 0 0.4 0.3 0.9 0.6 1.1z"/>
						<path id="Layer" class="s11" d="m162.3 326.6l22.7 13c0.3 0.2 0.5 0 0.5-0.4 0-0.4-0.2-0.9-0.5-1.1l-22.7-13.1c-0.3-0.1-0.6 0-0.6 0.5 0 0.4 0.3 0.9 0.6 1.1z"/>
						<path id="Layer" class="s11" d="m162.3 329l22.7 13.1c0.3 0.2 0.5 0 0.5-0.4 0-0.5-0.2-1-0.5-1.1l-22.7-13.1c-0.3-0.2-0.6 0-0.6 0.4 0 0.4 0.3 0.9 0.6 1.1z"/>
						<path id="Layer" class="s11" d="m162.3 343.6l22.7 13.1c0.3 0.2 0.5 0 0.5-0.4 0-0.4-0.2-0.9-0.5-1.1l-22.7-13.1c-0.3-0.2-0.6 0-0.6 0.5 0 0.4 0.3 0.9 0.6 1z"/>
						<path id="Layer" class="s11" d="m162.3 346.1l22.7 13.1c0.3 0.2 0.5 0 0.5-0.5 0-0.4-0.2-0.9-0.5-1l-22.7-13.1c-0.3-0.2-0.6 0-0.6 0.4 0 0.4 0.3 0.9 0.6 1.1z"/>
						<path id="Layer" class="s11" d="m162.3 348.5l22.7 13.1c0.3 0.2 0.5 0 0.5-0.4 0-0.4-0.2-0.9-0.5-1.1l-22.7-13.1c-0.3-0.2-0.6 0-0.6 0.4 0 0.5 0.3 0.9 0.6 1.1z"/>
						<path id="Layer" class="s11" d="m162.3 351l22.7 13.1c0.3 0.1 0.5-0.1 0.5-0.5 0-0.4-0.2-0.9-0.5-1.1l-22.7-13.1c-0.3-0.1-0.6 0.1-0.6 0.5 0 0.4 0.3 0.9 0.6 1.1z"/>
						<path id="Layer" class="s11" d="m151.7 334.6l45.3 26.1v-9.6l-45.5-26.3z"/>
						<path id="Layer" class="s11" d="m196.2 360.1l0.8 2.6v-13.9l-1.1 1.7z"/>
					</g>
					<path id="Layer" class="s2" d="m156.8 297.9c1.5-0.9 6.5-2.5 6.5-2.5l13 7.5c0 0-4.3 0.9-5.9 1.9-3.3 1.9-7.1 6.1-7.1 6.1l-13.1-7.5c0 0 4.8-4.4 6.6-5.5z"/>
				</g>
			</g>
		</g>
		<g id="Layer">
			<path id="Layer" class="s13" d="m278.5 229.4c0 0-2.7 11.2 1.6 12.2 4.4 1 7.1-4.9 11.4-6.7 4.4-1.9 29-16.1 29-16.1 0 0 7.2-10 3.6-13.2-3.6-3.2-9.3-2.3-15.2 0-5.9 2.4-30.4 23.8-30.4 23.8z"/>
			<path id="Layer" class="s3" d="m351.7 202.4c0 0 4.7-2.1 6.5 1.1 1.9 3.3 1.9 11.2 1.9 11.2l-1.2 3c0 0 1.3 10 0.3 12.2-1 2.1-4.5 5.5-7.5 5.9-3 0.4-6.7-0.9-4.8-3.9 1.8-3 4-8.6 3.1-14.6-0.8-6-1.4-13.1 1.7-14.9z"/>
			<path id="Layer" class="s13" d="m327.6 234.4c1.7-1.5 20.9-31.8 24.3-30.9 3.4 1 3.4 8.6 3.4 12.2 0 3.5-5.4 17.3-8.9 21.5-3.6 4.2-12.9 20.8-18.8 22.3-5.8 1.5-5.5 3.1-9.3 1.5-3.9-1.7-3.9-11.7-3.9-15.6 0-3.8 13.2-11 13.2-11z"/>
			<g id="Layer">
				<path id="Layer" class="s17" d="m288.9 156.7c0 0-3 3.2-4.2 5.7-1.2 2.5-5.7 13.3-6.3 14.5-0.7 1.1-0.3 4-0.7 6.6-0.4 2.6-0.7 4 0 5.2 0.7 1.3 2.2 3.6 3.1 3.8 1 0.1 2.2 0.4 2.8 0.3 0.6-0.2 1.5-0.7 1.5-0.7 0 0 1-0.6 1.8-1 0.8-0.5 1.8-0.7 1.4-1.1-0.3-0.4-1.2-0.6-1.5-0.7-0.2-0.1-1.9-2.5-1.9-2.5l0.5-3.5v-4.6c0 0 8.3-7.3 10.8-11.6 2.4-4.3 2.7-6.4 2.7-6.4 0 0-8.9-5.3-10-4z"/>
				<path id="Layer" class="s14" d="m304.6 125.9c0 0-4.4-1.5-5.9 3-1.5 4.5-2.2 15-4 16.5-1.9 1.5-4.9 10.4-4.9 10.4 0 0 0.7 3.8 4.2 5.1 3.5 1.2 6-0.4 6.2-0.7 0.2-0.2 5-5.1 7-9.5 2-4.4 5.4-22.3-2.6-24.8z"/>
				<path id="Layer" class="s8" d="m294.4 157.4c0 0-2-1.2-2.6-3.4-0.5-2.1-0.2-2.9-0.2-2.9 0 0-2.3 1.2-2.9 2.8-0.6 1.6-0.4 3.9 0.7 5.5 1.2 1.5 3.8 4.4 6.6 4.3 2.9-0.2 5-1.7 6.1-3.5 1.1-1.7 1-3.3 1-3.3 0 0-4.2 3.1-8.7 0.5z"/>
			</g>
			<path id="Layer" class="s8" d="m315.7 179.4c-2.3 1.8-28.6 22.2-34.9 35.3-6.4 13.2-9.2 20.5-6.5 23.2 2.7 2.7 4.7 4.7 8.4 1 3.6-3.7 14.3-16.1 20-20.1 5.7-4 18.7-11.5 18.7-11.5 0 0-7.6 36.6-8.5 40.8-0.8 4.2-1.2 11.3 2.9 12.5 4 1.3 6.8 2.2 9.3 0 2.5-2.1 8.9-23.2 12.1-28.9 3.1-5.7 11-21.9 12-28.2 1-6.2 0-20.3 0-20.3z"/>
			<path id="Layer" class="s13" d="m304.6 139.1c0 0-3.2 16.9 0 20.9 3.1 4 6.9 8.8 6.9 8.8 0 0-2 4.9 0 7.4 1.9 2.5 2.5 4 10.9 7.7 8.4 3.7 9.9 9 17.6 6.8 7.7-2.1 9.6-5.1 9.6-5.1 0 0 0.7-7.1 0-8.4-0.6-1.3-2.1-7.5-2.1-8.4 0-0.8 2.9-19.5-1.1-22.7-4.1-3.2-20.1-16.4-24.8-16.7-4.7-0.3-14.7-1-17 9.7z"/>
			<path id="Layer" class="s15" d="m309.1 136.7c0 0-1.7 7.2 0 11.5l3.7 9.2c0 0 5.6-3.7 8.2-5.4 7.1-4.7 7.1-13.1 5.5-15.3-1.5-2.1-14.7-8.5-17.4 0z"/>
			<path id="Layer" class="s17" d="m307.2 137.6c0 0 4.5 9.2 7.2 10.3 2.7 1.2 7.9-1.2 9.4-4.3 1.5-3.2 1.3-6.9 1.3-6.9l-2.2-5.1z"/>
			<path id="Layer" class="s6" d="m304.6 147.4h2.6l-2.6-3.7c0 0-0.8-5.1 2.6-8 3.5-3 4.2-2.2 4.2-2.2 0 0-2.3 10-2.2 12.8 0.2 2.8 3.6 11.1 3.6 11.1z"/>
			<path id="Layer" class="s6" d="m312.8 157.4c0.3 0 13-2.4 13.7-2.4 0.8 0-2.9-2.7-2.9-2.7h6.2c0 0 5.5-13.2 2.5-17-2.9-3.8-10.9-6.4-12.4-6.4-1.6 0-3.8 2.8 0.4 4.5 4.2 1.7 6.6 6.6 5.7 10.1-0.9 3.5-13.2 13.9-13.2 13.9z"/>
			<path id="Layer" class="s6" d="m311.5 155.8c0 0-1 7.2-0.4 9.4 0.6 2.3 2.2 4 2.2 4l2.9 1.3c0 0-1.9-3.2-2.7-4.4-1.6-2.3-0.7-8.7-0.7-8.7z"/>
			<path id="Layer" class="s6" d="m317.3 171.9c0 0-0.5 1.4 0 2.5 0.6 1.2 0.6 1.4 0.6 1.9 0 0.5-0.9 1.4-0.8 3.2 0.1 1.9 0.8 2.3 0.8 2.3l2.5 1.2c0 0-1.6-3.4-0.8-4.3 0.8-0.9 1.2-1.2 0.8-2.1-0.5-0.9-1.3-1.2-0.9-1.8 0.4-0.6 0.4-1.5 0.4-1.5 0 0-1.9-1.4-2.6-1.4z"/>
			<path id="Layer" class="s12" d="m307.8 123.5l-1.8-6.2c0 0-0.2-5.6 5.8-7.2 6-1.6 13.8-0.7 16.8 3.2 3 3.8 2.5 12.1 1.1 14.2-1.3 2.2-4.4 5-5.1 4.9-0.6-0.1-4.4 0.5-5.1 0.6-0.7 0.2-11.7-9.5-11.7-9.5z"/>
			<path id="Layer" class="s19" d="m306 117.3c0 0-1.2 8.3-1.4 8.6-0.3 0.2-1.5 4.8-1.5 6 0 1.2 0.8 5.3 0.7 6.7-0.1 1.4-0.2 3 1.6 3.6 1.7 0.6 1.3 1.3 4.1 0.9 2.8-0.3 8-2.4 10-3.7 2-1.2 2.4-3.2 2.4-3.2 0 0-0.5 0.6 1.1 0 1.6-0.7 4.6-2.8 4.4-4.2-0.3-1.4-0.2-2.4-1.8-1.7-1.6 0.7-3.2 1.6-3.2 1.6 0 0-2.3-3.9-3.6-4.6-1.2-0.8-4.6-5.4-5.3-6.4-0.7-0.9-7.5-3.6-7.5-3.6z"/>
			<g id="Layer">
				<path id="Layer" class="s6" d="m307.3 118c0 0-10.5 6.3-10.1 7.8 0.4 1.4 10.4 5.6 12.8 5.1 2.4-0.5 14.1-6.4 14.1-6.4 0 0-7.7-1.1-12.3-3.1-2.5-1.2-4.5-3.4-4.5-3.4z"/>
				<path id="Layer" class="s8" d="m305 119.5c0 0-1.5-8.8 5.5-12.2 7.1-3.5 11.9-1.6 11.9-1.6 0 0 8.8 2.4 10.1 11.8 0.9 7-2.2 9.8-2.2 9.8 0 0-6.4-0.6-13.5-1.8-12-1.9-11.8-6-11.8-6z"/>
			</g>
			<path id="Layer" class="s8" d="m338.6 152.9c0 0 2.1-7.1 7.8-4.7 5.6 2.5 1.1 38.5-0.2 42.4-1.1 3.6-6.2 6.3-7.1 5.2-0.9-1.1-6.8-6.3-5.9-11.9 0.9-5.6 3.4-14.3 3.4-15.6 0-1.4-0.6-11.4 2-15.4z"/>
			<path id="Layer" class="s6" d="m330.2 185.5c0 0 1.8-5.7 4-6.7 2.3-1.1 9.3-0.1 11.7 2.8 2.5 3 4.1 6.9 0.9 11.2-3.3 4.3-2.7 7.1-7.4 4.8-4.7-2.3-10.6-8.6-9.2-12.1z"/>
			<g id="Layer">
				<g id="Layer">
					<path id="Layer" class="s12" d="m280.7 185.3l2.6 0.1c0.2 0 0.5-0.2 0.7-0.5 0.3-0.5 0.2-0.9-0.1-1l-1.7-0.4z"/>
					<path id="Layer" class="s3" d="m280.4 185.3c0 0 0.8-0.3 0.8 0.3 0 0.6 0 1 0 1h-0.8v1.6l-0.9 0.3c0 0-0.3 1.4-0.4 1.5-0.2 0.1-0.5-0.5-0.5-0.5 0 0-0.8 1.4-0.9 1.5 0 0.1-0.3-0.5-0.3-0.5z"/>
					<g id="Layer">
						<g id="Layer">
							<path id="Layer" class="s2" d="m281.8 182.2c-1.4 1.1-2.8 1.8-4.3 2.4-1.3 0.6-2.6 1.9-3.4 3.6-0.7 1.4-1 2.7-1.1 4l-0.1 0.1c-0.1 1.3-0.9 2.7-2 3.3-0.5 0.3-1 0.3-1.4 0.1l-0.6-0.3c-0.2-0.2-0.5 0.2-0.5 0.5 0.3 2.5 2.7 3.9 5 2.6l1.6-1.9c2-1.1 3.6-3.9 3.6-6.1-0.1-1.9 1-4.3 2.7-5.7l3.7-2.8c-0.2-0.6-1.3-0.8-1.8-0.9-0.1 0-1.3 1.1-1.4 1.1z"/>
							<path id="Layer" class="s14" d="m288.6 176.5c-1.4 0.3-4.7 4-6.5 5.5 0.5-0.1 0.6-0.1 0.8 0.5l5.2-3.4c0 0 2.1-1.1 2.2-1.2 0.2-0.1-0.3-1.7-1.7-1.4z"/>
						</g>
						<g id="Layer">
							<path id="Layer" class="s11" d="m282.5 188.2c-1 0.7-1.3 1.8-3.1 2.9-0.5 0.3-2.5-0.1-3.1 1.5-0.4 1.1-0.7 2.8 2.1 1.7 2.6-1 3.1-3 4.4-4 0.1-0.8 0.2-1.6 0.3-2.4q-0.3 0.1-0.6 0.3z"/>
							<path id="Layer" class="s14" d="m289.7 184.6c-0.5 0.1-1.6 1.5-1.8 1.7-0.2 0.3-2.9 0.6-4.8 1.6-0.1 0.8-0.2 1.6-0.3 2.4q0.2-0.2 0.4-0.3c0.8-0.5 5.9-1.9 7.3-4.3 0.5-0.7-0.2-1.1-0.8-1.1z"/>
						</g>
						<path id="Layer" class="s12" d="m277.7 193.2c-0.1 0.1-0.3 0-0.3-0.1 0-0.2 0.2-0.5 0.3-0.6 0.2 0 0.3 0 0.3 0.2 0 0.2-0.1 0.4-0.3 0.5z"/>
						<path id="Layer" class="s12" d="m282.1 190c0 0.2-0.1 0.3-0.2 0.4-0.2 0.1-0.3 0-0.3-0.1 0-0.2 0.1-0.3 0.3-0.4 0.1-0.1 0.2 0 0.2 0.1z"/>
					</g>
				</g>
				<g id="Layer">
					<path id="Layer" class="s14" d="m279.5 188.7c0 0 1.4-0.5 1.4 0.9 0 1.3-1.2 3-1.4 2.6-0.1-0.4-0.7 0.3-0.4-0.2 0.3-0.4 0.3-2.4 0.2-2.6-0.2-0.3 0.2-0.7 0.2-0.7z"/>
					<path id="Layer" class="s12" d="m279.8 188.9c0 0 1.4-0.5 1.4 0.9 0 1.3-1.2 2.9-1.4 2.6-0.1-0.4-0.7 0.3-0.4-0.2 0.3-0.5 0.3-2.4 0.2-2.6-0.2-0.3 0.2-0.7 0.2-0.7z"/>
				</g>
				<g id="Layer">
					<path id="Layer" class="s14" d="m283.1 184.9l-1.9 5.4 0.3 0.2 2.5-5.8c0 0-0.1-1.2-0.9 0.2z"/>
					<path id="Layer" class="s12" d="m283.4 185.2l-1.9 5.3 0.7-0.6 1.8-4.8c0 0 0.2-1.4-0.6 0.1z"/>
				</g>
				<g id="Layer">
					<path id="Layer" class="s12" d="m281.5 185.7l2.6 0.2c0.2 0 0.5-0.2 0.7-0.6 0.6-0.7-0.4-1.3-0.7-1.3h-1.1z"/>
					<path id="Layer" class="s3" d="m280.8 185.5c0 0 0.8-0.2 0.8 0.4 0 0.6 0 1 0 1h-0.8v1.6l-0.9 0.3c0 0-0.3 1.4-0.4 1.5-0.1 0.1-0.5-0.6-0.5-0.6 0 0-0.8 1.5-0.9 1.6 0 0-0.3-0.5-0.3-0.5z"/>
					<g id="Layer">
						<g id="Layer">
							<path id="Layer" class="s11" d="m282.6 182.7c-1.4 1.1-2.8 1.8-4.3 2.4-1.3 0.5-2.7 1.9-3.5 3.6-0.6 1.3-1 2.7-1.1 3.9v0.2c-0.1 1.2-1 2.6-2 3.2-0.5 0.3-1 0.4-1.4 0.2l-0.6-0.4c-0.2-0.1-0.6 0.3-0.5 0.6 0.3 2.4 2.2 3.3 4.5 1.9l2.1-1.2c2-1.1 3.6-3.9 3.5-6.2 0-1.9 1.1-4.3 2.8-5.6l1.4-1.3c-0.2-0.5-0.4-1.1-0.6-1.5q-0.2 0.1-0.3 0.2z"/>
							<path id="Layer" class="s12" d="m289.3 177c-1.3 0.3-4.7 4-6.4 5.5 0.2 0.4 0.4 1 0.6 1.5l5.3-4.4c0 0 1.5-0.3 1.6-0.4 0.1-0.1 0.4-2.5-1.1-2.2z"/>
						</g>
						<g id="Layer">
							<path id="Layer" class="s10" d="m283.3 188.7c-1 0.7-1.3 1.8-3.1 2.9-0.5 0.3-2.5-0.2-3.1 1.5-0.5 1-0.8 2.8 2.1 1.7 2.6-1 3-3 4.3-4.1 0.1-0.7 0.2-1.6 0.3-2.3q-0.2 0.1-0.5 0.3z"/>
							<path id="Layer" class="s12" d="m290.5 185.1c-0.5 0.1-1.6 1.4-1.9 1.7-0.2 0.3-2.9 0.5-4.8 1.6-0.1 0.7-0.2 1.6-0.3 2.3q0.2-0.1 0.4-0.2c0.9-0.5 3.7-1 5.8-2.2 0.7-0.5 1.3-3.2 0.8-3.2z"/>
						</g>
						<path id="Layer" class="s12" d="m278.5 193.7c-0.2 0.1-0.3 0-0.3-0.2 0-0.2 0.1-0.4 0.3-0.5 0.1-0.1 0.3 0 0.3 0.2 0 0.2-0.2 0.4-0.3 0.5z"/>
						<path id="Layer" class="s12" d="m282.9 190.5c0 0.1-0.1 0.3-0.3 0.4-0.1 0.1-0.2 0-0.2-0.2 0-0.1 0.1-0.3 0.2-0.4 0.2 0 0.3 0 0.3 0.2z"/>
						<path id="Layer" class="s12" d="m277.4 188.7c0 0.7-0.5 1.4-1.1 1.8-0.5 0.3-1 0-1-0.6 0-0.7 0.5-1.4 1-1.8 0.6-0.3 1.1 0 1.1 0.6z"/>
					</g>
				</g>
				<path id="Layer" class="s10" d="m279.3 184.3c-0.2-0.2-0.9 0.2-1.4 0.4-1.3 0.5-2.6 1.9-3.4 3.6-0.7 1.4-1.1 2.7-1.2 4v0.1c-0.1 1.2-0.9 2.7-2 3.3-0.5 0.3-0.9 0.2-1.3 0.2 0 0 2.4 0.9 3.4-3 0.4-1.4 0.3-3.1 1.8-5.4 0 0 1-1.3 1.9-1.9 0.4-0.3 2.3-1.1 2.2-1.3z"/>
				<g id="Layer">
					<path id="Layer" class="s0" d="m275.4 187.3q-0.2 0.2-0.2 0.2-0.1 0.2-0.2 0.3-0.3 0.6-0.6 1.2l-0.4 0.5-5.2 5.8-0.3-0.1c0 0 0-3.4 3.1-5.5q2-1.3 3.2-2 0.3-0.2 0.6-0.4z"/>
					<path id="Layer" class="s3" d="m275 187.8q-0.3 0.6-0.6 1.2c-0.6 1.4-0.7 2.5-0.9 3.5 0 0-0.2 0.1-0.2 0.1l-4.5 2.7c0 0-0.1-3.4 3.1-5.5q1.6-1 2.7-1.7 0.2-0.2 0.4-0.3z"/>
				</g>
			</g>
			<g id="Layer">
				<path id="Layer" class="s0" d="m301.5 155.4c0 0.6 0.3 1.4 0.8 1.7l5.1 3.5c0.1 0-0.3 2-0.6 3.9q-0.7 3.4-1 7.1l1-0.5q0.3-3.7 1-7.1c0.4-1.9 0.8-3.9 0.7-3.9l-2-1.4q0 0.1 0 0.3 0.2 0.2 0.4 0.5l1.2 0.9-0.2 1.5q0 0.2-0.1 0.3v0.5l-0.4 0.2 0.1-0.7v-0.2-0.4l0.1-0.5 0.1-0.5-0.5-0.4-0.4-0.2-2.8-1.9-0.8-0.6c-1.7-1.1-1.4-2.4-1.4-2.4l0.5-0.3c-0.1 1-0.2 1.5 1.2 2.5l0.5 0.3 0.1-0.5-0.7-0.5c-0.5-0.3-0.9-1.1-0.8-1.7l0.1-3.1-1.9 0.9q-0.1 0-0.1 0l0.9-0.4z"/>
				<path id="Layer" class="s2" d="m304.7 186.6c-0.1 0.6-0.3 0.9-0.6 1.1q-0.3 0.1-0.6 0c0.4 0.3 1.4-0.4 1.7-0.5 0.3-0.2 0.5-0.5 0.5-1.1l1.1-15-1 0.5z"/>
				<path id="Layer" class="s3" d="m303.8 167.2c0.1-1.3-0.4-3-1.3-4.4l-1.6-2.6c-1-1.5-1.6-3.4-1.5-5q0.1-0.9 0.5-1.6 0.3-0.6 0.8-0.9l-0.9 0.5q-0.6 0.3-1 0.9-0.4 0.7-0.4 1.6c-0.1 1.6 0.4 3.5 1.4 5l1.7 2.7c0.9 1.3 1.3 3 1.2 4.3l-0.1 1.7 1 0.7z"/>
				<path id="Layer" class="s10" d="m303.5 187.7c-0.9-0.6-1-2.7-0.9-3.8l1-13.8-1-0.7-1.1 15.1c-0.1 1 0.6 2.4 1.5 3q0.2 0.2 0.5 0.2z"/>
				<path id="Layer" fill-rule="evenodd" class="s3" d="m300.7 152.7l1-0.4-0.2 3.1c0 0.6 0.3 1.4 0.8 1.7l5.1 3.5c0.1 0-0.2 2-0.6 3.9q-0.7 3.4-1 7.1l-2.2-1.5 0.2-2.9c0.1-1.3-0.4-3-1.3-4.4l-1.6-2.6c-1-1.5-1.6-3.4-1.5-5q0.1-0.9 0.5-1.6 0.3-0.6 0.8-0.9zm2.7 8.2q-0.1-0.1-0.2-0.1c-0.3-0.2-0.5 0-0.5 0.3 0 0-0.1 0.6-0.1 0.6v0.7c-0.1 0.3 0.1 0.6 0.3 0.9q0.1 0.2 0.3 0.3l1.2 0.9q0.1 0 0.1 0 0.3 0.2 0.5 0 0.1 0 0.2-0.1c0-0.1 0-0.1 0-0.3v-0.5l0.1-0.7q0-0.3-0.1-0.6-0.2-0.2-0.3-0.4-0.1-0.1-0.3-0.2z"/>
				<path id="Layer" class="s10" d="m304.1 187.7c0.3-0.2 0.5-0.5 0.6-1.1l1.1-15-2.2-1.5-1 13.8c-0.1 1.1 0 3.2 0.9 3.8q0.3 0.1 0.6 0z"/>
				<path id="Layer" class="s3" d="m305.9 157.1c-0.2-0.8-0.6-1.7-1.1-2.5l-0.5-0.6-0.2 3.1 2.1 1.4q0-0.7-0.3-1.4z"/>
				<path id="Layer" class="s3" d="m304 158.1l2.8 1.9q-0.2-0.4-0.4-0.7-0.1-0.2-0.1-0.3 0-0.2-0.1-0.5l-2.1-1.4-0.1 0.5z"/>
				<path id="Layer" class="s8" d="m303.5 157.3c-1.4-1-1.3-1.5-1.2-2.5l-0.5 0.3c0 0-0.3 1.3 1.4 2.4l0.8 0.6v-0.5z"/>
				<path id="Layer" class="s0" d="m305.9 157.1q0.3 0.7 0.3 1.4l0.3 0.2q-0.1-0.8-0.3-1.6c-0.3-0.9-0.7-1.8-1.2-2.5l-0.5-0.7-0.2 0.1 0.5 0.6c0.5 0.8 0.9 1.7 1.1 2.5z"/>
				<path id="Layer" class="s0" d="m306.3 159q0 0.1 0.1 0.3 0.2 0.3 0.4 0.7l0.4 0.2q-0.2-0.3-0.3-0.7-0.2-0.3-0.4-0.5 0-0.2 0-0.3l-0.3-0.2q0.1 0.3 0.1 0.5z"/>
				<path id="Layer" class="s0" d="m307.5 161.6q0.2 0.4 0.2 0.5 0 0.1-0.1 0.1c0.1 0.1 0.2 0 0.2 0q0.1-0.1 0.1-0.3c-0.1-0.2-0.2-0.5-0.3-0.8z"/>
				<path id="Layer" class="s8" d="m307.7 160.6l-0.1 0.5c0.1 0.3 0.2 0.6 0.3 0.8l0.2-1.5-1.2-0.9q0.1 0.4 0.3 0.7z"/>
				<path id="Layer" class="s8" d="m307.6 162.2q0 0.1-0.1 0l-0.1 0.7 0.4-0.2v-0.5c0 0-0.1 0.1-0.2 0z"/>
				<path id="Layer" class="s3" d="m307.7 162.1q0-0.1-0.2-0.5v0.4 0.2h0.1q0.1 0 0.1-0.1z"/>
				<path id="Layer" class="s3" d="m307.6 162.2h-0.1q0.1 0.1 0.1 0z"/>
				<path id="Layer" fill-rule="evenodd" class="s0" d="m303.2 160.8q0.1 0 0.2 0.1c0 0 1.2 0.8 1.3 0.8q0.1 0.1 0.2 0.2 0.1 0.2 0.3 0.4 0.1 0.3 0.1 0.6l-0.1 0.7c0 0 0 0.5 0 0.6q0 0.1 0 0.2-0.1 0.1-0.2 0.2-0.2 0-0.5-0.1 0 0-0.1 0c0 0-1.2-0.9-1.2-0.9q-0.2-0.1-0.3-0.3c-0.2-0.2-0.4-0.6-0.3-0.9 0 0 0-0.7 0-0.7v-0.6c0.1-0.3 0.3-0.5 0.6-0.3zm0.2 0.4c-0.1-0.1-0.2-0.1-0.4 0q-0.1 0-0.1 0.2v0.5l-0.1 0.6c0 0.3 0.2 0.7 0.5 0.9 0 0 0.2 0.1 0.3 0.2q0 0 0.1 0.1l0.6 0.4q0 0 0 0 0.2 0.1 0.3 0.1c0.1 0 0.1 0 0.2 0q0.1-0.1 0.2-0.3c0 0 0-1 0-1 0-0.3-0.1-0.5-0.3-0.8 0-0.1-0.1-0.1-0.2-0.2 0 0-0.4-0.3-0.4-0.3 0 0-0.3-0.2-0.3-0.2 0 0-0.3-0.2-0.4-0.2z"/>
				<path id="Layer" class="s8" d="m302.9 161.4q0-0.1 0.1-0.2-0.1 0-0.1 0.2z"/>
				<path id="Layer" class="s3" d="m303.3 163.4c0 0 0.2 0.1 0.3 0.2 0 0-0.3-0.2-0.3-0.2z"/>
				<path id="Layer" class="s3" d="m303.6 163.5q-0.1-0.1-0.2-0.3 0-0.1-0.1-0.1-0.1-0.4-0.1-0.8 0-0.1 0-0.1c0-0.4 0.1-0.8 0.2-1q-0.2-0.1-0.3-0.1c-0.1 0.1-0.2 0.2-0.2 0.3v0.5l-0.1 0.6c0 0.3 0.2 0.7 0.5 0.9 0 0 0.3 0.2 0.3 0.2 0 0 0-0.1 0-0.1z"/>
				<path id="Layer" class="s0" d="m303.2 162.2q0 0 0 0.1 0 0.4 0.1 0.8 0.1 0 0.1 0 0.1 0.3 0.2 0.4-0.1 0-0.1-0.1-0.1-0.4-0.1-0.8c0-0.5 0.2-0.9 0.4-1.2 0 0-0.3-0.2-0.3-0.2-0.2 0.2-0.3 0.6-0.3 1z"/>
				<path id="Layer" class="s3" d="m303.9 162c0 0-0.1 1.3-0.1 1.3q0 0.3-0.1 0.4l0.6 0.4c0 0-0.1-0.1-0.1-0.1q-0.1-0.2-0.2-0.4 0 0 0-0.1-0.1-0.4-0.1-0.8 0 0 0-0.1c0-0.4 0.1-0.7 0.2-1l-0.3-0.2q0.1 0.3 0.1 0.6z"/>
				<path id="Layer" class="s3" d="m303.6 163.6q0 0 0-0.1c0 0 0 0.1 0 0.1z"/>
				<path id="Layer" class="s3" d="m303.8 163.4c0-0.1 0.1-1.4 0.1-1.4q0-0.3-0.1-0.6c-0.2 0.3-0.4 0.7-0.4 1.2q0 0.4 0.1 0.8 0 0.1 0.1 0.1 0 0.1 0 0.1 0.2 0 0.2-0.2z"/>
				<path id="Layer" class="s0" d="m303.9 162.7q0 0.4 0.1 0.8 0 0.1 0 0.1 0.1 0.2 0.2 0.4 0-0.1 0-0.1-0.1-0.4-0.1-0.9 0-0.1 0-0.2 0-0.1 0-0.2v-0.9c-0.1 0.2-0.2 0.5-0.2 0.9q0 0.1 0 0.1z"/>
				<path id="Layer" class="s0" d="m304.1 162.8c0-0.3 0.2-0.7 0.4-0.9 0 0-0.4-0.3-0.4-0.3v1q0 0.1 0 0.2z"/>
				<path id="Layer" class="s3" d="m304.7 164q-0.1-0.2-0.1-0.3-0.1-0.1-0.1-0.1v0.2q-0.1 0.2-0.2 0.3 0.2 0.1 0.3 0.1 0.1 0 0.2 0-0.1-0.1-0.1-0.1 0-0.1 0-0.1z"/>
				<path id="Layer" class="s3" d="m304.6 162.4c0 0-0.1 1.2-0.1 1.2q0 0 0.1 0.1-0.1-0.3-0.1-0.5 0-0.1 0-0.1c0.1-0.4 0.1-0.7 0.3-1q-0.2-0.1-0.3-0.2c0 0.2 0.1 0.4 0.1 0.5z"/>
				<path id="Layer" class="s3" d="m304.2 164c0 0 0.1 0.1 0.1 0.1q0-0.1-0.1-0.1z"/>
				<path id="Layer" class="s3" d="m304.5 163.8c0 0.2-0.2 0.3-0.2 0.3q0.1-0.1 0.2-0.3z"/>
				<path id="Layer" class="s3" d="m304.5 163.8c0 0 0-0.2 0-0.2q-0.1-0.1-0.2-0.2-0.1-0.2-0.2-0.4 0-0.1 0-0.2 0 0.1 0 0.2 0 0.5 0.1 0.9 0 0 0 0.1 0.1 0 0.1 0.1c0 0 0.2-0.1 0.2-0.3z"/>
				<path id="Layer" class="s3" d="m304.1 163q0.1 0.2 0.2 0.4 0.1 0.1 0.2 0.2l0.1-1.2q0-0.2-0.1-0.5c-0.2 0.2-0.4 0.6-0.4 0.9q0 0.1 0 0.2z"/>
				<path id="Layer" class="s0" d="m304.6 163.7q0 0.1 0.1 0.3 0 0 0 0.1 0 0 0.1 0.1 0.1-0.1 0.1-0.3l-0.2-0.1q0 0-0.1-0.1z"/>
				<path id="Layer" class="s0" d="m304.5 163.2q0 0.2 0.1 0.5 0.1 0.1 0.1 0.1l0.2 0.1c0.1 0 0.1-1 0.1-1 0-0.3-0.1-0.5-0.2-0.8-0.1 0.3-0.2 0.6-0.3 1q0 0 0 0.1z"/>
			</g>
			<path id="Layer" class="s19" d="m313.5 175.5c0 0 12.2 7 16.4 7.5 4.2 0.4 8.3 2.5 10.3 4.1 2.1 1.7 1.7 5.7 0.2 7.9-1.6 2.3-6.8 0.7-9.6 0-2.8-0.6-21.2-13.8-21.2-13.8 0 0-4-0.3-5-1.2-1.1-0.8-3.2-2-3.2-2 0 0-3-2.9-3.4-3.5-0.3-0.5-0.7-1.6-0.3-2 0.4-0.3-1.2-1.7-0.4-2.5 0.8-0.8 1.3 0 1.3 0 0 0-2-1.4-0.5-2.3 1.4-0.8 2.2-0.4 2.2-0.4 0 0-1.5-1.2-0.8-1.7 0.8-0.5 3.6-0.5 3.6-0.5l4.1 1.8 0.5-2.2c0 0 5.8 2.7 6.5 7.2 0.3 1.8-0.7 3.6-0.7 3.6z"/>
			<path id="Layer" class="s18" d="m280.7 176.1c0 0-0.9 2.5-0.5 2.8 0.5 0.3 1 3 1 3l-0.3 1.1c0 0 1.2 1.8 1.2 2.3 0 0.4 0.1 1.7 0.7 1.6 0.6 0 1.2-1 1.2-2 0-1.1-0.8-3.1-0.2-3.6 0.6-0.6 1.5-4.2 1.2-4.4-0.4-0.1-3-3.2-4.3-0.8z"/>
		</g>
	</g>
</svg>