<svg version="1.2" xmlns="http://www.w3.org/2000/svg" viewBox="0 0 450 450" width="450" height="450">
	<title>plomb3</title>
	<style>
		.s0 { fill: #c7edff } 
		.s1 { fill: #c9d6e2 } 
		.s2 { fill: #2b83c6 } 
		.s3 { fill: #e2ab91 } 
		.s4 { fill: #f47113 } 
		.s5 { fill: #fc9a5d } 
		.s6 { fill: #ffa875 } 
		.s7 { fill: #efbea3 } 
		.s8 { fill: #96c7ed } 
		.s9 { fill: #aedff7 } 
		.s10 { fill: #26466c } 
		.s11 { fill: #194d7e } 
		.s12 { fill: #1e5f99 } 
		.s13 { fill: #bbebff } 
		.s14 { fill: #ffd1b6 } 
		.s15 { fill: #f77f2c } 
		.s16 { fill: #e3f7ff } 
		.s17 { fill: #ffffff } 
		.s18 { fill: #ff813b } 
		.s19 { fill: #f46c0a } 
	</style>
	<g id="Layer">
		<g id="Layer">
			<g id="Layer">
				<g id="Layer">
					<path id="Layer" fill-rule="evenodd" class="s0" d="m195.1 252.1l-60.8-35.1 60.5-34.9 60.8 35.1zm-59.6-35.1l59.6 34.4 59.2-34.2-59.6-34.4z"/>
				</g>
				<g id="Layer">
					<path id="Layer" fill-rule="evenodd" class="s0" d="m255.3 286.8l-60.8-35.1 60.4-34.9 60.8 35.1zm-59.6-35.1l59.6 34.4 59.2-34.2-59.6-34.4z"/>
				</g>
				<g id="Layer">
					<path id="Layer" fill-rule="evenodd" class="s0" d="m315.4 321.5l-60.8-35.1 60.4-34.9 60.8 35.2zm-59.5-35.2l59.5 34.4 59.3-34.1-59.6-34.4z"/>
				</g>
				<g id="Layer">
					<path id="Layer" fill-rule="evenodd" class="s0" d="m135.5 286.6l-60.8-35.2 60.4-34.8 60.8 35.1zm-59.6-35.1l59.6 34.4 59.2-34.2-59.6-34.4z"/>
				</g>
				<g id="Layer">
					<path id="Layer" fill-rule="evenodd" class="s0" d="m195.6 321.3l-60.8-35.1 60.4-34.9 60.8 35.1zm-59.5-35.1l59.5 34.4 59.3-34.2-59.6-34.4z"/>
				</g>
				<g id="Layer">
					<path id="Layer" fill-rule="evenodd" class="s0" d="m255.7 356l-60.8-35.1 60.5-34.9 60.8 35.1zm-59.6-35.1l59.6 34.4 59.2-34.2-59.6-34.4z"/>
				</g>
				<g id="Layer">
					<path id="Layer" fill-rule="evenodd" class="s0" d="m75.8 321l-60.8-35.1 60.4-34.9 60.9 35.1zm-59.6-35.1l59.5 34.4 59.3-34.2-59.6-34.4z"/>
				</g>
				<g id="Layer">
					<path id="Layer" fill-rule="evenodd" class="s0" d="m135.9 355.7l-60.8-35.1 60.5-34.9 60.8 35.1zm-59.6-35.1l59.6 34.4 59.2-34.2-59.6-34.4z"/>
				</g>
				<g id="Layer">
					<path id="Layer" fill-rule="evenodd" class="s0" d="m196.1 390.4l-60.8-35.1 60.4-34.9 60.8 35.1zm-59.6-35.1l59.6 34.4 59.2-34.1-59.6-34.4z"/>
				</g>
			</g>
			<g id="Layer">
				<g id="Layer">
					<path id="Layer" fill-rule="evenodd" class="s0" d="m255 217.5l-60.8-35.1 60.4-34.9 60.8 35.2zm-59.5-35.2l59.5 34.4 59.3-34.1-59.6-34.4z"/>
				</g>
				<g id="Layer">
					<path id="Layer" fill-rule="evenodd" class="s0" d="m315.1 252.3l-60.8-35.1 60.5-34.9 60.8 35.1zm-59.6-35.1l59.6 34.4 59.2-34.2-59.6-34.4z"/>
				</g>
				<g id="Layer">
					<path id="Layer" fill-rule="evenodd" class="s0" d="m375.3 287l-60.8-35.1 60.4-34.9 60.8 35.1zm-59.6-35.1l59.6 34.4 59.2-34.2-59.6-34.4z"/>
				</g>
			</g>
		</g>
		<path id="Layer" class="s1" d="m152.2 303.2c-12.4 7.2-32.6 7.2-45.1 0-12.5-7.3-12.6-18.9-0.1-26.1 12.4-7.1 32.5-7.1 45 0.1 12.5 7.2 12.6 18.9 0.2 26z"/>
		<path id="Layer" class="s1" d="m373.5 284.9c-12.4 7.2-32.6 7.2-45.1 0-12.4-7.2-12.5-18.9-0.1-26.1 12.4-7.1 32.6-7.1 45.1 0.1 12.5 7.2 12.5 18.9 0.1 26z"/>
		<path id="Layer" class="s1" d="m229 147.7c2.5 15.8-10.8 39.8-40.3 12.3-10.5-9.8-22.5-62.9-10.1-70.1 12.4-7.1 32.6-7.1 45.1 0.1 12.5 7.2 3.1 43.6 5.3 57.7z"/>
		<g id="Layer">
			<g id="Layer">
				<path id="Layer" class="s2" d="m139.5 102.6c0 0 4.2-2.3 6.6-1.1 2.3 1.1 4.5 7 3.1 10.9-1.4 3.9-1.1 19.2-1.1 19.2 0 0 3.1 7.2 4 10.9 1 3.8 1.2 7.6 1.2 7.6 0 0-5.9-2-7.5 0.9-1.5 2.9-1.5 2.9-1.5 2.9 0 0-12.3-20.8-12.2-26.4 0.1-5.6 7.4-24.9 7.4-24.9z"/>
				<path id="Layer" class="s3" d="m157.8 163.1c0 0 1 5 1.4 6.9 0.5 1.9 3.2 7.8 2.3 9-0.9 1.2-4.7 5-5.9 4.1-1.3-0.8-4.8-4.1-4.9-4.5-0.1-0.5-0.5-5.8-0.8-7-0.4-1.2 1.6-5.7 1.6-5.7l-6.9-12.6c0 0 0.7-3.5 2.4-4.4 1.7-0.9 5.1 0 5.1 0 0 0 5.6 13.5 5.7 14.2z"/>
				<g id="Layer">
					<g id="Layer">
						<path id="Layer" class="s4" d="m141.2 166v29.7l33.1 19.2v-29.8l-9.2-5.3v5l-14.3-8.2v-5.1z"/>
						<path id="Layer" class="s5" d="m131.9 171.7v12.1q0 1 0.4 1.9l0.5 1.1 0.1 6.9c-0.6 0.8-1 1.8-1 2.8v4.9l32.4 18.7c0.4 0.2 2 0.1 2-0.2l-1.2-29.1-9.3-5.3v5l-14.3-8.3v-5z"/>
						<g id="Layer">
							<path id="Layer" class="s4" d="m162.7 182.8v-2l-2.8 1.7v1.9z"/>
							<path id="Layer" class="s5" d="m144.9 175.6v-2.1l15 9v1.9z"/>
							<path id="Layer" class="s6" d="m162.7 180.8l-15.1-8.7c0 0-1 0.3-1.4 0.5-0.3 0.2-1.3 0.9-1.3 0.9l15 9z"/>
						</g>
						<path id="Layer" class="s6" d="m160.5 181.5c1.1-0.6 4.6-1.7 4.6-1.7l9.2 5.3-9.2 5.7-9.3-5.3c0 0 3.4-3.2 4.7-4z"/>
						<g id="Layer">
							<path id="Layer" class="s4" d="m173.5 215.6l-7.6 4.5c-0.4 0.2-0.8-0.1-0.8-0.5v-28.8l3-2.9 3.2-1.7 3-0.7v28.8c0 0.5-0.3 1.1-0.8 1.3z"/>
							<path id="Layer" class="s4" d="m171.7 185.4l-1.6 32.6h-0.3v-31.7l1.5-0.9z"/>
							<path id="Layer" class="s4" d="m169.7 186.7l-1.6 32.6h-0.4v-31.7l1.6-0.9z"/>
							<path id="Layer" class="s5" d="m171.7 217.1l-1.6 0.9v-31.7l1.6-0.9z"/>
							<path id="Layer" class="s5" d="m169.7 218.4l-1.6 0.9v-31.7l1.6-0.9z"/>
						</g>
						<path id="Layer" class="s6" d="m140.3 184.8l16.1 9.3c0.2 0.1 0.4 0 0.4-0.3 0-0.3-0.2-0.7-0.4-0.8l-16.1-9.3c-0.2-0.1-0.4 0-0.4 0.3 0 0.3 0.2 0.7 0.4 0.8z"/>
						<path id="Layer" class="s6" d="m140.3 186.5l16.1 9.3c0.2 0.1 0.4 0 0.4-0.3 0-0.3-0.2-0.7-0.4-0.8l-16.1-9.3c-0.2-0.1-0.4 0.1-0.4 0.4 0 0.2 0.2 0.6 0.4 0.7z"/>
						<path id="Layer" class="s6" d="m140.3 188.3l16.1 9.2c0.2 0.2 0.4 0 0.4-0.3 0-0.3-0.2-0.6-0.4-0.8l-16.1-9.2c-0.2-0.2-0.4 0-0.4 0.3 0 0.3 0.2 0.6 0.4 0.8z"/>
						<path id="Layer" class="s6" d="m140.3 190l16.1 9.3c0.2 0.1 0.4-0.1 0.4-0.4 0-0.3-0.2-0.6-0.4-0.7l-16.1-9.3c-0.2-0.1-0.4 0-0.4 0.3 0 0.3 0.2 0.7 0.4 0.8z"/>
						<path id="Layer" class="s6" d="m140.3 200.4l16.1 9.2c0.2 0.2 0.4 0 0.4-0.3 0-0.3-0.2-0.6-0.4-0.8l-16.1-9.2c-0.2-0.2-0.4 0-0.4 0.3 0 0.3 0.2 0.6 0.4 0.8z"/>
						<path id="Layer" class="s6" d="m140.3 202.1l16.1 9.3c0.2 0.1 0.4-0.1 0.4-0.4 0-0.2-0.2-0.6-0.4-0.7l-16.1-9.3c-0.2-0.1-0.4 0-0.4 0.3 0 0.3 0.2 0.7 0.4 0.8z"/>
						<path id="Layer" class="s6" d="m140.3 203.8l16.1 9.3c0.2 0.1 0.4 0 0.4-0.3 0-0.3-0.2-0.7-0.4-0.8l-16.1-9.3c-0.2-0.1-0.4 0-0.4 0.3 0 0.3 0.2 0.7 0.4 0.8z"/>
						<path id="Layer" class="s6" d="m140.3 205.5l16.1 9.3c0.2 0.1 0.4 0 0.4-0.3 0-0.3-0.2-0.6-0.4-0.8l-16.1-9.2c-0.2-0.2-0.4 0-0.4 0.3 0 0.3 0.2 0.6 0.4 0.7z"/>
						<path id="Layer" class="s4" d="m140.5 184.6l16 9.3c0.3 0.1 0.4 0 0.4-0.3 0-0.3-0.1-0.7-0.4-0.8l-16-9.3c-0.2-0.1-0.4 0-0.4 0.3 0 0.3 0.2 0.7 0.4 0.8z"/>
						<path id="Layer" class="s4" d="m140.5 186.3l16 9.3c0.3 0.1 0.4 0 0.4-0.3 0-0.3-0.1-0.7-0.4-0.8l-16-9.3c-0.2-0.1-0.4 0.1-0.4 0.4 0 0.3 0.2 0.6 0.4 0.7z"/>
						<path id="Layer" class="s4" d="m140.5 188.1l16 9.2c0.3 0.2 0.4 0 0.4-0.3 0-0.3-0.1-0.6-0.4-0.8l-16-9.2c-0.2-0.2-0.4 0-0.4 0.3 0 0.3 0.2 0.6 0.4 0.8z"/>
						<path id="Layer" class="s4" d="m140.5 189.8l16 9.3c0.3 0.1 0.4-0.1 0.4-0.4 0-0.3-0.1-0.6-0.4-0.7l-16-9.3c-0.2-0.1-0.4 0-0.4 0.3 0 0.3 0.2 0.7 0.4 0.8z"/>
						<path id="Layer" class="s4" d="m140.5 200.2l16 9.2c0.3 0.2 0.4 0 0.4-0.3 0-0.3-0.1-0.6-0.4-0.7l-16-9.3c-0.2-0.2-0.4 0-0.4 0.3 0 0.3 0.2 0.6 0.4 0.8z"/>
						<path id="Layer" class="s4" d="m140.5 201.9l16 9.3c0.3 0.1 0.4 0 0.4-0.3 0-0.3-0.1-0.7-0.4-0.8l-16-9.3c-0.2-0.1-0.4 0-0.4 0.3 0 0.3 0.2 0.7 0.4 0.8z"/>
						<path id="Layer" class="s4" d="m140.5 203.6l16 9.3c0.3 0.1 0.4 0 0.4-0.3 0-0.3-0.1-0.7-0.4-0.8l-16-9.3c-0.2-0.1-0.4 0-0.4 0.3 0 0.3 0.2 0.7 0.4 0.8z"/>
						<path id="Layer" class="s4" d="m140.5 205.3l16 9.3c0.3 0.1 0.4 0 0.4-0.3 0-0.3-0.1-0.6-0.4-0.8l-16-9.2c-0.2-0.2-0.4 0-0.4 0.3 0 0.3 0.2 0.6 0.4 0.7z"/>
						<path id="Layer" class="s4" d="m132.9 193.7l32.2 18.6v-6.9l-32.3-18.6z"/>
						<path id="Layer" class="s4" d="m164.5 211.8l0.6 1.9v-9.9l-0.8 1.2z"/>
					</g>
					<path id="Layer" class="s6" d="m136.6 167.7c1.1-0.6 4.6-1.7 4.6-1.7l9.2 5.3c0 0-3 0.7-4.2 1.3-2.3 1.4-5 4.4-5 4.4l-9.3-5.3c0 0 3.4-3.2 4.7-4z"/>
				</g>
				<path id="Layer" class="s7" d="m156.4 182.5c0 0-0.8-2.3-1.4-2.8-0.7-0.6-1 0-1 0 0 0-0.4-2-1.4-1.4-1 0.6-0.8 0.4-0.8 0.4 0 0-0.3-1.8-0.9-2-0.7-0.1-1.1 0.8-1.1 0.8 0 0 0-2.4-0.6-2.1-0.6 0.4-1.1 3.5-0.6 4.3 0.4 0.7 1 0.7 1 0.7 0 0 0.3 1.8 0.9 1.7 0.6 0 0.6 0 0.6 0 0 0 0.9 1.2 1.5 1.2 0.5-0.1 0.5-0.1 0.5-0.1 0 0 1 0.6 1.6 0.9 0.6 0.4 2.4-1.2 2.4-1.2z"/>
				<path id="Layer" class="s7" d="m158.7 172.3l-2.4 3.1c0 0-0.9 2.4-1.1 2.9-0.1 0.5 0.7 2.5 0 3-0.7 0.4-1.9-2.6-2.1-3-0.2-0.4-0.3-4.6-0.3-4.6 0 0-1.4-5.1 0.5-6 0.9-0.5 1.9-1.3 2.6-2.1 0.6-0.7 1.8-0.4 2.1 0.4 0.7 1.7 1.5 4.3 0.7 6.3z"/>
			</g>
			<g id="Layer">
				<path id="Layer" class="s0" d="m139.8 268.8c0 0 3.6 6.1 7.8 6.4 4.2 0.4 9.1 5.8 9.6 7.9 0.5 2.1 0.6 5.2-4.5 6.2-7.3 1.3-13-7.2-16.6-7.6-3.7-0.5-11.3-2.8-11.5-5.1-0.2-2.2 1.9-8.7 1.9-8.7 0 0 7.7 3.7 9.8 3.1 2.1-0.5 3.5-2.2 3.5-2.2z"/>
				<path id="Layer" class="s8" d="m139.8 267.4c0 0 3.6 6.1 7.8 6.4 4.2 0.4 9.1 5.8 9.6 7.9 0.5 2.1 0.6 5.2-4.5 6.2-7.3 1.3-13-7.1-16.6-7.6-3.7-0.5-11.3-2.8-11.5-5.1-0.2-2.2 1.9-8.7 1.9-8.7 0 0 7.7 3.7 9.8 3.1 2.1-0.5 3.5-2.2 3.5-2.2z"/>
				<path id="Layer" class="s9" d="m139.8 267.4c0 0 4.3 5.2 5.5 5.7 1.1 0.5 4.9 2.9 2.3 4.2-2.6 1.2-8.7-3.1-10.4-6.6-1.1-2.1 2.6-3.3 2.6-3.3z"/>
			</g>
			<path id="Layer" class="s0" d="m117.1 283.3c0 0 8 10.2 10.5 11.6 2.4 1.4 2.1 6.2 1.2 8.4-0.9 2.3-11.5 2.1-15-1-3.5-3.2-10.6-13.4-10.8-14.2-1.1-3.4 1-4.9 1-4.9 0 0 5.1 1.3 6.6 1.6 1.6 0.4 6.5-1.5 6.5-1.5z"/>
			<path id="Layer" class="s8" d="m117.3 281.7c0 0 6.2 10.2 8.7 11.6 2.5 1.4 3.8 6.2 3 8.4-0.9 2.3-11.6 2.1-15-1-3.5-3.1-10.3-12.7-10.6-14.5-0.6-3.3 1.8-7.5 1.8-7.5 0 0 4 4.2 5.6 4.6 1.6 0.3 6.5-1.6 6.5-1.6z"/>
			<path id="Layer" class="s9" d="m116.3 281.2c0 0 5.2 9.3 5.8 10.7 0.6 1.4-2.8 2.1-5 0.4-2.2-1.6-4.1-10.3-4.1-10.3 0 0 2.5-2.2 3.3-0.8z"/>
			<path id="Layer" class="s10" d="m144.4 165.9c0 0 2.3 13.7 2.6 20.9 0.2 7.2-4.3 43.1-4.3 45.2 0.1 2.1-2.1 10.4-1.7 11.8 0.4 1.4 0.8 8.2 0 10-0.8 1.9-0.8 3.5-0.8 6.5 0 3.1 1.6 7.3 0.8 8.6-0.8 1.2-4.5 4-9.8 2.6-5.4-1.4-6.6-5-6.6-5 0 0-1-11 0-11.7 1-0.7-2.8-0.3-2.4-4 0.4-3.7 0.4-12.8 0.4-12.8l2-11.6-2.4-6.3 3.4-29.8 0.9-14.2c0 0 10.9-0.6 14.5-4.6 3.7-4.1 3.4-5.6 3.4-5.6z"/>
			<path id="Layer" class="s11" d="m134.1 174.7c0 0-4.3 43.8-6.9 47.7-2.6 4-3.4 8.5-3.8 10.9-0.5 2.5-6 6.8-4.8 11 1.2 4.2-1.6 11.4-1 15.3 0.5 4 1.7 21.6 0.5 23.5-1.1 1.9-7.6 3.2-12.1 0.1-4.4-3.1-4.4-5.6-4.4-7.7 0-2.1 3.4-4.9 1.7-6.6-1.7-1.6-4-22.5-3.3-24.8 0.7-2.4 2.6-8.7 3.3-10.8 0.6-2-0.7-4.1 0.6-7.2 1.4-3-1.3-4.6-1.2-6.2 0.1-1.7-2.7-39.8-1.3-43.1 1.4-3.2 3.5-8.1 3.5-8.1 0 0 12.6 4.4 13.7 5 1.1 0.6 15.5 1 15.5 1z"/>
			<path id="Layer" class="s12" d="m137 98.9c0 0 7.2-0.2 8.1 4.4 1 4.7 5.9 24.2 3.4 31-2.4 6.7-3.8 20.7-3.6 23.5 0.2 2.7-0.5 4.4-0.5 8.1 0 3.7-3.5 8.6-11 10.1-7.6 1.5-14.8-2.1-21.3-5.5-6.5-3.3-7.2-7-7.2-7 0 0-4.9-6.9-2.2-9.7 2.6-2.8 3.3-3.3 1.9-8.8-1.4-5.6-1.9-14-1.9-14 0 0-1.1-16.7 3.1-20.9 4.2-4.2 14.4-7.9 14.4-7.9z"/>
			<g id="Layer">
				<path id="Layer" class="s10" d="m134.1 119.7c0 0 2.5 5.8 3.2 12 0.7 6.2-1.1 39-1.1 39l-2.6 1c0 0 2-31.8 0.8-41.4-0.5-4-2.1-9.9-2.1-9.9z"/>
				<path id="Layer" class="s2" d="m133.7 119.7c0 0 2.6 5.8 3.3 12 0.7 6.2-1.2 39-1.2 39l-2.6 1c0 0 2.1-31.8 0.9-41.4-0.5-4-2.2-9.9-2.2-9.9z"/>
			</g>
			<path id="Layer" class="s0" d="m140.4 106l-3.8-3.8h-2.9l-13.8 0.6c0 0-2 0.7-1.6 3.3 0.3 2.6 5 10.1 5.7 10.5 0.7 0.3 9.7 3.1 9.7 3.1 0 0 6.8-5.8 6.6-8.7-0.2-3 0.1-5 0.1-5z"/>
			<path id="Layer" class="s2" d="m134.6 98.2c0.9 0 3.5 7.3 3.5 12.2 0 4.9-4.4 9.3-4.4 9.3 0 0-10.7-4.5-12.9-10-2.2-5.5-0.6-7.5-0.6-7.5 0 0 1.7-2.6 0-3.3-1.6-0.7-6 4.3-6.2 5.9-0.3 1.7 0.9 9.2 0.9 9.2l4.5-0.6 1.8 5.4 12.3 1.8 9.2-7.2-1.6-2.9c0 0 2.8-0.6 3.5-1.1 0.8-0.5-3.5-4.6-3.9-6.6-0.3-1.9-6.1-4.6-6.1-4.6z"/>
			<path id="Layer" class="s3" d="m135.8 98.2l-1.8 12.2c0 0-1.1 3.9-3.8 2.2-2.8-1.6-7.5-4.1-8.6-7-1-2.9-1.4-3.4-1.4-3.4 0 0 0.7-0.7 1-3.3 0.2-2.6 0.2-5.9 0.2-5.9z"/>
			<path id="Layer" class="s7" d="m140.8 81c0.3 0.4 2.5 6.4 1.9 7.9-0.6 1.5 0.6 2.7 0 3.3-0.6 0.5-1.1 6.1-1.2 6.7-0.4 2.4-1.1 4.8-1.5 4.6-0.5-0.1-3.5 1.3-4.8 1-1.2-0.4-10.9-4.8-11.8-6.5-1-1.7-5.5-5.2-5.2-6.9 0.3-1.7 0.7-2 0.7-2 0 0-4.6-13.7 4.5-17 11.7-4.1 14.4 3.7 17.4 8.9z"/>
			<g id="Layer">
				<path id="Layer" class="s2" d="m142.7 82.2c0 0 9.2 5.5 8.8 6.8-0.3 1.3-9.1 4.9-11.1 4.5-2.1-0.4-12.4-5.6-12.4-5.6 0 0 6.7-0.9 10.7-2.7 2.3-1 4-3 4-3z"/>
				<path id="Layer" class="s2" d="m142.7 82.2c0 0-0.7-7.6-6.9-10.6-6.1-3.1-10.4-1.4-10.4-1.4 0 0-7.7 2.1-8.8 10.3-0.8 6.1 1.1 8.6 1.1 8.6 0 0 6.5-0.6 12.6-1.6 10.5-1.6 12.4-5.3 12.4-5.3z"/>
			</g>
			<path id="Layer" class="s7" d="m95.5 165.2l2 19 5.8 3.8c0 0 4.2 5.1 3 7.1-1.2 2.1-1.2 4.2-1.2 4.2 0 0-2.3-1.2-2.1-2.2 0.1-1.1 0.1-3.5 0.1-3.5l-1.8-1.1-0.3 6.1 0.7 4.3c0 0 3.6 1.8 3.9 2.5 0.2 0.7 0.6 1.7-0.1 1.8-0.6 0-3.6-1.5-3.9-1.5-0.2-0.1-2.2-2.5-2.2-2.5l-1.2-2.8 0.6 4.1 1.1 2.2c0 0 1.3 0.4 1.7 1.2 0.5 0.9 0.2 1.6-1 1.2-1.3-0.3-3.4-1.5-3.4-1.5l-1-1.7c0 0-1.2-0.2-1.8-1.1-0.7-0.9-0.7-1.3-0.7-1.3 0 0-1.2-0.9-1.3-1.5-0.2-0.6-1.5-13.5-1.7-14.3-0.2-0.8-1.5-2.6-1.5-4 0.1-1.3-3.3-15-3.5-17-0.1-2.1-0.2-3.4 0.4-3.5 0.6-0.2 8.5-1 9.4 2z"/>
			<path id="Layer" class="s2" d="m111.3 119.7c0 0-1.2 10.2-3.5 13-2.2 2.8-11.6 16.2-11.1 19.5 0.5 3.3 1.7 13 0.5 13.7-1.2 0.6-5.6 3.1-8.2 1.9-2.6-1.3-4-2.1-4.9-2.6-0.9-0.5-0.2-15.1 0.9-16.7 1-1.5 4-14.4 5.7-17.9 1.8-3.5 9.8-18.8 12.4-19.6 2.7-0.9 8.2 0.4 8.2 8.7z"/>
			<g id="Layer">
				<path id="Layer" class="s11" d="m144.7 163.5c0 0-2.1 6.8-12.6 8.8-10.5 2.1-19.8-3.6-22.2-4.9-2.5-1.3-5-3.9-5-3.9v5.2c0 0 5.7 8.9 24.4 7.6 12.5-0.9 15.5-8.2 15.5-8.2z"/>
				<path id="Layer" class="s13" d="m136.4 171.4l0.1 3.4c0 0.6-0.3 1-0.8 1.2-1.2 0.3-3.2 0.8-3.6 0.7-0.6 0-0.3-0.5-0.3-0.5l2.7-0.7c0.5-0.1 0.9-0.6 0.9-1.1v-1.7c0-0.5-0.5-1-1.1-0.8-1.1 0.2-2.6 0.5-2.6 0.5 0.2 0-0.6-0.9 0.7-1.3 0.7-0.2 2.1-0.4 3-0.5 0.5-0.1 0.9 0.3 1 0.8z"/>
				<path id="Layer" class="s0" d="m137 172.6l-2.8 1.1v0.4l2.8-1z"/>
			</g>
			<path id="Layer" class="s2" d="m140 141.8q2.3-0.2 4.7-0.4c0 0 3.1-2.9 3.7-4.1 1.7-3 0.7-12.9 0.6-12.9-2 2.2-4.4 3.5-8.6 5.2-0.6 3.7-0.6 7.2-0.4 12.2z"/>
			<path id="Layer" class="s2" d="m120.4 150.6q2.6 0.6 5.3 1.2c0 0 3.2-2.9 3.7-4.2 1.8-3 0.8-12.9 0.6-12.9-1.9 2.1-5.1 4-10.2 4.7 0.2 3.6-0.6 7.7 0.6 11.2z"/>
		</g>
		<g id="Layer">
			<g id="Layer">
				<path id="Layer" class="s12" d="m334.2 112.7c0 0 16.1-6.7 13.9-10.6-2.2-3.8-12.3-5.3-13.7-6.3-1.4-0.9-10.7-13.6-10.7-13.6 0 0-4.6 4-7.2 1.3-2.6-2.7-9.7-8.2-6.9 0.6 0.8 2.7 17.6 21.7 21.3 24.5 3.8 2.8 3.3 4.1 3.3 4.1z"/>
				<path id="Layer" class="s14" d="m353 258.5c0 1.8-5.5 5.5-9.5 6.4-0.9 0.2-1.3 0.2-1.4 0.2 0.1 0.1-0.1 0.8-6.3 4.4-10.5 6.1-13 0.6-13-1.2 0-1.8 7-7.2 8.6-7.7l0.1-0.1c1.4-0.2 6.8-8.6 6.8-8.6l9.4-8c0 0 1.8 6.8 2.1 7.5 0 0.2 0.4 0.8 0.8 1.6 1 1.7 2.4 4.2 2.4 5.5z"/>
				<path id="Layer" class="s12" d="m353 258.5c0 1.8-5.5 5.5-9.5 6.4-0.9 0.2-1.3 0.2-1.4 0.2 0.1 0.1-0.1 0.8-6.3 4.4-10.5 6.1-13 0.6-13-1.2 0-1.8 7-7.2 8.6-7.7l0.1-0.1c0 0-5 7.6 6.4 3.7 4.5-1.6 7.9-4.4 10.6-8.6 2.6-4 2.1-2.6 2.1-2.6 1 1.7 2.4 4.2 2.4 5.5z"/>
				<path id="Layer" class="s4" d="m326.5 153.2c0 0-7.1 8.4-6.7 23.5 0.5 15.1 7.8 31.1 7.8 31.1l10.3 36.1 0.4 8c0 0 2.8 1.6 7.1 0 4.4-1.6 5.5-5.7 5.5-5.7 0 0-2.7-12.6-1.4-15.8 1.4-3.2 0.7-13 0.3-14.9-0.5-1.8-3.5-6.1-3.9-8.6-0.5-2.5-0.2-18.8-0.2-18.8 0 0 8-13.4 0-24.6-8-11.2-19.2-10.3-19.2-10.3z"/>
				<g id="Layer">
					<path id="Layer" class="s14" d="m377 267.1c0 1.6-1.5 4.8-2.9 6.2-1.4 1.5-2.3 5.9-4 8.5-1.7 2.6-5.4 5-9.1 5.6-3.8 0.6-6 0.4-7-2.5-0.6-1.8 2.3-6.4 5-10.1 1.7-2.3 3.3-4.3 3.9-5 1.6-1.8 2.9-8.8 2.9-8.8l7.7-2.9c0 0 1 2.2 2 4.4 0.7 1.9 1.5 3.8 1.5 4.6z"/>
					<path id="Layer" class="s12" d="m377 267.1c0 1.6-1.5 4.8-2.9 6.2-1.4 1.5-2.3 5.9-4 8.5-1.7 2.6-5.4 5-9.1 5.6-3.8 0.6-6 0.4-7-2.5-0.6-1.8 2.3-6.4 5-10.1 0 0-0.8 4.7 2.3 4.4 3.1-0.4 7.2-1.9 9.4-5.6 2.1-3.8 4.8-11.1 4.8-11.1 0.7 1.9 1.5 3.8 1.5 4.6z"/>
				</g>
				<path id="Layer" class="s15" d="m341.1 155.9c0 0 6.6 59.2 9 62.1 2.4 3 7.2 9.4 7.9 13.8 0.7 4.3 6.8 30.9 6.8 30.9 0 0 3.5 3.4 6.9 0 3.4-3.5 3.4-3.5 3.4-3.5 0 0 3.2-23.8 3-27.9-0.2-4.1-8.7-19-8.7-19 0 0 4.6-35.6 1.8-42.9-2.7-7.3-7.3-16.2-7.3-16.2z"/>
				<path id="Layer" class="s2" d="m374.3 120.5q0 1-0.1 2c-0.7 4.9-9.1 17.8-10.8 20.3-1.8 2.6 0 8.6 0 8.6 0 0 0 0 1.2 0.5 1.2 0.5 2.6 8.1 2.6 8.1 0 0-8.3 11.3-23.4 11.1-15-0.2-18.7-15.9-18.4-16.3 0.3-0.5 5.2-17.3 5.2-17.3 0 0 1.6-6.1-1-8.2-2.6-2-2.1-5.8-2.1-8.6 0-2.7 14.4-19.7 14.4-19.7 0.9-0.6 1.7-0.7 2.5-0.5 0.9 0.2 1.7 0.7 2.4 1.3 0.8 0.8 1.4 1.5 1.5 1.6l-4.1-7.3c0 0 15.9-1.1 16.4 0 0.4 0.7 2.7 4.4 4.1 6.4 0.5 0.9 0.9 1.5 0.9 1.5 0 0 1.6 0.6 3.4 1.4 1.9 0.8 4 1.8 4.3 2.1 0.4 0.7 1.3 7.8 1 13z"/>
				<path id="Layer" class="s14" d="m344.4 100.5c0.9 0.2 1.7 0.7 2.4 1.3z"/>
				<path id="Layer" class="s3" d="m364.7 102.5c0.1 0.2-2 4.2-5.1 6.2-3.1 2.1-9.8 3.1-12.8 1.1-3-2.1 0-8 0-8 0.8 0.8 1.4 1.5 1.5 1.6l-4.1-7.3c0 0 15.9-1.1 16.4 0 0.4 0.7 2.7 4.4 4.1 6.4q0 0 0 0z"/>
				<path id="Layer" class="s14" d="m374.3 120.5c-1.5 1-3.6 1.8-5.6 1.4-3.5-0.6-1-11.5 0.3-16.5 1.9 0.8 4 1.8 4.3 2.1 0.4 0.7 1.3 7.8 1 13z"/>
				<path id="Layer" class="s14" d="m338.8 83.1c0 0-5.1 1-7.3 0.8-2.2-0.2-16.8 2.6-18 1.8-1.3-0.8-4.7-3.6-4.4-5.4 0.3-1.8 5-5.6 12.8-4.3 7.9 1.3 18.9 2.4 20.7 2.6 1.9 0.1 4.2 4.5-3.8 4.5z"/>
				<g id="Layer">
					<path id="Layer" class="s14" d="m339.3 79.4c0 0-1.4-3.4-0.9-4.3 0.6-1.2 3-1.8 3-1.8 0 0 0.8-0.2 1.4-0.3 0.9-0.1 0.1 1.5 0 1.5-0.6-0.2-2.7 1.3-2.7 1.3z"/>
					<path id="Layer" class="s14" d="m344.9 81.8l0.6-1.3c0 0-0.9-1.3-0.3-2.6 0.6-1.2 1.1-0.7 1-0.5-0.1 0.3 1.1 1.7 1.1 1.7 0 0-0.5 2.6-1.2 3.2-0.7 0.6-2 1.2-2 1.2z"/>
					<path id="Layer" class="s14" d="m341.3 72.1c0.2-0.6 2.2-1.1 2.2-1.1 0 0 1.1-0.2 0.4 0.4-0.7 0.7-2.5 1.9-2.5 1.9 0 0-0.2-0.9-0.1-1.2z"/>
				</g>
				<path id="Layer" class="s14" d="m340.2 79.1c0 0-1.7 7.9-0.5 9.3 1.1 1.3 0.5 4 0.8 5.2 0.3 1.1 0.4 2.6 1 4.4 0.7 1.9 0.3 5.5 2.3 6.2 1.9 0.6 4.5 1.2 6.1 0.6 1.5-0.6 9.3-5.5 9.7-6.2 0 0 6.7-10.4 6.8-13.9 0.2-3.5-0.8-14.2-9.2-15.8-8.4-1.5-15.2 4.6-17 10.2z"/>
				<path id="Layer" class="s15" d="m343.8 79.5l-4.5 6.6c0 0-2.2-6.8 1.5-12 3.8-5.1 12.6-5.4 12.6-5.4 0 0 9.4-3 13.5 5.4 4.2 8.3-1.5 19.1-0.8 22.3 0.7 3.3 4.5 4.7 4.5 4.7 0 0-5.8 5.8-10.4 6.1-4.6 0.3-5.2 0-4.6 0 0.5 0 2.8-7.3 2.9-9.1 0.1-1.8-1.2-8.3-1.2-8.3 0 0-7.5-0.5-10.1-2.1-2.7-1.5-3.4-8.2-3.4-8.2z"/>
				<path id="Layer" class="s2" d="m382.5 99.1c0 0-7.9 0.5-10.2 1.1-2.4 0.6-5.1 1.2-5.3 4-0.2 2.7-3.6 13-0.2 17.3 3.4 4.3 8.2 3.2 8.8 2.5 0.6-0.7 5.4-7.3 10.2-9.4 4.8-2.2 15.6-10.6 12.4-12.4-3.1-1.8-15.7-3.1-15.7-3.1z"/>
				<path id="Layer" class="s14" d="m346.3 78.9c0 0 0.1 1.4 1.1 1.3 1.1 0 3.3 1.3 3.3 1.3l2.5 1.7c0 0 4.3 5.8 5.4 6.6 1.2 0.9 11.1 5.2 11.7 5.5 0.6 0.3 12.9 7.7 14.6 8 1.8 0.2 5.5 2.8 8.3 2.4 2.7-0.3 5-3.2 5-3.5 0-0.2-1.3-3.9-3.5-5.8-2.2-1.8-13.4-5.1-14.9-5.4-1.4-0.2-15.1-5.6-15.1-5.6 0 0-3-9-3.2-9.4-0.3-0.3-4.5-5.5-4.7-5.2-0.1 0.3-2.8-1.2-2.8-1.2 0 0-2-0.6-2.2 0-0.2 0.5 0.3 1.6 1.1 1.6 0.7 0.1 2.1 0.8 2.1 0.8l2.4 2.5-3.3-1.9-3.7-0.9c0 0-3.1 0.4-3.2 0.6-0.2 0.3-0.3 1.4 0.6 1.3 0.9 0 1.6 0.4 1.6 0.4h-2.6c0 0-1.3 0.9 0.6 1.8 1.9 0.8 1.9 0.8 1.9 0.8l3.6 1.9 2.1 2.6-3.8-1.2-2.7-1c0 0-2.2 0-2.2 0z"/>
			</g>
			<g id="Layer">
				<path id="Layer" class="s16" d="m228.8 179.1c8.5 2 10.6 6.6 17.3 7.5 6.6 0.9 26.8-8.8 43.5 3.8 16.8 12.5-16.8 21.3-15.5 28.9 1.3 7.7 1.1 20.1-19.6 25.4-21.2 5.5-44.6-6.3-51-4.6-6.5 1.8-22.6 2.4-32.6-6.5-10.1-8.9 3.7-21.1 15.2-27.1 11.6-6-0.8-5.7 6.4-15.2 7.2-9.5 27.9-14.1 36.3-12.2z"/>
				<path id="Layer" class="s0" d="m225.2 178c8.3 2 10.4 6.5 16.9 7.3 6.4 0.9 26.2-8.5 42.6 3.7 16.4 12.3-16.5 20.9-15.2 28.4 1.3 7.4 1 19.6-19.2 24.8-20.7 5.4-43.6-6.2-49.9-4.5-6.3 1.7-22 2.4-31.9-6.4-9.8-8.7 3.7-20.6 15-26.5 11.2-5.9-0.9-5.6 6.2-14.9 7-9.3 27.3-13.8 35.5-11.9z"/>
				<g id="Layer">
					<g id="Layer">
						<g id="Layer">
							<g id="Layer">
								<path id="Layer" class="s13" d="m198.8 151.3l5.5-9.6 2.9 1.6-5.5 9.7z"/>
								<g id="Layer">
									<path id="Layer" class="s13" d="m204.3 141.7q0-0.1-0.1-0.1 0.1 0 0.1 0.1z"/>
									<path id="Layer" class="s13" d="m202.5 151.5l-0.8 1.5-2.9-1.7q-0.1-0.1-0.2-0.1c-0.2-0.2-0.3-0.3-0.3-0.4-0.1-0.1-0.2-0.1-0.2-0.2q-0.1-0.1-0.1-0.1 0-0.1 0-0.2-0.1 0-0.1-0.1 0 0-0.1-0.1c-0.1-0.3-0.1-0.6-0.1-0.9q0-0.1-0.1-0.2 0-0.1 0-0.3c0 0 4.9 2.8 4.9 2.8z"/>
									<path id="Layer" class="s8" d="m204.5 148.2l-1.2 2-5.4-3.1q0.3-1.2 0.9-2.2z"/>
									<path id="Layer" class="s13" d="m204 141.5q-0.1 0-0.2 0 0.1 0 0.2 0z"/>
									<path id="Layer" class="s13" d="m203.8 141.4q-0.1 0-0.2 0 0.1 0 0.2 0z"/>
									<path id="Layer" class="s13" d="m204.1 141.5c0 0 0 0-0.1 0q0 0 0.1 0z"/>
									<path id="Layer" class="s0" d="m206.8 144.1l-0.9 1.5-5.3-3q0.5-0.4 1-0.7 0.4-0.2 0.8-0.4c0 0 4.4 2.6 4.4 2.6z"/>
									<path id="Layer" class="s9" d="m203.3 150.2l-0.8 1.3-4.9-2.8q0.1-0.8 0.3-1.6z"/>
									<path id="Layer" class="s9" d="m205.9 145.6l-1.4 2.6-5.7-3.3c0.5-0.9 1.1-1.7 1.8-2.3z"/>
									<path id="Layer" class="s9" d="m206.8 144.1l-4.4-2.6c0.3 0 0.4-0.1 0.5-0.1 0.1 0 0.2 0 0.2 0 0.1 0 0.2 0 0.2 0q0.1 0 0.2 0c0.1 0 0.2 0 0.3 0q0.1 0.1 0.2 0.1 0.1 0 0.2 0.1 0.1 0 0.1 0.1c0 0 2.9 1.6 2.9 1.6z"/>
								</g>
								<g id="Layer">
									<path id="Layer" class="s8" d="m200.5 150.4c0-2.5 1.8-5.5 4-6.8 2.1-1.2 3.9-0.2 3.9 2.3 0 2.5-1.8 5.5-3.9 6.8-2.2 1.2-4 0.2-4-2.3z"/>
									<path id="Layer" class="s2" d="m200.5 150.4c0-2.5 1.8-5.5 4-6.8 2.1-1.2 3.9-0.2 3.9 2.3 0 2.5-1.8 5.5-3.9 6.8-2.2 1.2-4 0.2-4-2.3z"/>
									<path id="Layer" class="s8" d="m201.2 150c0-2 1.5-4.5 3.3-5.6 1.7-1 3.2-0.2 3.2 1.9 0 2-1.5 4.5-3.2 5.6-1.8 1-3.3 0.2-3.3-1.9z"/>
								</g>
							</g>
							<path id="Layer" class="s8" d="m229.2 164.3c0 3.3-1.9 6.1-4.5 7.3-1.9 0.9-4.2 1.1-6.4 0.3-1.4-0.6-2.6-1-2.9-1.1-2.2-0.8-3.5-2.1-4.2-4.2-0.6-1.9-0.8-4.4-0.8-7.7 0-4.5-8.1-6.6-8.1-6.6 0 0 0.2-1.1 0.1-2.3q0-1.3 0.2-2.2c0.4-1.7 1.4-2.6 2.3-3.1 1-0.6 1.9-0.6 1.9-0.6 0 0 9.4 3.9 9.6 9.4 0.1 2.2-0.3 4.7 0.5 6.7 0.4 0.9 1.1 1.7 2.2 2.3 3.2 1.7 1.9-8.8 1.9-8.8h2 0.3l3.5-0.1 2.2-0.1z"/>
							<path id="Layer" class="s9" d="m221.8 168.2c-3.9 5-8.9 2.1-10.6-1.6-0.6-1.9-0.8-4.4-0.8-7.7 0-4.5-8.1-6.6-8.1-6.6 0 0-1.1-0.5-1.1-2.3 0.1-0.9 0.5-1.8 0.6-2.5 2 0.9 9.8 4.7 10 9.4 0.1 3.3-1.1 9.2 2.6 10.8 8.5 3.8 7.2-14 7.2-14h1.4l0.3-0.2q0 0 0 0.2c0.1 1.2 0.5 12-1.5 14.5z"/>
							<path id="Layer" class="s16" d="m216.9 160.2c-1.3-0.6-0.6-7.8-2.6-10-3.9-4.2-8-5.3-9.8-5.8 0.9-0.5 2.3-0.3 2.3-0.3 0 0 9.4 3.9 9.6 9.4 0.1 2.2-0.3 4.7 0.5 6.7z"/>
						</g>
						<path id="Layer" class="s9" d="m229.2 164.3c0 3.3-1.9 6.1-4.5 7.3 1-1 1.9-2.5 2-4.8 0.4-6.2 0.1-12.3 0.1-13.2l2.2-0.1z"/>
					</g>
					<g id="Layer">
						<g id="Layer">
							<path id="Layer" class="s13" d="m220.1 149.8h10.4v3.2h-10.4z"/>
							<g id="Layer">
								<path id="Layer" class="s13" d="m220.1 153q0 0.1 0 0.1 0 0 0-0.1z"/>
								<path id="Layer" class="s13" d="m228.9 149.8h1.6v3.1q0 0.2 0 0.2c-0.1 0.4-0.1 0.4-0.1 0.5 0 0.1-0.1 0.2-0.1 0.2q-0.1 0.1-0.1 0.2 0 0-0.1 0.1c0 0.1-0.1 0.1-0.1 0.2-0.2 0.2-0.4 0.4-0.7 0.6q0 0-0.1 0.1-0.1 0-0.2 0.1c-0.1 0-0.1-5.3-0.1-5.3z"/>
								<path id="Layer" class="s8" d="m225.3 149.8h2.2v5.9q-1 0.3-2.2 0.3z"/>
								<path id="Layer" class="s13" d="m220.2 153.3q0 0.1 0 0.2 0-0.1 0-0.2z"/>
								<path id="Layer" class="s13" d="m220.2 153.5q0.1 0.1 0.1 0.2 0-0.1-0.1-0.2z"/>
								<path id="Layer" class="s13" d="m220.2 153.2q0 0 0 0.1 0 0 0-0.1z"/>
								<path id="Layer" class="s0" d="m220.9 149.8h1.7v5.7q-0.5-0.2-1-0.4-0.4-0.3-0.7-0.5c0 0 0-4.8 0-4.8z"/>
								<path id="Layer" class="s9" d="m227.5 149.8h1.4v5.3q-0.6 0.4-1.4 0.6z"/>
								<path id="Layer" class="s9" d="m222.6 149.8h2.7v6.2c-0.9 0-1.9-0.2-2.7-0.5z"/>
								<path id="Layer" class="s9" d="m220.9 149.8v4.8c-0.1-0.2-0.2-0.3-0.3-0.4-0.1-0.1-0.1-0.1-0.1-0.1-0.1-0.1-0.1-0.2-0.1-0.2q-0.1-0.1-0.1-0.1c0-0.2-0.1-0.2-0.1-0.3q0-0.1 0-0.2 0-0.1-0.1-0.1 0-0.2 0-0.2c0-0.1 0-3.2 0-3.2z"/>
							</g>
							<g id="Layer">
								<path id="Layer" class="s8" d="m229 152c-2 1.1-5.3 1.1-7.3 0-2.1-1.2-2.1-3.1-0.1-4.3 2.1-1.2 5.4-1.1 7.4 0 2 1.2 2 3.1 0 4.3z"/>
								<path id="Layer" class="s2" d="m229 152c-2 1.1-5.3 1.1-7.3 0-2.1-1.2-2.1-3.1-0.1-4.3 2.1-1.2 5.4-1.1 7.4 0 2 1.2 2 3.1 0 4.3z"/>
								<path id="Layer" class="s13" d="m228.4 151.6c-1.7 0.9-4.4 0.9-6.1 0-1.6-1-1.6-2.6 0-3.5 1.7-1 4.4-1 6 0 1.7 1 1.7 2.5 0.1 3.5z"/>
							</g>
						</g>
						<g id="Layer">
							<path id="Layer" class="s13" d="m221.3 124.5h8.2v25.4h-8.2z"/>
							<g id="Layer">
								<path id="Layer" class="s13" d="m221.3 149.9q0 0 0 0.1 0-0.1 0-0.1z"/>
								<path id="Layer" class="s8" d="m228.2 124.5h1.3v25.3q0 0.1-0.1 0.2c0 0.3 0 0.3 0 0.4q-0.1 0.1-0.1 0.1c-0.1 0.2-0.1 0.2-0.1 0.2-0.1 0.1-0.1 0.2-0.2 0.2-0.1 0.2-0.3 0.3-0.5 0.4q0 0.1-0.1 0.1-0.1 0.1-0.2 0.1c0 0 0-27 0-27z"/>
								<path id="Layer" class="s8" d="m225.4 124.5h1.7v27.5q-0.8 0.2-1.7 0.2z"/>
								<path id="Layer" class="s13" d="m221.3 150.2q0 0 0 0.1 0-0.1 0-0.1z"/>
								<path id="Layer" class="s13" d="m221.3 150.3q0 0.1 0.1 0.1-0.1 0-0.1-0.1z"/>
								<path id="Layer" class="s16" d="m221.9 124.5h1.3v27.4q-0.4-0.2-0.8-0.4-0.3-0.2-0.5-0.4c0 0 0-26.6 0-26.6z"/>
								<path id="Layer" class="s9" d="m227.1 124.5h1.1v27q-0.5 0.3-1.1 0.5z"/>
								<path id="Layer" class="s9" d="m223.2 124.5h2.2v27.7c-0.8 0-1.5-0.1-2.2-0.3z"/>
								<path id="Layer" class="s9" d="m221.9 124.5v26.6c-0.1-0.1-0.2-0.2-0.3-0.2-0.2-0.3-0.2-0.4-0.2-0.4q-0.1-0.1-0.1-0.2 0-0.1 0-0.1 0-0.1 0-0.2 0-0.1 0-0.1c0-0.1 0-25.4 0-25.4z"/>
							</g>
							<g id="Layer">
								<path id="Layer" class="s8" d="m228.3 126.2c-1.6 0.9-4.2 0.9-5.8 0-1.6-0.9-1.6-2.4-0.1-3.4 1.6-0.9 4.2-0.9 5.8 0 1.6 1 1.7 2.5 0.1 3.4z"/>
								<path id="Layer" class="s0" d="m228.3 126.2c-1.6 0.9-4.2 0.9-5.8 0-1.6-0.9-1.6-2.4-0.1-3.4 1.6-0.9 4.2-0.9 5.8 0 1.6 1 1.7 2.5 0.1 3.4z"/>
								<path id="Layer" class="s13" d="m227.7 125.9c-1.3 0.7-3.4 0.7-4.7 0-1.3-0.8-1.3-2 0-2.8 1.3-0.7 3.4-0.7 4.7 0 1.3 0.8 1.3 2 0 2.8z"/>
							</g>
						</g>
						<g id="Layer">
							<path id="Layer" class="s13" d="m220.1 121.9h10.4v3.1h-10.4z"/>
							<g id="Layer">
								<path id="Layer" class="s13" d="m220.1 125q0 0.1 0 0.2 0-0.1 0-0.2z"/>
								<path id="Layer" class="s13" d="m228.9 121.9h1.6v3.1q0 0.1 0 0.2c-0.1 0.3-0.1 0.4-0.1 0.5q-0.1 0.1-0.1 0.2-0.1 0.1-0.1 0.1 0 0.1-0.1 0.2c0 0.1-0.1 0.1-0.1 0.2-0.2 0.2-0.4 0.4-0.7 0.5q0 0.1-0.1 0.1-0.1 0.1-0.2 0.2c-0.1 0-0.1-5.3-0.1-5.3z"/>
								<path id="Layer" class="s8" d="m225.3 121.9h2.2v5.9q-1 0.2-2.2 0.2z"/>
								<path id="Layer" class="s13" d="m220.2 125.4q0 0.1 0 0.2 0-0.1 0-0.2z"/>
								<path id="Layer" class="s13" d="m220.2 125.6q0.1 0.1 0.1 0.2 0-0.1-0.1-0.2z"/>
								<path id="Layer" class="s13" d="m220.2 125.3q0 0 0 0.1 0-0.1 0-0.1z"/>
								<path id="Layer" class="s0" d="m220.9 121.9h1.7v5.7q-0.5-0.2-1-0.4-0.4-0.3-0.7-0.6z"/>
								<path id="Layer" class="s9" d="m227.5 121.9h1.4v5.3q-0.6 0.3-1.4 0.6z"/>
								<path id="Layer" class="s9" d="m222.6 121.9h2.7v6.1c-0.9 0-1.9-0.1-2.7-0.4z"/>
								<path id="Layer" class="s9" d="m220.9 121.9v4.7c-0.1-0.1-0.2-0.2-0.3-0.3-0.1-0.1-0.1-0.1-0.1-0.1-0.1-0.2-0.1-0.2-0.1-0.2q-0.1-0.1-0.1-0.2c0-0.1-0.1-0.1-0.1-0.2q0-0.1 0-0.2 0-0.1-0.1-0.2 0-0.1 0-0.2c0 0 0-3.1 0-3.1 0 0 0.8 0 0.8 0z"/>
							</g>
							<g id="Layer">
								<path id="Layer" class="s8" d="m229 124c-2 1.2-5.3 1.2-7.3 0-2.1-1.1-2.1-3-0.1-4.2 2.1-1.2 5.4-1.2 7.4 0 2 1.2 2 3.1 0 4.2z"/>
								<path id="Layer" class="s0" d="m229 124c-2 1.2-5.3 1.2-7.3 0-2.1-1.1-2.1-3-0.1-4.2 2.1-1.2 5.4-1.2 7.4 0 2 1.2 2 3.1 0 4.2z"/>
								<path id="Layer" class="s13" d="m228.4 123.7c-1.7 0.9-4.4 0.9-6.1-0.1-1.6-0.9-1.6-2.5 0-3.4 1.7-1 4.4-1 6 0 1.7 0.9 1.7 2.5 0.1 3.5z"/>
							</g>
						</g>
					</g>
					<g id="Layer">
						<g id="Layer">
							<g id="Layer">
								<path id="Layer" class="s9" d="m198.9 126l0.6 0.3c2.9 1.7 6.4 3 10.1 3.7 3.6 0.7 7.4 0.8 10.9 0.4 7.8-1.1 14.6-3.2 20-6.3 0 0 8-4.4 16.8-11.4 4.9-3.8 21.1-21.7 19.9-23.8-1.2-2.1-17.3 5.9-20.3 4.2l-0.5-0.3c-6.3-3.6-20.8-8.4-28-7.1q-1.8 0.3-3.4 0.9-1.6 0.5-2.9 1.3l-31.7 18.3q-1.3 0.7-2.3 1.7c-0.6 0.6-15.5-11.6-15.9-10.9-2.2 4.2 12.3 20.7 26.7 29z"/>
								<path id="Layer" class="s16" d="m189.4 115.2l0.7 0.5c4.1 2.3 8.8 4 13.8 5 5 0.9 10.1 1.1 14.9 0.5 10.6-1.4 20-4.3 27.3-8.5l17.1-10c7.4-4.2 12.4-9.6 14.9-15.7 1-2.7 0.7-5.7-1-8.6-1.6-2.9-4.6-5.6-8.6-8l-0.8-0.4c-8.6-5-28.2-11.5-38.1-9.7q-2.5 0.4-4.7 1.2-2.2 0.8-4 1.8l-43.2 24.9q-1.8 1.1-3.1 2.3-1.3 1.3-2.1 2.7c-3 5.7 8.3 17.1 16.9 22z"/>
								<path id="Layer" class="s13" d="m270.3 86c-2.1 5.2-6.5 9.9-12.7 13.5l-17.2 9.9c-2.8 1.7-6.1 3.1-9.6 4.3-0.5 0.1-0.9 0.2-1.4 0.4q-3.4 1.1-7.2 1.8-1 0.2-1.9 0.3-1.6 0.3-3.2 0.5c-3.3 0.4-6.9 0.3-10.6-0.4-3.9-0.8-7.6-2.1-10.7-3.9l-0.8-0.4c-8.9-5.2-16.3-14.6-14.8-17.4q0.5-0.9 1.3-1.7c0.5-0.5 14.8-4.3 19.2-6.2 5.5-2.3 15.3-7.9 19.2-11.1 2.9-2.3 8.2-9.8 9.1-10.2q1.4-0.4 2.9-0.7c4.8-0.9 21.2 3.4 30.2 8.6l0.7 0.4c3.1 1.8 5.5 3.9 6.8 6.2 1.2 2.1 1.4 4.2 0.7 6.1z"/>
								<path id="Layer" class="s0" d="m183.7 96.1c0 0 13.1 10.5 23.3 10.6 10.2 0.1 14.3-4.7 11.7-4.8-2.6-0.1-3.2 3.3-14.9 2.1-9.1-0.9-20.1-7.9-20.1-7.9z"/>
								<path id="Layer" class="s0" d="m231.3 71.3c0 0-1 19.3-4.7 24.2-3.2 4.2-5.2 2.4-2 2.9 3.3 0.6 8.6-7.6 8.6-10.9-0.1-3.2-1.9-16.2-1.9-16.2z"/>
								<path id="Layer" class="s17" d="m255.3 74.1c0 0-1.3 9.8-6.5 16.7-5.1 6.9-17.8 14.4-17.8 14.4 0 0 15.4-3 20.3-6.2 5-3.3 13.8-16 13.8-16 0 0-2.1-7.7-9.8-8.9z"/>
								<g id="Layer">
									<path id="Layer" class="s10" d="m229.9 112.5q0 0.8-0.5 1.6-3.4 1.1-7.2 1.8-0.9-0.3-1.6-0.7c-1.2-0.6-1.9-1.7-1.9-2.7 0-1.1 0.7-2.1 1.9-2.8 1-0.6 2.3-0.9 3.7-0.9 1.4 0 2.7 0.3 3.8 0.9 1.2 0.7 1.8 1.7 1.8 2.8z"/>
									<path id="Layer" class="s10" d="m229.9 112.5q0 0.8-0.5 1.6-3.4 1.1-7.2 1.8-0.9-0.3-1.6-0.7c-1.2-0.6-1.9-1.7-1.9-2.7 0-1.1 0.7-2.1 1.9-2.8 1-0.6 2.3-0.9 3.7-0.9 1.4 0 2.7 0.3 3.8 0.9 1.2 0.7 1.8 1.7 1.8 2.8z"/>
									<path id="Layer" fill-rule="evenodd" class="s2" d="m231 112.5q0 0.6-0.2 1.2-4.9 1.6-10.5 2.5-0.1 0-0.2-0.1c-1.5-0.8-2.4-2.2-2.4-3.6 0-1.5 0.8-2.8 2.3-3.7 1.2-0.7 2.7-1.1 4.3-1.1 1.6 0 3.1 0.4 4.3 1.1 1.5 0.9 2.4 2.2 2.4 3.7zm-9.9-1.9c-1.8 1-1.8 2.7 0 3.7 0.9 0.5 2.1 0.8 3.3 0.8 1.1 0 2.3-0.3 3.2-0.8 1.7-1 1.7-2.7-0.1-3.7-0.8-0.5-2-0.8-3.2-0.8-1.2 0-2.3 0.3-3.2 0.8z"/>
								</g>
							</g>
							<g id="Layer">
								<path id="Layer" class="s10" d="m203.4 70l20.4 10.7 1.6 4.1-13.7-9.4 0.3 5.3-6.4 4-5.4-3.2 0.9-11.3c0-0.9 1.4-0.7 2.3-0.2z"/>
								<path id="Layer" class="s2" d="m209.8 65.7l20 11.6-6 3.4-22.6-11.9 4.8-3.1c1.8-1 2.1-1 3.8 0z"/>
								<path id="Layer" class="s2" d="m225.4 84.8l-1.6-4.1 6-3.4 1.5 4.1z"/>
								<path id="Layer" class="s2" d="m203.1 68.8l20.7 11.9 1.6 4.1-19.5-11.2-0.3 11.1-5.4-3.2v-11c0-1.5 1.6-2.5 2.9-1.7z"/>
							</g>
							<g id="Layer">
								<path id="Layer" class="s8" d="m202 64.6c0 0 3.4-3.4 5.5-2.9 2 0.5 8.5 5.5 11.2 6.5 3.5 1.3 7.6 3.1 7.6 3.1 0 0 0 1.6 0 1.3 0-0.3-4.8 1.5-4.8 1.5l-8.7-3.4z"/>
								<path id="Layer" class="s9" d="m203.3 68.3c0 0-2.7-4.3-0.6-3.8 2.1 0.5 8.5 5.4 11.2 6.5 3.6 1.3 7.6 3.1 7.6 3.1 0 0 0 1.5 0 1.3 0-0.3-13.5-5.9-13.5-5.9l-0.8 1.1z"/>
								<path id="Layer" class="s13" d="m226.3 72.6l-4.8 2.7v-1.2l4.8-2.8z"/>
							</g>
						</g>
						<path id="Layer" class="s9" d="m226.7 114.3c-1.3 0.7-3.4 0.7-4.8-0.1-1.3-0.7-1.3-2 0-2.7 1.3-0.8 3.5-0.8 4.8 0 1.4 0.8 1.4 2 0 2.8z"/>
					</g>
					<path id="Layer" class="s17" d="m210.7 149.3q0 0 0.3 0.2c0.6 0.4 1.4 1.7 2.2 2.7 1.1 1.3 1.4 5.3 1.4 5.3 0 0 0.3-5-0.3-6-1.1-1.7-3.6-2.2-3.6-2.2z"/>
				</g>
				<g id="Layer">
					<path id="Layer" class="s17" d="m182.1 219.2c-0.9 1.1-1.7 2.3-2.3 3.5-0.7 1.1-1.2 2.5-1 3.5 0.2 0.9 1.2 1.4 2.5 1.5 1.2 0.3 2.7 0.3 4.1 0.3 2.7 0.1 5.5 0 8.3-0.1l8.4-0.4c-5.4 1.8-11.1 2.6-16.8 2.5-1.5 0-2.8 0-4.4-0.4-0.3-0.1-0.7-0.1-1.1-0.3-0.4-0.2-0.8-0.3-1.1-0.6-0.8-0.4-1.4-1.3-1.5-2.3-0.1-1.8 0.9-3.1 1.7-4.3 1-1.1 2-2.1 3.2-2.9z"/>
					<path id="Layer" class="s17" d="m271.7 189.1c2.8 0.1 5.6 0.6 8.3 1.6 1.3 0.6 2.7 1.2 3.8 2.6 0.3 0.4 0.4 0.9 0.5 1.4 0 0.4 0.1 1-0.1 1.4-0.2 0.9-0.7 1.5-1.2 2.2-1.9 2.3-4.3 3.8-6.7 5.3q-3.6 2.1-7.6 3.6l6.7-4.9c2.2-1.7 4.4-3.4 6.1-5.3 0.3-0.5 0.7-1 0.8-1.4 0.2-0.3 0-0.4 0.1-0.6-0.1-0.2 0-0.4-0.2-0.6-0.6-0.9-1.7-1.6-2.9-2.3-2.3-1.2-5-2.1-7.6-3z"/>
					<path id="Layer" class="s17" d="m219 235.9c2.6 0.3 5.2 0.6 7.8 0.6 2.6 0.2 5.3 0.2 7.9 0.1 5.2-0.2 10.4-0.7 15.3-2.2 1.3-0.4 2.5-0.7 3.7-1.2l1.8-0.7c0.6-0.3 1.1-0.6 1.7-0.9 2.3-1.1 4.3-2.7 6.1-4.4 1.7-1.8 2.7-4.3 1.4-6.5-1.1-2.3-3.4-3.9-5.6-5.2q1.9 0.7 3.6 1.8c1.1 0.8 2.1 1.7 2.9 2.9 0.4 0.6 0.6 1.3 0.8 2 0.1 0.7 0.2 1.5 0 2.2-0.2 1.4-1.1 2.7-1.9 3.8-3.7 4.2-8.8 6.6-13.9 8.2-5.2 1.5-10.6 1.9-15.9 1.8-5.3-0.2-10.6-0.9-15.7-2.3z"/>
				</g>
				<g id="Layer">
					<path id="Layer" class="s13" d="m220.9 154.6c0 0-0.3 16.8-0.8 19.9-0.5 3.1 0 5.4 0.8 5.6 0.9 0.2 0.9-10.9 0.9-10.9l-0.2-14.1z"/>
					<path id="Layer" class="s16" d="m220.7 178.8c-0.3-0.5-0.7-2.1-0.2-4.8 0.3-1.9 0.5-8.3 0.6-13.3l0.1 7.9c0 4.3-0.2 8.9-0.5 10.2z"/>
					<path id="Layer" class="s13" d="m228.7 155.1c0 0 0.4 16.8 0.8 19.9 2.3 16.9-0.4 17.2-1.3 17.4-0.8 0.1-1.8-21.8-1.8-21.8l-0.7-14.6z"/>
					<path id="Layer" class="s16" d="m229.3 191.2c-0.5-2-1.2-13.8-1.5-21.2l-0.2-4.1c0 0 3.9 24.3 1.7 25.3z"/>
					<path id="Layer" class="s13" d="m223.2 187.9c0 0-2.1 4.5-0.6 5.4 1.4 0.8 0.6-5.4 0.6-5.4z"/>
					<path id="Layer" class="s16" d="m222.7 192.3c-0.5-0.4-0.3-1.7 0.1-3 0.1 1.4 0.1 2.6-0.1 3z"/>
					<path id="Layer" class="s13" d="m224.3 159.4c0.1-1-1.8 7.2-1.2 10.8 0.2 0.9 2 0.9 1.9 0q-0.9-5.4-0.7-10.8z"/>
					<path id="Layer" class="s16" d="m224 169.8c-0.2 0-0.5-0.1-0.5-0.3-0.3-1.5-0.1-4 0.3-6.2q0.1 3.2 0.6 6.4-0.1 0.1-0.4 0.1z"/>
					<path id="Layer" class="s13" d="m218.2 187.5c-0.4 0.9 1.4 1.2 1.8 0.4q0.8-1.8 0.9-3.9c0-0.9-2.2 2.4-2.7 3.5z"/>
					<path id="Layer" class="s16" d="m218.9 187.3c-0.3 0-0.4-0.1-0.4-0.1 0.3-0.8 1.1-2.1 1.7-2.9q-0.2 1.5-0.8 2.8c0 0.2-0.3 0.2-0.5 0.2z"/>
					<path id="Layer" class="s13" d="m225.7 197.4c0 0.9 1.8 0.9 1.8 0l-1.1-5.6c0-0.9-0.7 5.6-0.7 5.6z"/>
					<path id="Layer" class="s16" d="m226.5 197c-0.1 0-0.5 0-0.5-0.2 0.1-0.9 0.3-1.9 0.4-2.9l0.6 3c0 0-0.3 0.1-0.5 0.1z"/>
					<path id="Layer" class="s13" d="m231.4 178q0.3 2.4 0.3 4.9c0 0.9 1.8 0.9 1.8 0 0.1-1.7-2.2-5.8-2.1-4.9z"/>
					<path id="Layer" class="s16" d="m232.5 182.5c-0.2 0-0.4 0-0.4-0.1q0-1.7-0.2-3.2c0.6 1 1.1 2.3 1.1 3-0.1 0.2-0.3 0.3-0.5 0.3z"/>
					<path id="Layer" class="s13" d="m225.4 174.8c-0.1-0.9-1.1 6.9-1 10.4 0 0.9 1.9 0.9 1.8 0q-0.2-5.2-0.8-10.4z"/>
					<path id="Layer" class="s16" d="m225.2 184.8c-0.2 0-0.5-0.1-0.5-0.3 0-1.8 0.2-4.7 0.5-7q0.3 3.5 0.4 7.1-0.1 0.2-0.4 0.2z"/>
					<path id="Layer" class="s13" d="m232.1 188.4c0.2 0.8 0.5 5.8 0.5 6.7 0 0.9 1.8 0.9 1.9 0 0-1-2.6-7.7-2.4-6.7z"/>
					<path id="Layer" class="s16" d="m233.4 194.7c-0.2 0-0.4-0.1-0.4-0.1 0-0.6-0.1-2.2-0.2-3.8 0.5 1.6 1.1 3.3 1.1 3.6 0 0.2-0.3 0.3-0.5 0.3z"/>
					<path id="Layer" class="s13" d="m231.2 171.4v0.2c0 0.9 1.9 0.9 1.9 0v-0.2c0-1-1.9-1-1.9 0z"/>
					<path id="Layer" class="s16" d="m232.1 171.6c-0.1 0-0.4 0-0.4-0.2v-0.3c0-0.2 0.3-0.2 0.4-0.2 0.2 0 0.5 0 0.5 0.2v0.3c0 0.1-0.3 0.2-0.5 0.2z"/>
				</g>
				<path id="Layer" class="s16" d="m219.5 205.8c-8.7 5-16.6 12.1-8.8 14.3 7.9 2.2 14.1-2.2 18.3 0 4.3 2.2 15.7 0.9 17.4-5.4 1.6-6.2-10.3-3.5-4.3-6.7 5.9-3.2 7.5-6 2.2-7.2-5.3-1.3-14.5-1-24.8 5z"/>
			</g>
		</g>
		<g id="Layer">
			<g id="Layer">
				<g id="Layer">
					<path id="Layer" class="s18" d="m271.1 275.4l-6.6 43.9c0 2.6-1.7 5.2-5.1 7.2q-0.4 0.2-0.9 0.5c-5.8 2.9-14.2 3.2-20.7 0.9q-1.7-0.6-3.2-1.5-0.2-0.1-0.3-0.2c-3.2-1.9-4.8-4.4-4.9-6.9 0 0-6.5-43.9-6.5-43.9 0 0 48.2 0 48.2 0z"/>
				</g>
				<g id="Layer">
					<path id="Layer" class="s5" d="m237.8 327.9q-1.7-0.6-3.2-1.5-0.2-0.1-0.3-0.2l-6.7-49.8 2.3-1h5.5l1 2.2c0 0 1.4 31.6 1.4 50.3z"/>
				</g>
				<g id="Layer">
					<path id="Layer" class="s19" d="m271.1 275.4l-6.6 43.9c0 2.6-1.7 5.2-5.1 7.2q-0.4 0.2-0.9 0.5l2.8-51.6c0 0 9.8 0 9.8 0z"/>
				</g>
				<g id="Layer">
					<path id="Layer" class="s19" d="m264.1 285.3c-9.4 5.4-24.7 5.3-34.1-0.1-9.5-5.5-9.5-14.3-0.1-19.7 9.4-5.4 24.6-5.4 34.1 0.1 9.4 5.4 9.5 14.2 0.1 19.7z"/>
					<path id="Layer" fill-rule="evenodd" class="s6" d="m247.1 290.2c-6.3 0-12.7-1.4-17.6-4.2-4.8-2.8-7.5-6.6-7.5-10.7 0-4 2.6-7.8 7.4-10.6 9.6-5.5 25.3-5.5 35 0.1 4.9 2.8 7.6 6.6 7.6 10.7 0 4-2.7 7.8-7.5 10.5-4.8 2.8-11.1 4.2-17.4 4.2zm-0.3-27.8c-6 0-11.9 1.3-16.5 3.9-4.2 2.4-6.5 5.6-6.5 9 0 3.4 2.3 6.6 6.6 9.1 9.2 5.3 24.1 5.4 33.2 0.1 4.3-2.5 6.6-5.7 6.6-9 0-3.4-2.4-6.7-6.7-9.1-4.6-2.7-10.6-4-16.7-4z"/>
				</g>
			</g>
			<path id="Layer" class="s2" d="m232 285.2c-1.2-0.7-2.5-0.2-0.6 3.2 1.9 3.4 18.8 15.4 32.5 9.9 9.8-4 5.2-9.9 5.2-9.9 0 0-0.1 4.9-2.9 6.6-6.2 4-19.2 1.9-26.2-3.2-7.1-5-5.5-5.3-8-6.6z"/>
		</g>
	</g>
</svg>