<svg version="1.2" xmlns="http://www.w3.org/2000/svg" viewBox="0 0 450 450" width="450" height="450">
	<title>plomb4</title>
	<defs>
		<clipPath clipPathUnits="userSpaceOnUse" id="cp1">
			<path d="m131.29 302.1l-6.02 3.29-4.58-2.77 0.59-0.28-2.36-5.32c0 0 7.28-3.54 8.03-3.56 0.76-0.03 4.34 8.64 4.34 8.64z"/>
		</clipPath>
	</defs>
	<style>
		.s0 { fill: #c7edff } 
		.s1 { fill: #c9d6e2 } 
		.s2 { fill: #194d7e } 
		.s3 { fill: #ffa875 } 
		.s4 { fill: #fc9a5d } 
		.s5 { fill: #bbebff } 
		.s6 { fill: #96c7ed } 
		.s7 { fill: #f46c0a } 
		.s8 { fill: #2b83c6 } 
		.s9 { fill: #aedff7 } 
		.s10 { fill: #e3f7ff } 
		.s11 { fill: #ffffff } 
		.s12 { fill: #efbea3 } 
		.s13 { fill: #2275b4 } 
		.s14 { fill: #414042 } 
		.s15 { fill: #26466c } 
		.s16 { fill: #1e5f99 } 
		.s17 { fill: #ffd1b6 } 
		.s18 { fill: #d1746d } 
		.s19 { fill: #faaf44 } 
	</style>
	<g id="Layer">
		<g id="Layer">
			<g id="Layer">
				<g id="Layer">
					<path id="Layer" fill-rule="evenodd" class="s0" d="m224.1 242.8l70.6-40.8 70.1 40.5-70.6 40.8zm70.6-39.9l-69.1 39.9 68.7 39.7 69.1-39.9z"/>
				</g>
				<g id="Layer">
					<path id="Layer" fill-rule="evenodd" class="s0" d="m154.3 283.1l70.6-40.8 70.1 40.5-70.6 40.8zm70.6-39.9l-69.1 39.9 68.7 39.7 69.1-40z"/>
				</g>
				<g id="Layer">
					<path id="Layer" fill-rule="evenodd" class="s0" d="m84.5 323.4l70.6-40.8 70.1 40.5-70.6 40.8zm70.6-39.9l-69.1 39.9 68.7 39.7 69.1-40z"/>
				</g>
				<g id="Layer">
					<path id="Layer" fill-rule="evenodd" class="s0" d="m293.3 282.8l70.6-40.8 70.2 40.5-70.6 40.8zm70.6-39.9l-69.2 39.9 68.7 39.7 69.2-40z"/>
				</g>
				<g id="Layer">
					<path id="Layer" fill-rule="evenodd" class="s0" d="m223.5 323.1l70.6-40.8 70.2 40.5-70.6 40.8zm70.6-39.9l-69.2 39.9 68.7 39.7 69.2-40z"/>
				</g>
				<g id="Layer">
					<path id="Layer" fill-rule="evenodd" class="s0" d="m153.7 363.4l70.6-40.8 70.2 40.5-70.6 40.8zm70.6-40l-69.2 40 68.7 39.7 69.2-40z"/>
				</g>
			</g>
			<g id="Layer">
				<g id="Layer">
					<path id="Layer" fill-rule="evenodd" class="s0" d="m154.6 202.7l70.6-40.8 70.1 40.5-70.6 40.8zm70.6-39.9l-69.1 39.9 68.7 39.7 69.1-40z"/>
				</g>
				<g id="Layer">
					<path id="Layer" fill-rule="evenodd" class="s0" d="m84.8 243l70.6-40.8 70.1 40.5-70.6 40.8zm70.6-39.9l-69.1 39.9 68.7 39.7 69.2-40z"/>
				</g>
				<g id="Layer">
					<path id="Layer" fill-rule="evenodd" class="s0" d="m15 283.3l70.6-40.8 70.1 40.5-70.6 40.8zm70.6-40l-69.1 40 68.7 39.7 69.2-40z"/>
				</g>
			</g>
		</g>
		<path id="Layer" class="s1" d="m145.4 300.7c-33.4 0-60.5-15.6-60.5-34.9 0-19.3 27.1-34.9 60.5-34.9 33.5 0 60.5 15.6 60.5 34.9 0 19.3-27 34.9-60.5 34.9z"/>
		<path id="Layer" class="s1" d="m307.1 253.7c-23.5 13.6-56.5-1.8-80.2-15.5-23.7-13.7-37.9-27-14.3-40.5 23.5-13.6 45.6-6.3 69.3 7.4 23.7 13.7 48.7 35 25.2 48.6z"/>
		<path id="Layer" class="s1" d="m368.6 303.9c-20.5 0-37-9.6-37-21.4 0-11.8 16.5-21.4 37-21.4 20.5 0 37 9.6 37 21.4 0 11.8-16.5 21.4-37 21.4z"/>
		<g id="Layer">
			<g id="Layer">
				<g id="Layer">
					<path id="Layer" class="s2" d="m134.4 316.4l-0.1 4c0 0 4.5-0.4 6.4-1.3 1.9-0.9 2.9-2.3 3.4-3.4 0.5-1.1 1-3.6-0.7-4.6-6.8-4.1-25.6-10.6-25.6-10.6l-3 1.9 23.6 12.7z"/>
					<path id="Layer" class="s2" d="m128.8 304.8l-5.5 3 1.6 1 5.5-3.1z"/>
					<path id="Layer" class="s2" d="m126.9 303.6l-5.5 3 1.6 1 5.5-3z"/>
					<g id="Layer">
						<path id="Layer" class="s3" d="m64.7 277.3l61 38.5c0.6 0.3 1.4 0.4 2 0.3q0.1-0.1 0.2-0.1l7.8-3c0.2-0.1-11-3.8-11-3.8l-4.1-2.5 1.9-1.1c0.3-0.1 0-0.4-0.5-0.5h-1.6c-2.5-0.1-5.1-0.8-7.1-1.9l-46.3-27.2c-0.4-0.2-0.6-0.5-1.1-0.5-0.5-0.1-1-1.1-1.3-0.9-0.7 0.4-0.7 2.2 0.1 2.7z"/>
						<path id="Layer" class="s4" d="m132.3 310.3c1.8 1.3 3.6 2.6 3.4 2.7l-7.8 3q-0.1 0-0.2 0.1c-0.5-0.5-1.2-1.2-1-1.9 0.3-1.4 2.4-2.9 5.6-3.9z"/>
					</g>
				</g>
				<g id="Layer">
					<path id="Layer" class="s5" d="m133 308.6l-6.5 3.6 1.8 1.1 6.5-3.6z"/>
					<path id="Layer" class="s6" d="m134.8 309.7l-8.1 4.5 1.8 1.1 6.5-3.6z"/>
					<path id="Layer" class="s0" d="m126.5 312.2l0.2 2 1.8 1.1-0.2-2z"/>
					<path id="Layer" class="s2" d="m134.7 315.5l-0.3 0.9c0 0 4.5-0.4 6.4-1.3 1.8-0.9 3.6-2.7 2.9-3.8-0.8-1-25.8-14.9-25.8-14.9l-3 1.9 24.9 14.1z"/>
					<path id="Layer" class="s2" d="m125.6 308.2c-1.6-0.4-10.4-6.3-10.4-6.3l-0.3-3.6 11.3 6.4z"/>
					<path id="Layer" class="s6" d="m139.6 311.5l-7 3.8 1.8 1.1 7-3.8c0.5-0.3 0.5-0.7 0.1-1l-0.2-0.1c-0.5-0.3-1.2-0.3-1.7 0z"/>
					<g id="Layer">
						<path id="Layer" class="s3" d="m72 278.3c0 0-4.5-2.8-5-2.7-0.5 0-0.8 0-0.8 0 0 0-0.8-1-0.6-1.1 0.2-0.1 0.9-0.3 0.9-0.3 0 0 5.7 2.9 5.8 3 0.1 0.1-0.3 1.1-0.3 1.1z"/>
						<path id="Layer" fill-rule="evenodd" class="s4" d="m136 304.5c2.1 1.3 2.2 3.2 0.3 4.2q-0.2 0.1-0.5 0.2l-7.8 3.1c-0.7 0.2-1.6 0.1-2.2-0.3l-60.6-36c-0.9-0.5-0.9-1.2-0.2-1.6 0.3-0.2 0.8-0.3 1.3-0.2 0.5 0 1 0.1 1.4 0.4l45.7 24.8c2 1.2 4.6 1.9 7.1 1.9l1.6 0.1c0.5 0 0.8 0.3 0.5 0.5l-1.9 1 4.1 2.5 4.2-1.5c1.8-0.7 4.4-0.5 6.4 0.5q0.3 0.2 0.6 0.4zm-68.3-29.4c-0.3-0.2-0.8-0.3-1.1-0.2-0.4 0.2-0.4 0.5 0 0.8l3 1.8c0.4 0.2 0.9 0.3 1.2 0.1 0.3-0.2 0.3-0.5-0.1-0.7z"/>
						<path id="Layer" class="s7" d="m125.6 309.4c-0.3 0.2-0.8 0.1-1.1-0.1l-54.9-31.8c0.3 0.2 0.9 0.2 1.2 0.1q0.2-0.2 0.2-0.3-0.1-0.2-0.3-0.4l54.9 31.8c0.3 0.2 0.3 0.5 0 0.7z"/>
					</g>
					<path id="Layer" class="s7" d="m135.4 304.1c-2-1-4.6-1.2-6.4-0.5l-4.2 1.5 1.6 3.9z"/>
					<g id="Layer">
						<g id="Clip-Path" clip-path="url(#cp1)">
							<g id="Layer">
								<path id="Layer" class="s0" d="m123.3 300.8c1-0.6 2.7 0.5 2.6 1.7 0 1.1-1.5 2.7-2.5 3.2-1 0.5-2-0.8-2-1.9 0.1-1.1 0.9-2.5 1.9-3z"/>
								<path id="Layer" class="s6" d="m124.2 301.4c1-0.6 1.8-0.1 1.7 1.1 0 1.1-0.8 2.4-1.8 3-1 0.5-1.8 0-1.7-1.1 0-1.1 0.8-2.5 1.8-3z"/>
								<path id="Layer" class="s0" d="m125.4 302c1-0.5 2.7 0.6 2.6 1.7 0 1.2-1.5 2.7-2.5 3.3-1 0.5-2-0.8-2-1.9 0.1-1.2 0.9-2.5 1.9-3.1z"/>
								<path id="Layer" class="s6" d="m126.3 302.6c1-0.5 1.8 0 1.7 1.1 0 1.2-0.8 2.5-1.8 3-1 0.6-1.8 0.1-1.7-1 0-1.2 0.8-2.5 1.8-3.1z"/>
							</g>
						</g>
					</g>
				</g>
				<path id="Layer" class="s0" d="m134.3 320.4l-1.7-1v-4.1l1.8 1.1z"/>
			</g>
			<g id="Layer">
				<path id="Layer" class="s8" d="m154.1 125.4c0 0-6.1 1.1-8.3 4.1-2.3 3.1-3.2 9.6-3.2 9.6 0 0 10.4 3 11-1.8 0.6-4.7 0.5-11.9 0.5-11.9z"/>
				<g id="Layer">
					<path id="Layer" class="s5" d="m290.4 231.1c0.8 3.1-1.1 6.5-5.6 9.1-3.9 2.2-8.8 3.4-13.5 3.4-3.8 0-7.5-0.8-10.3-2.4l-40.6-23.5 10.4-37.9 56.9 29.6c0 0 0 4.5 0.2 9.1 0.1 4.7 2.7 12.6 2.7 12.6z"/>
					<path id="Layer" class="s5" d="m266.5 131.3l-55.8 30.4-2.2-42.5-5.6-23.1-2.9-13.5 43.8-16.3 11.7-11.2 0.4-0.2q0.9 0.6 1.8 1.4l0.5 0.3c0.9 0.6 1.5 1.3 1.5 2.1 1.8 2.4 3 5.4 3.4 8.2z"/>
					<path id="Layer" class="s9" d="m187.9 77.9v79.8l30.9 17.8c0 0 15.1 21.8 22.5 27.2 10.2 7.5 44.1 15.9 66.7-0.2 10.3-7.3 15.1-24.1 15.1-24.1 0 0-9.7 18.9-40.9 16.5-16.6-1.3-71.5-33.2-71.5-33.2 0 0-1.6-71.6-5.6-73.9z"/>
					<g id="Layer">
						<path id="Layer" class="s10" d="m258.8 57.6c0.1 1.1-0.7 2.2-2.2 3.1l-19.7 11.4-25.7 14.9c-2.7 1.5-6.8 1.7-9.1 0.3l-0.3-0.2-0.2-0.1-11.7-7c-1-0.6-1.6-1.3-1.9-2-0.5-1.6 0.4-3.5 2.8-4.9l42.3-24.4c3.1-1.8 7.6-2.2 10.7-1.1q0.7 0.3 1.3 0.6l9.4 5.7 2.2 1.3 0.5 0.3c1 0.6 1.5 1.3 1.6 2.1z"/>
						<g id="Layer">
							<path id="Layer" class="s5" d="m228 69.4c-2.4 1.3-6.2 1.3-8.6-0.1-2.4-1.3-2.4-3.5 0-4.9 2.3-1.4 6.2-1.4 8.5 0 2.4 1.4 2.4 3.6 0.1 5z"/>
							<path id="Layer" class="s6" d="m228 68c-2.4 1.3-6.2 1.3-8.6-0.1-2.4-1.3-2.4-3.5 0-4.9 2.3-1.4 6.2-1.4 8.5 0 2.4 1.4 2.4 3.6 0.1 5z"/>
						</g>
					</g>
					<path id="Layer" class="s0" d="m253 186.4l-42.3-24.7 55.8-30.4 41.6 23.3c15.3 8.8 21.7 25.5 5.5 34.9-16.9 9.8-45.3 5.7-60.6-3.1z"/>
					<path id="Layer" class="s11" d="m313.6 189.5c-4.5 2.8-9.6 4.5-14.8 5.4-5.2 0.9-10.6 1-15.8 0.6-5.3-0.5-10.5-1.4-15.6-2.8-5-1.5-9.9-3.5-14.4-6.3 4.7 2.4 9.6 4.1 14.7 5.4 5 1.3 10.2 2.2 15.4 2.6 5.2 0.4 10.4 0.3 15.5-0.4 5.2-0.7 10.3-2.1 15-4.5z"/>
					<path id="Layer" class="s5" d="m313.8 178.5c-0.8 2.8-2.9 5.4-6.5 7.4-12.6 7.3-35.4 4.2-48.1-3.1l-7.6-4.4c-3.7-2.1-6-4.7-7.1-7.4-1.9-4.9 0.4-10.2 7-14l5.7-3.3c10.2-5.9 26.8-5.9 37.1 0l7.6 4.4c9 5.2 14.1 13.5 11.9 20.4z"/>
					<path id="Layer" class="s6" d="m313.8 178.5q-0.1 0.6-0.4 1.2c-1.1 2.3-3.1 4.5-6.1 6.2-12.6 7.3-35.4 4.2-48.1-3.1l-7.6-4.4c-3.1-1.8-5.2-3.8-6.5-6.1q-0.3-0.6-0.6-1.3c1.1-2.6 3.4-5.2 7-7.2l5.7-3.3c10.2-5.9 26.8-5.9 37.1 0.1l7.6 4.3c6.2 3.6 10.5 8.6 11.9 13.6z"/>
					<path id="Layer" class="s0" d="m313.4 179.7c-1.1 2.3-3.1 4.5-6.1 6.2-3.8 2.2-8.6 3.5-13.8 3.9-3.7 0.4-7.7 0.3-11.6-0.1-5.3-0.6-10.5-1.8-15.1-3.5-2.8-0.9-5.4-2.1-7.6-3.4l-7.6-4.4c-3.1-1.8-5.2-3.9-6.5-6.1 1.3-2.2 3.4-4.2 6.4-6l5.7-3.2c4.7-2.8 10.8-4.2 16.9-4.4 7.3-0.3 14.7 1.2 20.2 4.4l7.6 4.4c5.6 3.2 9.7 7.7 11.5 12.2z"/>
					<path id="Layer" class="s11" d="m304.6 173.1c0 0-5.4 9.9-11.1 16.7-3.7 0.4-7.7 0.3-11.6-0.1 8.1-5.5 12.6-22.7 12.6-22.7z"/>
					<path id="Layer" class="s5" d="m266.5 184.3q0.1 1 0.3 1.9c-2.8-0.9-5.4-2.1-7.6-3.4l-7.6-4.4c-3.1-1.8-5.2-3.9-6.5-6.1 1.3-2.2 3.4-4.2 6.4-6l5.7-3.2c4.7-2.8 10.8-4.2 16.9-4.4-2.5 5.7-8.2 19.4-7.6 25.6z"/>
					<g id="Layer">
						<path id="Layer" class="s6" d="m238.9 160.3c-1.4 0.8-3.7 0.8-5.1-0.1-1.4-0.8-1.4-2.1 0-2.9 1.4-0.8 3.7-0.8 5.1 0 1.4 0.8 1.4 2.1 0 3z"/>
						<path id="Layer" class="s6" d="m263.7 128.7c0.5-0.3 4.3-3.3 4.3-3.3 0 0 1.1 8.6 0 11-1 2.4-3.4 5.3-3.4 5.3l-3.2-3.9z"/>
						<path id="Layer" class="s6" d="m264.8 140.9c0 1.2-0.8 1.6-1.8 1.1-1-0.6-1.7-2-1.7-3.1 0-1.1 0.7-1.6 1.7-1 1 0.6 1.8 1.9 1.8 3z"/>
						<g id="Layer">
							<path id="Layer" class="s6" d="m263.5 145.3c-1.4 0.8-3.7 0.8-5.1 0-1.4-0.8-1.4-2.1 0-3 1.4-0.8 3.7-0.8 5.1 0.1 1.4 0.8 1.4 2.1 0 2.9z"/>
							<path id="Layer" class="s6" d="m258.7 138.4v5.1c0 0 0.7 1.3 2.2 1.3 1.6 0 2.1-1 2.1-1v-6.5z"/>
							<path id="Layer" class="s6" d="m234.2 153.4v5.2c0 0 0.7 1.2 2.2 1.2 1.5 0 2.1-1 2.1-1v-6.4z"/>
						</g>
						<path id="Layer" class="s6" d="m220.4 157.2c0 0 5 4.4 8.1 4.2 2.1-0.2 5.2-1.5 7-2.3 1.1-0.5 1.9-1.6 1.8-2.8 0-0.6-0.2-1.3-0.9-1.7-2-0.9-3.4-0.2-3.4-0.2z"/>
						<path id="Layer" class="s5" d="m228.1 157.5c-4.5 2.6-8.3 1.1-9.2-3.5-1.7-9.6-4.2-25.8-3.9-36.8 0.4-16.6 11.6-42.5 29.1-52.6 17.5-10.1 26.3 11.7 26.3 23.2 0 7.8-3 27.7-4.9 39.6-0.9 5.5-4.8 11.3-9.2 13.8z"/>
						<path id="Layer" class="s5" d="m272.7 87.8c0 7.8-3 27.7-5 39.6-0.9 5.5-4.7 11.3-9.2 13.8l-28.1 16.3c-1.9 1.1-3.8 1.5-5.3 1.2-2-0.5-3.4-2.1-3.9-4.7-1.7-9.6-4.2-25.8-3.9-36.8 0.4-16.6 11.5-42.5 29.1-52.6 2.7-1.6 5.1-2.4 7.4-2.6 12.6-1.1 18.9 16.1 18.9 25.8z"/>
						<path id="Layer" class="s11" d="m217.3 117.2c0.1-8.9 2.6-17.5 6.1-25.6 1.8-4.1 4-8 6.4-11.6 2.5-3.7 5.4-7.2 8.6-10.2q1.2-1.2 2.6-2.2c0.9-0.6 1.7-1.4 2.7-1.9 1.8-1.3 3.7-2.5 5.9-3.2q1.6-0.6 3.3-0.9c1.1-0.2 2.3-0.1 3.4 0 2.3 0.2 4.4 1.1 6.3 2.5 3.6 2.7 6 6.7 7.6 10.8 1.6 4.1 2.5 8.5 2.5 12.9-0.2-4.4-1.3-8.7-3-12.7-1.7-4-4.1-7.8-7.6-10.3-1.8-1.2-3.8-2-5.9-2.2-1.1 0-2.1-0.1-3.2 0.1q-1.6 0.2-3.1 0.8c-2 0.7-3.8 1.9-5.6 3.1-0.9 0.5-1.7 1.3-2.6 1.9q-1.3 1-2.5 2.2c-6.4 5.8-11.2 13.4-15 21.2-1.8 4-3.4 8.1-4.6 12.3-1.2 4.2-2.1 8.6-2.3 13z"/>
						<path id="Layer" class="s6" d="m270.4 87.8c0 7.8-3 27.7-4.9 39.6-0.9 5.5-4.8 11.3-9.2 13.8l-28.1 16.3q-1.7 0.9-3.1 1.2c-2-0.5-3.4-2.1-3.9-4.7-1.7-9.6-4.2-25.8-3.9-36.8 0.4-16.6 11.5-42.5 29.1-52.6 2.7-1.6 5.1-2.4 7.4-2.6 11.1 1 16.6 16.7 16.6 25.8z"/>
						<g id="Layer">
							<path id="Layer" class="s6" d="m227.1 117.4c0-17.2 8.9-36.3 20-42.7 3.2-1.8 6.2-2.4 8.9-1.9-3.1-1.2-6.8-0.9-10.8 1.4-11 6.4-20 25.5-20 42.7 0 12.2 4.5 20.2 11.2 21.5-5.6-2.3-9.3-9.9-9.3-21z"/>
							<path id="Layer" class="s5" d="m256 72.8c5.6 2.3 9.3 9.9 9.3 20.9 0 17.2-9 36.4-20.1 42.8-3.1 1.8-6.2 2.4-8.8 1.9 3.1 1.2 6.7 0.9 10.7-1.4 11.1-6.4 20-25.5 20-42.7 0-12.2-4.5-20.2-11.1-21.5z"/>
							<path id="Layer" class="s5" d="m245.2 136.5c11.1-6.4 20.1-25.6 20.1-42.8 0-11-3.7-18.6-9.3-20.9-2.7-0.5-5.7 0.1-8.9 1.9-11.1 6.4-20 25.5-20 42.7 0 11.1 3.7 18.7 9.3 21 2.6 0.5 5.7-0.1 8.8-1.9z"/>
							<g id="Layer">
								<path id="Layer" class="s11" d="m267.1 94.3c-0.2-2.9-0.6-5.9-1.3-8.7-0.8-2.8-1.8-5.5-3.5-7.8-1.6-2.4-4-4.1-6.8-4.6-2.8-0.5-5.8 0.3-8.4 1.5 2.4-1.6 5.4-2.8 8.5-2.4 3.1 0.4 5.9 2.3 7.6 4.8 1.8 2.5 2.9 5.4 3.5 8.3 0.5 3 0.7 6 0.4 8.9z"/>
							</g>
						</g>
					</g>
					<path id="Layer" class="s11" d="m294.3 153.7c3.3 1.7 6.6 3.3 9.8 5.3 3.2 2 6 4.6 8.1 7.8 2 3.1 3.2 7.1 2.3 10.9-0.4 1.8-1.4 3.5-2.7 4.9-1.3 1.4-2.8 2.5-4.5 3.3 3.1-2 5.7-4.9 6.4-8.4 0.7-3.5-0.5-7.2-2.5-10.1-1.9-3.1-4.6-5.6-7.6-7.7-1.5-1-3-2-4.6-3-1.6-1-3.1-1.9-4.7-3z"/>
				</g>
				<path id="Layer" class="s12" d="m186.7 118.6c0-0.8-2.4-4.8 0-13.2 2.4-8.5 4.9-9.4 6.7-14.6 1.8-5.3 3.1-7.9 5.1-10.2 1.4-1.7 3.3-1.6 6-2.3 2.7-0.6 6.9-2.2 9.9-2.8 3-0.7 8.3 3.4 8.3 3.4 0 0 5.1 3.3 2.8 3-2.3-0.2-2.6-0.4-2.6-0.4l3.3 2.5c0 0 0.6 1.8-1.3 1.4-1.9-0.4-2.2-0.6-2.2-0.6l2.9 2.3c0 0 0.3 1.6-1.4 1.3-1.7-0.3-4.7-3.7-4.7-3.7 0 0-4.5 1.7-6.3 2-3.7 0.5-3.1 1.4-2.3 2.4 1.5 1.8 1.2 2.3 5.9 3.2 1 0.2 2.2 2.6 1.8 2.7-0.3 0-4.5-0.4-6.5-0.3-2.1 0-3.7-1-6.8-2.3-3.1-1.3-3.6-2.4-3.6-2.4 0 0-0.8 7.3-0.2 12.2 0.6 4.8-5.2 19.1-7.5 20-2.4 0.8-7.3 1.4-7.3-3.6z"/>
				<path id="Layer" class="s13" d="m175.8 147.5c0 0 6.9-0.9 12.1-5.8 5.1-4.8 11-21 8.7-23.1-3.4-3.1-7.7-11-11.3-7.3-3.6 3.6-7.4 12.1-12.6 14.9-5.1 2.7-6.4 3.8-4.2 10.7 2.3 6.8 7.3 10.6 7.3 10.6z"/>
				<g id="Layer">
					<path id="Layer" class="s2" d="m95.4 248.2l-3.7 0.9c0 0-0.3 4.1 3.7 4.6 4 0.5 9.8 0.5 12.5 2.9 2.7 2.4 1.8 5.2 3.2 6.2 1.4 0.9 7.1-3.3 9.6-5.1 2.4-1.8-1.5-20.9-3.8-20.2-2.2 0.7-21.5 10.7-21.5 10.7z"/>
					<path id="Layer" class="s14" d="m101.7 243.6c0 0-12.6 3.8-9.5 6.4 3.2 2.5 12.4-7.1 15.8-7.9 3.5-0.8 6.4-1.2 8.7-3.9 2.3-2.6-10.8 3-15 5.4z"/>
					<g id="Layer">
						<path id="Layer" class="s5" d="m170.4 257.8c0 0-6.9 7.6-4.5 11 2.3 3.5 5.6 4.7 7.9 6.4 2.3 1.6 7.3 9.6 12.1 11.5 4.8 2 7 3.1 11.4-1.1 4.4-4.3 0.5-10.3-2.9-11.3-3.5-1-7.7-4-8.5-6.3-0.8-2.2-6.7-10.2-6.7-10.2 0 0-8.8 0-8.8 0z"/>
						<path id="Layer" class="s2" d="m170.4 255.7c0 0-6.9 7.6-4.5 11 2.3 3.4 5.6 4.6 7.9 6.3 2.3 1.6 7.3 9.6 12.1 11.6 4.8 1.9 7 3.1 11.4-1.2 4.4-4.2 0.5-10.2-2.9-11.2-3.5-1-7.7-4.1-8.5-6.3-0.8-2.3-6.7-10.2-6.7-10.2 0 0-8.8 0-8.8 0z"/>
						<path id="Layer" class="s2" d="m176.8 235.7c0 0-5 7.6-7.2 13-2.2 5.4-2.2 8.7-2.2 8.7 0 0 0.8 4.1 7 4.3 6.1 0.2 11.5-2.8 14.8-6 3.2-3.3 13.3-14.7 15.8-16.2 2.5-1.6 4.1-10.4-1.7-16.9-5.7-6.5-16.8-17.8-24.1-20.4-7.3-2.7-19.9-4.8-20.4-4.8-0.5 0-14.7 10.5-14.5 19 0.2 8.4 16.6 16.6 22.7 18.1 6 1.5 9.8 1.2 9.8 1.2z"/>
					</g>
					<path id="Layer" class="s15" d="m122.5 248.1c0 0-4.1-4.8-7.8 0-3.6 4.7-3.6 9.7-3.6 14.7 0 4.9 37.9 33.8 44.8 35.1 6.9 1.3 15.4-4.6 16.2-9.1 0.9-4.5-4.7-9.7-17.7-17-12.9-7.3-31.9-23.7-31.9-23.7z"/>
					<path id="Layer" class="s2" d="m118.2 199.1c0 0-8.6 9.5-7.1 21.6 0.9 7.6 18.5 25.1 18.7 31.9 0.2 6.7 13 29.9 16 33.9 3 4.1 9.9 14.2 17.7 10.5 7.8-3.8 9.7-6 8.7-14.8-0.9-8.9-6.1-23.6-7.4-32-1.3-8.4-13.6-28.2-13.6-28.2l0.4-16.6-28.9-10.7c0 0-3.6 2.1-4.5 4.4z"/>
					<path id="Layer" class="s16" d="m151.6 126.2c0 0-4.5 9.5-10.8 11.3-6.2 1.8-17.4 8.4-19.4 16.3-1.9 8 0.6 37.7 0 39.9-0.5 2.3-1.9 1.4-0.5 2.3 1.4 0.8 23.8 14.9 32 11.3 8.2-3.7 14.4-4.5 15.1-6.3 0.7-1.7-1.6-13.6 1.6-18 3.2-4.4 7.5-13.7 8.4-20.4 0.8-6.6 3.2-22.7-1.9-28.4-5.1-5.7-15.4-6.4-15.4-6.4z"/>
					<path id="Layer" class="s0" d="m144.6 135.4c0 0 0.8 10.3 6.8 14 6.1 3.7 13.3 7.7 14 7.4 0.7-0.2 3.7-13.1 3.1-14.4-0.7-1.3-3.1-3.5-3.1-3.5 0 0-12.9-12.6-18.7-6.3z"/>
					<path id="Layer" class="s8" d="m162.6 135c0 0 3.6 8.4 3.6 12.5 0 4.1-0.8 9.3-0.8 9.3l7-15.1h-3.9c0 0 5.6-8.4 0-8.1-5.5 0.3-5.9 1.4-5.9 1.4z"/>
					<path id="Layer" class="s12" d="m146.7 132.6c0 0-0.9 5.1 1.7 8.8 2.6 3.8 11 8.8 13.4 7.4 2.3-1.3 1.7-2.6 2.6-5.4 0.8-2.8 2.8-8.2 2.8-8.2l-12.3-10.5z"/>
					<path id="Layer" class="s13" d="m127.2 147.1c0 0-4.3 0.3-4.1 14.3 0.3 14 12.7 38.1 12.7 38.1 0 0 5.5-6.8 8.5-7.6 3-0.8 5.5-0.8 5.5-0.8 0 0-5.5-27.3-5.5-34 0-5.7-6-16.4-17.1-10z"/>
					<path id="Layer" class="s12" d="m134.6 194.7c0 0 2.4 13 9.7 12.4 7.3-0.7 25.6-11.5 29.5-12.4 3.9-1 6.9-2.7 6.9-2.7v-9.1c0 0-11.2 5-19.4 6.7-8.2 1.7-25.1 1.3-26.7 5.1z"/>
					<path id="Layer" class="s12" d="m177.6 187.7c0 0 0.9-6.3 3.1-7.4 2.2-1 5.6-3 6-3.2 0.4-0.2 2.5-5.2 3.1-3.9 0.7 1.3 0.2 3.3-1.1 5.2-1.2 1.9-1.2 1.9-1.2 1.9 0 0 5.5 0.2 5.5 1.5 0.1 1.2-1.5 2.1-1.5 2.1 0 0 1.5 0 1.5 1.6 0.1 1.7-1.6 1.7-1.6 1.7 0 0 1.4-0.1 1.1 1.1-0.3 1.2-1.6 2.5-2 2.2-0.5-0.2 1.2 1.2 0.3 2.3-0.8 1.2-2.8 1.2-3.7 1.2-0.9 0-3 1.1-6.4-0.4-3.4-1.6-3.1-5.9-3.1-5.9z"/>
					<path id="Layer" class="s8" d="m149.3 185c-2-1.4-6.8-0.6-9.7 1.5-2.8 2-10.4 10.4-5.3 16.8 5.1 6.4 8.2 4 8.2 4 0 0-4.8-4.3-0.8-10.5 3.9-6.1 9.9-6 9.9-6 0 0-1.1-4.8-2.3-5.8z"/>
					<path id="Layer" class="s13" d="m151.6 122.5c-1 0.1-6-4.9-7.3-7.3-1.3-2.5-4.5-11.8 3.7-17.2 8.1-5.3 12.4-4.6 15.1-3 2.8 1.6 6.6 3.8 7.8 4.5 1.2 0.7 2.7 3.3 1.2 5.7-1.5 2.5-7 11.4-8 12.9-1 1.4-12.5 4.4-12.5 4.4z"/>
					<path id="Layer" class="s17" d="m149 118.8c0 0-4.7-3-4.7-1.1 0 1.9 1.1 5.1 2.2 6.2 1.2 1.2 3.9 2.7 4.7 3.2 0.7 0.4 1.9 0.4 1.9 0.4 0 0 4.3 8.6 7.7 9.4 3.5 0.7 6.6 3 8.8 2.3 2.2-0.7 5-3.5 5-3.5 0 0 1.5-12.9 1.5-14.5 0-1.6-0.3-4.9-0.3-4.9l-1.3-2.3c0 0-1-9.3-2.9-9.9-1.8-0.6-0.1 2.9-5.3 4.2-5.2 1.3-13.7 0-14 2.6-0.2 2.5 2.6 9.7 0 9.5-2.5-0.1-3.3-1.6-3.3-1.6z"/>
				</g>
				<path id="Layer" class="s8" d="m182.3 111.7c0 0 3.5-3.9 7.3-3.5 10.4 1.1 10 7.4 10.4 11.5 0.4 4-4.2 7.3-4.2 7.3 0 0 0.5-5.3-4.6-9.9-4.1-3.6-8.4-2.7-8.4-2.7 0 0-1 0.4-0.5-2.7z"/>
				<path id="Layer" class="s8" d="m144.3 132.1c0 0 1.9-3.8 3.2-2.1 1.3 1.7-1.6 10.2 1 13.9 2.6 3.6 16.9 12.9 16.9 12.9 0 0-17.3 1.9-16.9 1 0.4-1 1.3-6.8 1.3-6.8 0 0-1.9 0.6-3.3 0.6-1.3 0-8.1-11.7-2.2-19.5z"/>
			</g>
		</g>
		<g id="Layer">
			<path id="Layer" class="s3" d="m378 52.6c0 0 0.9-4.5 5.5-4.4 4.6 0 6 2.5 7.6 6.2 1.6 3.7 0.8 13.9 0 14.7-0.8 0.9-1.6 3.4-6.1 1.5-4.4-1.9-7-18-7-18z"/>
			<path id="Layer" class="s15" d="m357.4 263.9c0 0-8.5 6.7-12 7.9-3.5 1.2-7.6 5.7-9.2 9.3-1.6 3.7 0.2 6.8 0.2 6.8 0 0 7.9 1.4 13.8-3.5 6-5 5.5-5.8 7.2-6.8 1.8-1.1 8.6-1.6 10.8-6.3 2.3-4.6-2.8-8.8-2.8-8.8z"/>
			<path id="Layer" class="s15" d="m383.4 269.9l-0.7 4.2c0 0-1.7 9.8-3.3 12.8-1.7 3.1-4.1 11.5-1.7 13.4 2.4 1.9 13.2-2.7 14.8-5.3 1.6-2.6 1.6-12.6 1.6-12.6 0 0 5.9-12.4 3.6-14-2.4-1.7-6.8-2.7-6.8-2.7z"/>
			<path id="Layer" class="s13" d="m340.6 146.5c0 0-5.7 24.7-2.2 42.2 3.6 17.6 10.3 34 10.3 37.8 0 3.8 3.9 41 3.9 41 0 0-2.3 3.3 3.8 2.2 6.1-1.1 10-6.2 10-6.2 0 0 2.7-31.3-1.3-36.5-4.1-5.3-4.1-8.6-4.1-8.6 0 0 8.7-39 7.8-50.9-0.9-11.9-28.2-21-28.2-21z"/>
			<path id="Layer" class="s12" d="m362.8 86.8c0 0 3.8-6.3-1.8-7.9-5.5-1.6-9.4 3.6-10.2 6.2-0.8 2.6-1.3 4.1-3.3 6.5-2 2.3-9.5 11.7-10 12.6-0.4 0.9-1.1 2.5-1.1 2.5l2.5 11.5c0 0 3.5 1.6 9.9-6.3 6.5-7.9 14-25.1 14-25.1z"/>
			<path id="Layer" class="s8" d="m358.4 170.8c0 0-14.9 65.6-8.3 72.8 6.7 7.2 20.7 15.5 24.7 20.5 4.1 5 7.9 10 7.9 10 0 0 7.9-1.4 9.4-2.2 1.4-0.8 1.4-4.2 1.4-4.2 0 0-3.9-1.3-7.3-10.6-3.3-9.4-5.6-17-11.4-18.7-5.7-1.7-5.7-1.7-5.7-1.7 0 0 19.5-52.1 19.1-60.2-0.5-8.1-5-16.2-5-16.2 0 0-4.3 6.3-12.2 8.4-8 2.1-12.6 2.1-12.6 2.1z"/>
			<path id="Layer" class="s12" d="m392.5 102.8c-0.5 4-12.7 44.9-12.7 44.9l5.7 17.7c0 0-2.8 7.1-6.6 9.5-3.8 2.3-17.6 1.6-30.4-7.4-12.9-9.1-9.1-21-9.1-21 0 0 1.2 0 1.9-2.8 0.7-2.9 4.3-5.7 4.3-5.7l1.4-9.8c0 0-1.9-3.8-4.5-9-2.6-5.3-0.5-8.6 2.1-12.4 2.6-3.8 15.5-22.4 15.5-22.4 2.5-3.6 5.6 1.4 5.6 1.4v-2.8l0.4-0.5 2.8-3.3c0 0 9-7.4 10.2 1.2 0.5 3.7 2 6.2 3.6 7.9 2 2.1 4.1 2.9 4.8 3.3 1.2 0.7 5.4 7.1 5 11.2z"/>
			<path id="Layer" class="s12" d="m338.9 106.6c0 0-3.3-1.6-7.8-1.1-4.4 0.5-16.9 0.5-16.9 0.5 0 0-2.7-4-6.4-3.7-3.8 0.4-8.4 1.2-10.6 0.4-2.2-0.8-3.4 1.2-2.2 1.8 1.1 0.5 8 0.5 8 0.5l-5.5 1.6c0 0-0.8 0.6-0.8 1.2 0 0.6 0 0.8 0 0.8 0 0-0.9 0.7-0.8 1.5 0 0.7 0 0.7 0 0.7 0 0-0.3-0.1-0.2 0.7 0 0.7 0 0.7 0.4 1.4 0.4 0.6 0.4 3.2 1 2.9 0.7-0.3 1-2.9 1-2.9 0 0 3.2 0.3 6.1 0.6 2.8 0.3 5.4 0.3 6.6-0.3 1.2-0.5 1.6-0.9 1.6-0.9 0 0 16.9 6 21.2 6.4 4.3 0.5 6.6-0.4 6.7-0.4 0.2 0 6-7.4-1.4-11.7z"/>
			<path id="Layer" fill-rule="evenodd" class="s18" d="m366.1 82.5c0 0.4 0 0.9 0 1.5 0 0.6-0.1 1.3-0.1 1.9l-0.6-0.1c0-0.9 0-1.9 0.1-2.8 0.3-0.3 0.5-0.4 0.6-0.5zm0 0c-0.2 0.2-0.2 0.4-0.3 0.6q0 0.2 0.1 0.5 0.1-0.5 0.2-1.1zm-0.2 1.1q-0.1 0.4-0.2 0.7c-0.2 0.5-0.3 1-0.3 1.5h0.6c0-0.7 0-1.5-0.1-2.2z"/>
			<path id="Layer" class="s7" d="m392.5 102.8c-0.5 4-12.7 44.9-12.7 44.9l5.7 17.7c0 0-2.8 7.1-6.6 9.5-3.8 2.3-17.6 1.6-30.4-7.4-12.9-9.1-9.1-21-9.1-21 0 0 1.2 0 1.9-2.8 0.7-2.9 4.3-5.7 4.3-5.7l1.4-9.8c0 0-1.9-3.8-4.5-9-2.6-5.3-0.5-8.6 2.1-12.4 2.6-3.8 15.5-22.4 15.5-22.4 2.5-3.6 5.6 1.4 5.6 1.4l-3.9 20.3c0 0 6.6-7.2 10.7-9.3 4-2.2 11.8-6.3 10.2-8.5 2 2.1 4.2 2.8 4.8 3.3 9.7 8.1 5.4 7.1 5 11.2z"/>
			<path id="Layer" class="s19" d="m359.4 61.3c0 0 4.1-10 14.7-10 10.6 0 12.6 10.4 12.4 12.6-0.2 2.2-0.9 9.2-3 11.1-13.2 11.8-26.7-1-24.1-13.7z"/>
			<path id="Layer" class="s17" d="m359.4 61.3c0 0-2.2 6.6-2.2 7.8 0 1.3 0.7 1.2 0.6 2.6-0.2 1.4-1.9 4-0.6 6.4 1.3 2.4 1.3 5.1 1.3 6.7 0 1.5-0.5 3.5 1.5 4.3 2 0.8 2.4 1.6 6.6 0 4.1-1.5 7.6-3.1 9.4-4.6 1.9-1.5 3.7-4.5 3.7-4.5 0 0 1 0.5 2.5-0.5 1.6-1.1 3.5-3.3 3.5-3.3 0 0 1.2-3.9 0.4-4.4-0.8-0.5-2.6 0.6-2.6 0.6l-2.1 0.2c0 0-2.4 4.3-3.9 3.6 0 0 1-6.9-1.6-9.2-8.9-7.4-16.5-5.7-16.5-5.7z"/>
			<g id="Layer">
				<path id="Layer" class="s12" d="m385.8 112.2c0 0 1.4 3 4.5 11.6 3.1 8.6 3.9 15.2 3.9 15.2l-8.7 26.6-6.9 8.2-2.3 7.6c0 0-1 1-1.6 2-0.6 1-0.5 2.2-0.5 2.2 0 0 0.5 1.2 1.5 0.1 1-1.2 2.5-3.3 2.5-3.3l2-4.7-1.7 5.2c0 0-1.2 2.3-1.4 3.6-0.2 1.3 0.4 1.6 0.7 1.7 0.2 0.1 1.9-2.7 1.9-2.7l2.8-6.6-2.2 7-2 2.6c0 0 0.1 1.1 1.7 0 1.6-1.2 1.4-0.7 2.2-1.9 0.4-0.7 3.3-7.1 3.3-7.1l-1 3.1c0 0-1.3 2-1 2.4 0.4 0.5 0.5 0.4 1.3-0.1 0.7-0.5 1.6-2.3 1.6-2.3 0 0 1.8-7.1 2.3-7.5 0.4-0.3 2-4.8 2-4.8 0 0 8-13.4 10.4-16.8 8.3-11.9 3.6-18.2 2.8-22.2-0.8-4.1-1.6-5.1-2.8-9-1.2-4-0.6-18.4-5.2-23.4-4.6-5-10.4-5.2-12.1-1.1-1.6 4.1 0.5 9.2 2 14.4z"/>
				<path id="Layer" class="s12" d="m371.5 173.2c0 0 2.3-0.6 3.2-2.1 0.9-1.6 4.7-2.3 5.7-3.1 2.2-1.8 5.1-2.4 5.1-2.4l-6.9 8.2c0 0-1.4-1-2.3-0.4-1 0.7-3.2 1.9-4.7 0.9-1.4-0.9-0.1-1.1-0.1-1.1z"/>
			</g>
			<path id="Layer" class="s3" d="m364 60.2c0 0 0 5.5 3.2 7.5 3.3 1.9 6.8 3.5 5.9 7.9-1 4.4-0.3 5.9 1.6 7.8 1.8 1.8 3.2 1.8 3.2 1.8 0 0-4.1-3.1-2.1-6.3 2.1-3.3 3.8-10.3 2.1-13.4-2.9-5.2-11.5-8.4-13.9-5.3z"/>
			<path id="Layer" class="s3" d="m357.2 69.1c0 0 0.3-3.1 2.8-4.6 2.5-1.5 4.8-4.3 4.8-4.3 0 0-3.8-1.5-6.4 1-2.6 2.4-1.2 7.9-1.2 7.9z"/>
		</g>
		<g id="Layer">
			<path id="Layer" class="s6" d="m259.9 359.9l-40.5-23.4 71.5-41.3 40.5 23.4z"/>
			<path id="Layer" class="s8" d="m259.9 362.7v-2.8l71.5-41.3v2.8z"/>
			<path id="Layer" class="s13" d="m259.9 362.7v-2.8l-40.5-23.4v2.8z"/>
			<g id="Layer">
				<path id="Layer" class="s8" d="m326.1 319.5l2.9 0.5-2.3 1.3-2.9-0.5-1.2-2.3-4-0.7-1.3-2.3-3.9-0.7-1.3-2.3-4-0.8-1.2-2.3-4-0.7-1.3-2.3-4-0.7-1.2-2.3-4-0.7-1.3-2.3-3.9-0.8-1-1.7 2.3-1.3 1 1.7 3.9 0.7 1.3 2.3 4 0.8 1.2 2.3 4 0.7 1.3 2.3 4 0.7 1.2 2.3 4 0.7 1.3 2.3 3.9 0.8 1.3 2.3 4 0.7z"/>
			</g>
			<g id="Layer">
				<path id="Layer" class="s8" d="m320.8 322.5l2.9 0.6-2.3 1.3-2.9-0.5-1.2-2.3-4-0.8-1.3-2.2-3.9-0.8-1.3-2.3-4-0.7-1.2-2.3-4-0.7-1.3-2.3-4-0.7-1.2-2.3-4-0.8-1.3-2.3-3.9-0.7-1-1.7 2.3-1.3 1 1.7 3.9 0.7 1.3 2.3 4 0.7 1.2 2.3 4 0.8 1.3 2.3 4 0.7 1.2 2.3 4 0.7 1.2 2.3 4 0.7 1.3 2.3 4 0.7z"/>
			</g>
			<g id="Layer">
				<path id="Layer" class="s8" d="m315.5 325.6l2.9 0.5-2.3 1.4-2.9-0.6-1.2-2.3-4-0.7-1.3-2.3-4-0.7-1.2-2.3-4-0.7-1.3-2.3-3.9-0.8-1.3-2.3-4-0.7-1.2-2.3-4-0.7-1.3-2.3-4-0.7-0.9-1.8 2.3-1.3 0.9 1.7 4 0.8 1.3 2.3 4 0.7 1.2 2.3 4 0.7 1.3 2.3 3.9 0.7 1.3 2.3 4 0.8 1.2 2.3 4 0.7 1.3 2.3 3.9 0.7z"/>
			</g>
			<g id="Layer">
				<path id="Layer" class="s8" d="m310.2 328.7l2.9 0.5-2.3 1.3-2.9-0.5-1.3-2.3-3.9-0.7-1.3-2.3-4-0.7-1.2-2.3-4-0.8-1.3-2.3-3.9-0.7-1.3-2.3-4-0.7-1.2-2.3-4-0.7-1.3-2.3-4-0.8-0.9-1.7 2.3-1.3 0.9 1.7 4 0.7 1.3 2.3 4 0.8 1.2 2.3 4 0.7 1.3 2.3 3.9 0.7 1.3 2.3 4 0.7 1.2 2.3 4 0.8 1.3 2.3 3.9 0.7z"/>
			</g>
			<g id="Layer">
				<path id="Layer" class="s8" d="m304.9 331.7l2.9 0.6-2.3 1.3-2.9-0.5-1.3-2.3-3.9-0.8-1.3-2.3-4-0.7-1.2-2.3-4-0.7-1.3-2.3-3.9-0.7-1.3-2.3-4-0.8-1.2-2.2-4-0.8-1.3-2.3-4-0.7-0.9-1.7 2.3-1.3 0.9 1.7 4 0.7 1.3 2.3 3.9 0.7 1.3 2.3 4 0.8 1.2 2.3 4 0.7 1.3 2.3 4 0.7 1.2 2.3 4 0.7 1.3 2.3 3.9 0.7z"/>
			</g>
			<g id="Layer">
				<path id="Layer" class="s8" d="m299.6 334.8l2.9 0.5-2.3 1.4-2.9-0.6-1.3-2.3-4-0.7-1.2-2.3-4-0.7-1.2-2.3-4-0.7-1.3-2.3-4-0.8-1.2-2.3-4-0.7-1.3-2.3-3.9-0.7-1.3-2.3-4-0.7-0.9-1.8 2.3-1.3 0.9 1.7 4 0.8 1.3 2.3 3.9 0.7 1.3 2.3 4 0.7 1.2 2.3 4 0.7 1.3 2.3 4 0.8 1.2 2.3 4 0.7 1.2 2.3 4 0.7z"/>
			</g>
			<g id="Layer">
				<path id="Layer" class="s8" d="m294.3 337.9l2.9 0.5-2.3 1.3-2.9-0.5-1.3-2.3-4-0.7-1.2-2.3-4-0.7-1.3-2.3-3.9-0.8-1.3-2.3-4-0.7-1.2-2.3-4-0.7-1.3-2.3-4-0.7-1.2-2.3-4-0.8-0.9-1.7 2.3-1.3 0.9 1.7 4 0.7 1.2 2.3 4 0.8 1.3 2.3 4 0.7 1.2 2.3 4 0.7 1.3 2.3 3.9 0.7 1.3 2.3 4 0.8 1.2 2.3 4 0.7z"/>
			</g>
			<g id="Layer">
				<path id="Layer" class="s8" d="m289 340.9l2.9 0.6-2.3 1.3-2.9-0.5-1.3-2.3-4-0.8-1.2-2.3-4-0.7-1.3-2.3-3.9-0.7-1.3-2.3-4-0.7-1.2-2.3-4-0.8-1.3-2.2-4-0.8-1.2-2.3-4-0.7-0.9-1.7 2.2-1.3 1 1.7 4 0.7 1.2 2.3 4 0.7 1.3 2.3 4 0.8 1.2 2.2 4 0.8 1.3 2.3 3.9 0.7 1.3 2.3 4 0.7 1.2 2.3 4 0.7z"/>
			</g>
			<g id="Layer">
				<path id="Layer" class="s8" d="m283.6 344l2.9 0.5-2.3 1.4-2.8-0.6-1.3-2.3-4-0.7-1.2-2.3-4-0.7-1.3-2.3-4-0.7-1.2-2.3-4-0.8-1.2-2.3-4-0.7-1.3-2.3-4-0.7-1.2-2.3-4-0.7-1-1.8 2.3-1.3 1 1.7 4 0.8 1.2 2.3 4 0.7 1.3 2.3 3.9 0.7 1.3 2.3 4 0.7 1.2 2.3 4 0.8 1.3 2.3 4 0.7 1.2 2.3 4 0.7z"/>
			</g>
			<g id="Layer">
				<path id="Layer" class="s8" d="m278.3 347.1l2.9 0.5-2.3 1.3-2.9-0.5-1.2-2.3-4-0.7-1.2-2.3-4-0.8-1.3-2.2-4-0.8-1.2-2.3-4-0.7-1.3-2.3-3.9-0.7-1.3-2.3-4-0.7-1.2-2.3-4-0.8-1-1.7 2.3-1.3 1 1.7 4 0.7 1.2 2.3 4 0.8 1.3 2.3 3.9 0.7 1.3 2.3 4 0.7 1.2 2.3 4 0.7 1.3 2.3 3.9 0.8 1.3 2.3 4 0.7z"/>
			</g>
			<g id="Layer">
				<path id="Layer" class="s8" d="m273 350.1l2.9 0.6-2.3 1.3-2.9-0.5-1.2-2.3-4-0.8-1.3-2.3-3.9-0.7-1.3-2.3-4-0.7-1.2-2.3-4-0.7-1.3-2.3-3.9-0.8-1.3-2.3-4-0.7-1.3-2.3-3.9-0.7-1-1.7 2.3-1.3 1 1.7 3.9 0.7 1.3 2.3 4 0.7 1.2 2.3 4 0.7 1.3 2.3 4 0.8 1.2 2.3 4 0.7 1.3 2.3 3.9 0.7 1.3 2.3 4 0.7z"/>
			</g>
			<g id="Layer">
				<path id="Layer" class="s8" d="m267.7 353.2l2.9 0.5-2.3 1.4-2.9-0.6-1.2-2.3-4-0.7-1.3-2.3-4-0.7-1.2-2.3-4-0.7-1.2-2.3-4-0.8-1.3-2.3-4-0.7-1.2-2.3-4-0.7-1.3-2.3-3.9-0.7-1-1.8 2.3-1.3 0.9 1.7 4 0.8 1.3 2.3 4 0.7 1.2 2.3 4 0.7 1.3 2.3 3.9 0.7 1.3 2.3 4 0.8 1.2 2.3 4 0.7 1.3 2.3 4 0.7z"/>
			</g>
			<g id="Layer">
				<path id="Layer" class="s8" d="m262.4 356.3l2.9 0.5-2.3 1.3-2.9-0.5-1.3-2.3-3.9-0.7-1.3-2.3-4-0.8-1.2-2.2-4-0.8-1.3-2.3-3.9-0.7-1.3-2.3-4-0.7-1.2-2.3-4-0.7-1.3-2.3-4-0.8-0.9-1.7 2.3-1.3 0.9 1.7 4 0.7 1.3 2.3 4 0.8 1.2 2.3 4 0.7 1.3 2.3 3.9 0.7 1.3 2.3 4 0.7 1.2 2.3 4 0.8 1.3 2.2 3.9 0.8z"/>
			</g>
		</g>
	</g>
</svg>